<?xml version="1.0" encoding="UTF-8" standalone="no"?>
<svg
   xmlns:dc="http://purl.org/dc/elements/1.1/"
   xmlns:cc="http://creativecommons.org/ns#"
   xmlns:rdf="http://www.w3.org/1999/02/22-rdf-syntax-ns#"
   xmlns:svg="http://www.w3.org/2000/svg"
   xmlns="http://www.w3.org/2000/svg"
   xmlns:sodipodi="http://sodipodi.sourceforge.net/DTD/sodipodi-0.dtd"
   xmlns:inkscape="http://www.inkscape.org/namespaces/inkscape"
   width="210mm"
   height="297mm"
   viewBox="0 0 210 297"
   version="1.1"
   id="svg3170"
   inkscape:version="1.0.2 (e86c870879, 2021-01-15, custom)"
   sodipodi:docname="bane.svg">
  <defs
     id="defs3164" />
  <sodipodi:namedview
     id="base"
     pagecolor="#ffffff"
     bordercolor="#666666"
     borderopacity="1.0"
     inkscape:pageopacity="0.0"
     inkscape:pageshadow="2"
     inkscape:zoom="1.0091449"
     inkscape:cx="409.50002"
     inkscape:cy="605.32802"
     inkscape:document-units="mm"
     inkscape:current-layer="layer1"
     inkscape:document-rotation="0"
     showgrid="false"
     inkscape:window-width="1920"
     inkscape:window-height="1001"
     inkscape:window-x="-9"
     inkscape:window-y="-9"
     inkscape:window-maximized="1" />
  <metadata
     id="metadata3167">
    <rdf:RDF>
      <cc:Work
         rdf:about="">
        <dc:format>image/svg+xml</dc:format>
        <dc:type
           rdf:resource="http://purl.org/dc/dcmitype/StillImage" />
        <dc:title></dc:title>
      </cc:Work>
    </rdf:RDF>
  </metadata>
  <g
     inkscape:label="Layer 1"
     inkscape:groupmode="layer"
     id="layer1">
    <rect
       style="opacity:1;fill:#ffebcb;fill-opacity:1;stroke-width:0.4;stroke-linecap:round"
       id="rect5684"
       width="142.01123"
       height="174.64044"
       x="63.033707"
       y="60.80899"
       inkscape:export-filename="C:\Users\ASUS\bane.png"
       inkscape:export-xdpi="96.300003"
       inkscape:export-ydpi="96.300003" />
    <path
       style="fill:#ba0101;stroke:#000000;stroke-width:0.264583px;stroke-linecap:butt;stroke-linejoin:miter;stroke-opacity:1;fill-opacity:1"
       d="m 82.326294,128.53652 -3.080679,5.70254 14.616851,1.04874 6.554644,6.68573 3.40841,3.40842 2.6874,-1.04875 0.1311,-1.7042 -4.12943,-6.81683 -5.44035,-5.24371 z"
       id="path5520" />
    <path
       style="fill:#000000;stroke:#000000;stroke-width:0.264583px;stroke-linecap:butt;stroke-linejoin:miter;stroke-opacity:1;fill-opacity:1"
       d="m 79.245615,134.23906 -3.736147,3.5395 -0.06555,2.75295 10.356334,-0.32773 8.127754,2.29413 7.668934,7.53783 2.22857,-4.65379 -9.963049,-10.09415 z"
       id="path5522" />
    <path
       style="fill:#000000;stroke:#000000;stroke-width:0.264583px;stroke-linecap:butt;stroke-linejoin:miter;stroke-opacity:1;fill-opacity:1"
       d="m 77.541405,167.53664 4.063881,6.62018 10.684065,-6.75128 4.063878,-1.24538 5.440351,0.45882 -0.78655,-2.29412 -0.0656,-4.32606 -5.636993,-1.24538 -6.161362,1.31092 z"
       id="path5526" />
    <path
       style="fill:#ba0101;stroke:#000000;stroke-width:0.264583px;stroke-linecap:butt;stroke-linejoin:miter;stroke-opacity:1;fill-opacity:1"
       d="m 75.443918,140.53151 0.327737,1.37648 -3.801693,7.60338 -1.114287,10.94625 6.685732,7.07902 11.601718,-7.4723 6.161362,-1.31092 5.636993,1.24538 0.65546,-9.96306 -7.668934,-7.53783 -8.127754,-2.29413 z"
       id="path5524" />
    <path
       style="fill:#ba0101;stroke:#000000;stroke-width:0.264583px;stroke-linecap:butt;stroke-linejoin:miter;stroke-opacity:1;fill-opacity:1"
       d="m 81.605286,174.15682 2.621856,10.74962 1.310929,0.721 3.47396,0.85211 2.884041,0.0656 5.899179,-6.16137 1.179835,-9.76641 2.490764,-2.16304 0.32773,-1.8353 -5.440353,-0.45882 -4.063876,1.24538 z"
       id="path5528" />
    <path
       style="fill:#ca955d;stroke:#000000;stroke-width:0.264583px;stroke-linecap:butt;stroke-linejoin:miter;stroke-opacity:1;fill-opacity:1"
       d="m 86.324627,133.25586 1.11429,4.19497 -6.095818,14.87904 -0.131093,5.11262 2.490764,9.56977 2.425218,6.16137 0.852104,-0.1311 0.589918,3.6706 -1.310928,2.29413 1.048742,3.34286 3.605053,0.52438 1.63866,-1.17984 0.721011,-3.34287 -2.031939,-2.42521 -2.687402,0.13109 -1.048745,-2.6874 0.458827,-1.90085 -3.605053,-9.83196 -1.048743,-8.06221 7.013467,-16.32106 -0.06555,-1.04874 -1.63866,-3.86724 -1.638662,0.13109 z"
       id="path5516" />
    <path
       style="fill:#60341a;stroke:#000000;stroke-width:0.264583px;stroke-linecap:butt;stroke-linejoin:miter;stroke-opacity:1;fill-opacity:1"
       d="m 165.24251,126.04575 3.08068,-1.7042 2.68741,0.65546 2.09748,2.55631 0.0656,2.88404 -0.58992,1.24539 0.45882,1.17983 1.50753,-0.0655 0.9832,1.7042 -1.96635,2.62186 -1.83531,0.13109 -1.04874,-1.37647 0.58992,-0.78656 -0.52437,-0.45882 -2.6874,1.11428 H 164.456 l -1.90084,-3.47395 0.58992,-3.47397 z"
       id="path5546" />
    <path
       style="fill:#000000;stroke:#000000;stroke-width:0.264583px;stroke-linecap:butt;stroke-linejoin:miter;stroke-opacity:1;fill-opacity:1"
       d="m 121.4789,154.15449 -1.29772,1.90028 -2.96629,2.64186 -0.74158,1.3441 -4.07865,5.42275 0.78792,0.92697 h 3.10534 l 6.76686,2.31741 2.82724,5.88624 3.52247,-3.56882 1.57584,-0.60253 2.03933,0.64888 1.06601,2.87359 1.06601,0.41714 0.55618,1.4368 1.06602,-1.01967 2.27106,-4.68118 2.54916,-2.5955 1.94663,-0.78793 5.97893,-1.1587 -2.54916,-3.61517 -1.66853,-1.29775 -0.27809,-1.29776 -1.80759,-1.52949 0.32444,-3.47612 0.46348,-1.01967 v -2.50281 l 1.29776,-0.83427 -0.23175,-0.37078 4.49579,-3.61517 1.2514,-0.27809 2.41012,0.88062 1.66854,-0.64888 3.26743,-3.97731 2.06262,-2.04797 2.73455,1.62219 5.42275,-2.7809 2.29949,-2.88909 3.8672,-3.08072 3.01509,-3.73615 -1.24538,-5.96472 2.94958,-6.03027 -0.78655,-4.6538 0.72101,-1.70421 -5.11262,-1.50756 -1.17984,1.17983 -0.52437,5.44035 -1.70421,4.91599 -6.42355,2.81849 -2.62185,2.35967 -3.86724,0.32773 -9.76642,-5.24371 -2.35967,-3.47396 -0.0655,-3.21177 -0.65547,-3.27733 -1.76975,-2.49076 -8.97986,0.72101 -0.91765,1.70421 2.94959,5.17817 -0.9481,5.33641 -1.93594,4.29891 -1.17984,0.58992 -1.96639,10.29078 -7.9547,6.87646 -0.18539,6.99859 0.46348,0.50983 -0.0927,2.41012 z"
       id="path5584"
       sodipodi:nodetypes="cccccccccccccccccccccccccccccccccccccccccccccccccccccccccccccccccccc" />
    <path
       style="fill:#010000;stroke:#000000;stroke-width:0.264583px;stroke-linecap:butt;stroke-linejoin:miter;stroke-opacity:1;fill-opacity:1"
       d="m 155.91573,140.71348 16.90555,-6.79002 0.74568,3.19964 -13.63371,7.47229 -1.76975,-2.62186 z"
       id="path5682" />
    <path
       style="fill:#ba0101;stroke:#000000;stroke-width:0.264583px;stroke-linecap:butt;stroke-linejoin:miter;stroke-opacity:1;fill-opacity:1"
       d="m 119.11522,184.0955 1.80753,-1.66854 0.88062,-2.36376 -1.3441,-3.19803 -3.42978,-1.90028 -3.10533,-0.50984 -3.42978,4.40309 2.03938,0.78792 3.98595,1.29776 z"
       id="path5576" />
    <path
       style="fill:#ba0101;stroke:#000000;stroke-width:0.264583px;stroke-linecap:butt;stroke-linejoin:miter;stroke-opacity:1;fill-opacity:1"
       d="m 123.24017,177.2823 2.64185,-2.6882 -2.82724,-5.88624 -3.70787,-1.52949 -3.05899,-0.78792 h -3.10534 l -0.78792,-0.92697 -1.76123,2.64186 -0.13905,2.5492 4.07865,0.0463 3.29073,0.88062 3.61517,1.99298 z"
       id="path5580" />
    <path
       style="fill:#000000;stroke:#000000;stroke-width:0.264583px;stroke-linecap:butt;stroke-linejoin:miter;stroke-opacity:1;fill-opacity:1"
       d="m 101.96629,196.14607 1.76124,3.29072 0.27809,2.54916 3.61517,0.27809 8.0646,-1.11236 2.6882,-2.31741 0.0464,-2.17837 -2.50281,-7.41573 3.19804,-5.14467 -1.29776,-1.85393 -1.29775,-1.29775 -3.98595,-1.29776 z"
       id="path5574" />
    <path
       style="fill:#242326;stroke:#000000;stroke-width:0.264583px;stroke-linecap:butt;stroke-linejoin:miter;stroke-opacity:1;fill-opacity:1"
       d="m 133.32141,125.78357 2.38645,1.3962 10.84551,-3.84691 4.63483,-0.37078 6.58198,3.28031 3.86724,-0.32773 2.62185,-2.35967 6.42355,-2.81849 6.08965,3.89412 0.69522,3.33708 -4.35961,-0.41438 -12.27943,1.43404 -0.37079,-1.01966 -0.69522,-1.48315 -0.0927,1.57584 -0.55618,0.78792 -4.0323,-1.71488 -10.15028,0.55618 -10.9382,1.76123 -2.45646,1.25141 0.60505,-4.32876 z"
       id="path5618" />
    <path
       style="fill:#ba0101;stroke:#000000;stroke-width:0.264583px;stroke-linecap:butt;stroke-linejoin:miter;stroke-opacity:1;fill-opacity:1"
       d="m 120.10193,89.202381 -2.77385,1.776042 -0.13109,0.917649 -8.71767,1.638662 -7.3412,3.342868 -3.932787,6.226908 -6.22691,4.5227 -4.850435,4.12943 -1.769752,4.45715 0.983196,4.91598 6.489094,-0.45882 5.899177,2.49076 6.751287,4.6538 2.62185,2.88404 5.57145,9.37314 2.09748,-2.8185 1.50757,3.21178 3.80169,1.76975 1.37648,2.09748 8.71767,-7.66893 1.96639,-10.29078 1.17984,-0.58992 1.93594,-4.29891 0.9481,-5.33641 -2.94959,-5.17817 0.91765,-1.70421 8.97986,-0.72101 1.76975,2.49076 0.65547,3.27733 0.0655,3.21177 2.35967,3.47396 9.76642,5.24371 3.86724,-0.32773 2.62185,-2.35967 6.42355,-2.81849 1.70421,-4.91599 0.52437,-5.44035 1.17984,-1.17983 5.11262,1.50756 -0.72101,1.70421 0.78655,4.6538 -2.94958,6.03027 1.24538,5.96472 -3.01514,3.73615 0.9832,1.7042 7.86557,-5.17817 6.88237,-6.75128 2.75295,-5.04707 0.58992,-2.75295 -3.27732,-2.09748 -1.90085,-8.38995 -3.99833,-8.127749 h -1.76975 l -2.8185,-1.376476 -2.53071,-0.183208 1.66854,3.174862 -6.25702,-1.969804 -5.79354,-6.743679 -4.24087,-2.039326 -3.56882,0.625702 0.69522,5.469102 -2.6882,0.370787 -0.99649,-4.032306 -3.53958,-2.517722 -5.85864,2.645831 -2.55134,5.38616 -5.10267,0.377978 -7.84301,1.606397 -4.34672,-5.858629 z"
       id="path5506"
       sodipodi:nodetypes="cccccccccccccccccccccccccccccccccccccccccccccccccccccccccccccccccccccc" />
    <path
       style="fill:#000000;stroke:#000000;stroke-width:0.264583px;stroke-linecap:butt;stroke-linejoin:miter;stroke-opacity:1;fill-opacity:1"
       d="m 158.1635,141.97353 1.76975,2.62186 7.93107,-1.50757 11.14289,-4.85043 3.80169,-2.16303 8.38994,-7.53784 0.72106,-2.94959 1.44202,-3.53951 -0.32777,-4.5227 -2.75295,5.04707 -6.88237,6.75128 -7.86557,5.17817 z"
       id="path5536" />
    <path
       style="fill:#000000;stroke:#000000;stroke-width:0.264583px;stroke-linecap:butt;stroke-linejoin:miter;stroke-opacity:1;fill-opacity:1"
       d="m 112.67429,140.07269 -0.39328,2.16303 -2.62186,2.09748 h -3.14623 l 0.1311,-1.7042 -4.12943,-6.81683 -5.44035,-5.24371 -14.747944,-2.03194 1.376474,-6.81683 1.63866,-0.58992 6.489094,-0.45882 5.899179,2.49076 6.751287,4.6538 2.62185,2.88404 z"
       id="path5518" />
    <path
       style="fill:#ca955d;stroke:#000000;stroke-width:0.264583px;stroke-linecap:butt;stroke-linejoin:miter;stroke-opacity:1;fill-opacity:1"
       d="m 109.39697,114.64068 0.32773,-2.16303 2.03194,-2.29413 h 3.40841 l 1.44202,1.37648 0.19664,3.6706 -2.09749,1.7042 -2.49076,0.39328 -1.76975,-1.31093 -2.6874,1.31093 -4.19498,3.53951 -5.243709,4.71934 -5.440352,3.6706 -2.359671,0.91765 -0.655463,-0.26219 -0.262186,-1.11429 7.275653,-4.45715 5.440348,-4.91598 2.75295,-2.49077 z"
       id="path5508" />
    <path
       style="fill:#000000;stroke:#000000;stroke-width:0.264583px;stroke-linecap:butt;stroke-linejoin:miter;stroke-opacity:1;fill-opacity:1"
       d="m 153.9308,84.383183 -3.30729,-1.984375 -20.41071,0.377976 -6.14212,2.929316 -3.96875,3.496281 6.80358,1.889879 4.34672,5.858631 7.84301,-1.606399 5.10267,-0.377976 2.55134,-5.38616 5.85864,-2.645833 1.56215,1.34587 1.97743,1.171852 -0.75092,-1.908003 z"
       id="path5500"
       sodipodi:nodetypes="ccccccccccccccc" />
    <path
       style="fill:#ca955d;stroke:#000000;stroke-width:0.264583px;stroke-linecap:butt;stroke-linejoin:miter;stroke-opacity:1;fill-opacity:1"
       d="m 151.9066,83.125701 1.45997,-1.575843 2.08567,0.162219 2.01616,1.900282 1.66854,4.032303 0.69522,5.469102 -2.6882,0.370787 -0.99649,-4.032306 -0.75092,-1.908003 -1.46575,-3.161059 z"
       id="path5502" />
    <path
       style="fill:#000000;stroke:#000000;stroke-width:0.264583px;stroke-linecap:butt;stroke-linejoin:miter;stroke-opacity:1;fill-opacity:1"
       d="m 156.93539,82.89396 4.2177,-0.115872 c 0,0 3.93961,2.247895 4.0323,2.247895 0.0927,0 5.67767,4.40309 5.67767,4.40309 l 4.68118,4.866571 1.78441,0.301265 1.66854,3.17486 -6.25702,-1.969804 -5.79354,-6.743679 -4.24087,-2.039326 -3.56882,0.625702 -1.66854,-4.032303 z"
       id="path5504" />
    <path
       style="fill:#60341a;stroke:#000000;stroke-width:0.264583px;stroke-linecap:butt;stroke-linejoin:miter;stroke-opacity:1;fill-opacity:1"
       d="m 184.25097,107.16839 -0.8521,2.49076 0.91765,2.35967 3.34286,1.90085 h 1.8353 l 0.52438,1.17983 2.22857,0.78656 0.78652,1.63866 0.58992,-2.75295 -3.27732,-2.09748 -0.90818,-3.90962 -2.89347,-1.46519 z"
       id="path5530"
       sodipodi:nodetypes="ccccccccccccc" />
    <path
       style="fill:#ba0101;stroke:#000000;stroke-width:0.264583px;stroke-linecap:butt;stroke-linejoin:miter;stroke-opacity:1;fill-opacity:1"
       d="m 159.93325,144.59539 2.42522,3.93279 2.62185,-0.1311 2.03194,1.24538 5.83363,-1.31093 3.6706,-2.42521 6.75128,-6.68574 4.06388,-0.45882 3.40841,0.78656 h 2.42522 l -0.26218,-1.24539 0.58991,-1.76975 -2.22857,-2.55631 -0.0656,-5.44035 -8.38994,7.53784 -3.80169,2.16303 -11.14289,4.85043 z"
       id="path5532" />
    <path
       style="fill:#000000;stroke:#000000;stroke-width:0.264583px;stroke-linecap:butt;stroke-linejoin:miter;stroke-opacity:1;fill-opacity:1"
       d="m 167.01226,149.64246 1.37648,2.22858 0.58992,1.90085 5.96472,-0.8521 11.0118,-7.73448 5.57144,-0.32773 3.14623,1.7042 2.6874,4.06388 1.17984,-2.94959 -5.37481,-8.12775 h -2.42522 l -3.40841,-0.78656 -4.06388,0.45882 -6.75128,6.68574 -3.6706,2.42521 z"
       id="path5534" />
    <path
       style="fill:#ba0101;stroke:#000000;stroke-width:0.264583px;stroke-linecap:butt;stroke-linejoin:miter;stroke-opacity:1;fill-opacity:1"
       d="m 168.97866,153.77189 2.81849,8.91431 11.53617,-3.14623 3.99833,0.58992 6.16136,4.12942 1.11429,-6.16136 2.75295,-7.47229 -2.6874,-4.06388 -3.14623,-1.7042 -5.57144,0.32773 -11.0118,7.73448 z"
       id="path5538" />
    <path
       style="fill:#000000;stroke:#000000;stroke-width:0.264583px;stroke-linecap:butt;stroke-linejoin:miter;stroke-opacity:1;fill-opacity:1"
       d="m 171.79715,162.6862 0.52437,2.75295 -0.32773,1.11429 -3.6706,1.57311 0.19664,3.27732 -0.8521,1.70421 3.08068,0.91765 7.27565,-5.70254 3.08068,-0.13109 2.42522,1.8353 1.04874,3.60505 -3.86724,3.53951 -0.0655,2.22858 -2.68741,1.57311 1.37648,1.37647 -1.44202,6.42355 h 5.96472 l 3.6706,-5.89917 0.72101,-4.52271 2.42522,-4.5227 -0.65546,-2.49076 0.32773,-1.90085 1.50756,-0.0656 1.04875,1.37648 v -4.06388 l 0.8521,-0.58992 -0.26219,-1.8353 -6.16136,-4.12942 -3.99833,-0.58992 z"
       id="path5540" />
    <path
       style="fill:#ba0101;stroke:#000000;stroke-width:0.264583px;stroke-linecap:butt;stroke-linejoin:miter;stroke-opacity:1;fill-opacity:1"
       d="m 192.90314,170.74836 -0.13114,4.19502 -3.27732,6.03027 -1.96635,1.90085 0.72101,-4.52271 2.42522,-4.5227 -0.65546,-2.49076 0.32773,-1.90085 1.50756,-0.0656 z"
       id="path5542" />
    <path
       style="fill:#ba0101;stroke:#000000;stroke-width:0.264583px;stroke-linecap:butt;stroke-linejoin:miter;stroke-opacity:1;fill-opacity:1"
       d="m 167.66773,173.10808 -5.24371,-0.13109 -3.08069,5.5059 v 3.21177 l 0.52437,0.78656 -0.26218,1.04874 1.8353,1.11429 1.17983,0.32773 4.52271,2.49077 3.01513,0.98319 7.73452,0.32773 1.44202,-6.42355 -1.37648,-1.37647 2.68741,-1.57311 0.0655,-2.22858 3.86724,-3.53951 -1.04874,-3.60505 -2.42522,-1.8353 -3.08068,0.13109 -7.27565,5.70254 z"
       id="path5544" />
    <path
       style="fill:#000000;stroke:#000000;stroke-width:0.264583px;stroke-linecap:butt;stroke-linejoin:miter;stroke-opacity:1;fill-opacity:1"
       d="m 101.79358,166.61903 1.47046,2.55232 4.72753,-0.64888 0.37079,0.74157 4.44944,0.55618 2.6882,5.74719 -2.96629,5.5618 -1.57585,0.83427 h -0.92696 l -1.39045,-1.39045 -1.66854,0.46349 -0.46348,1.76123 2.87359,3.89326 -7.23034,4.35674 -0.92696,1.29775 -5.283709,2.50281 -1.205058,-1.76123 -3.985953,0.55618 -1.668539,1.20505 -5.005621,-3.98595 0.1513,-5.95592 4.784889,1.57311 2.884043,0.0656 5.899179,-6.16137 1.179835,-9.76641 2.490764,-2.16304 z"
       id="path5552" />
    <path
       style="fill:#ba0101;stroke:#000000;stroke-width:0.264583px;stroke-linecap:butt;stroke-linejoin:miter;stroke-opacity:1;fill-opacity:1"
       d="m 115.5,175.56741 -0.0927,5.83989 -1.48314,2.7809 -2.31742,1.01966 0.18539,4.82023 -5.83988,4.35674 -0.92697,-0.0927 -0.92697,1.76124 -5.469098,0.46348 -0.741571,-0.55618 -1.575845,0.83427 -3.429776,-0.37078 -0.278087,-0.55618 h -1.761236 l -1.761236,-1.01967 1.668539,-1.20505 3.985953,-0.55618 1.205058,1.76123 5.283709,-2.50281 0.92696,-1.29775 7.23034,-4.35674 -2.87359,-3.89326 0.46348,-1.76123 1.66854,-0.46349 1.39045,1.39045 h 0.92696 l 1.57585,-0.83427 z"
       id="path5554" />
    <path
       style="fill:#ba0101;stroke:#000000;stroke-width:0.264583px;stroke-linecap:butt;stroke-linejoin:miter;stroke-opacity:1;fill-opacity:1"
       d="m 104.00562,201.98595 3.61517,0.27809 8.0646,-1.11236 -1.76123,3.52248 -4.35674,0.27809 -1.01967,7.50842 -2.03932,7.13764 -1.85394,0.27809 -1.39045,-0.74157 1.48315,-3.15169 -0.37079,-1.20505 1.94663,-3.05899 z"
       id="path5556" />
    <path
       style="fill:#000000;stroke:#000000;stroke-width:0.264583px;stroke-linecap:butt;stroke-linejoin:miter;stroke-opacity:1;fill-opacity:1"
       d="m 113.92416,204.67416 -1.57585,3.15168 0.27809,12.88483 -3.80056,8.62079 -3.89326,0.64887 h -4.44944 l -3.42977,-1.39045 0.463484,-3.05898 0.926965,-3.42978 4.820221,-2.96629 1.39045,0.74157 1.85394,-0.27809 2.03932,-7.13764 1.01967,-7.50842 z"
       id="path5558" />
    <path
       style="fill:#ba0101;stroke:#000000;stroke-width:0.264583px;stroke-linecap:butt;stroke-linejoin:miter;stroke-opacity:1;fill-opacity:1"
       d="m 143.49438,198.18539 3.33708,0.92697 6.02528,-0.0927 2.5955,-1.39045 -0.83426,3.52247 -1.11236,0.46349 -2.03933,6.76685 2.96629,2.96629 2.7809,3.24438 -0.37079,1.11236 -1.48314,0.1854 -5.65449,-5.37641 -0.1854,-8.34269 -3.33708,-1.39045 -1.48314,0.18539 -1.29776,-1.20506 z"
       id="path5560" />
    <path
       style="fill:#000000;stroke:#000000;stroke-width:0.264583px;stroke-linecap:butt;stroke-linejoin:miter;stroke-opacity:1;fill-opacity:1"
       d="m 144.69944,200.96629 1.94662,5.74719 -0.37078,2.03933 0.74157,2.22471 -2.03932,3.52248 -0.27809,4.17135 14.36797,5.56179 6.21068,-1.48314 -0.92697,-3.33708 -2.31741,-3.24438 -1.48315,-0.1854 -3.33708,-1.39045 -0.37079,1.11236 -1.48314,0.1854 -5.65449,-5.37641 -0.1854,-8.34269 -3.33708,-1.39045 z"
       id="path5562" />
    <path
       style="fill:#000000;stroke:#000000;stroke-width:0.264583px;stroke-linecap:butt;stroke-linejoin:miter;stroke-opacity:1;fill-opacity:1"
       d="m 154.61798,201.15168 -2.71138,7.64747 -0.44031,-0.41713 2.03933,-6.76685 z"
       id="path5564" />
    <path
       style="fill:#000000;stroke:#000000;stroke-width:0.264583px;stroke-linecap:butt;stroke-linejoin:miter;stroke-opacity:1;fill-opacity:1"
       d="m 142.28932,184.97612 5.46911,-6.7205 5.83988,-1.20506 -2.22472,4.40309 0.78793,1.48315 -0.50984,2.45646 4.72753,7.18398 -0.92697,5.05197 -2.5955,1.39045 -6.02528,0.0927 -3.33708,-0.92697 -1.3441,-0.18539 -0.83427,-3.29073 2.36376,-5.97894 z"
       id="path5566" />
    <path
       style="fill:#ba0101;stroke:#000000;stroke-width:0.264583px;stroke-linecap:butt;stroke-linejoin:miter;stroke-opacity:1;fill-opacity:1"
       d="m 140.34269,181.91713 0.97332,2.59551 0.97331,0.46348 5.46911,-6.7205 5.83988,-1.20506 0.13905,-1.90028 -1.15871,-2.45646 -4.91292,0.64887 -3.19804,1.80759 -2.17837,2.6882 z"
       id="path5568" />
    <path
       style="fill:#000000;stroke:#000000;stroke-width:0.264583px;stroke-linecap:butt;stroke-linejoin:miter;stroke-opacity:1;fill-opacity:1"
       d="m 137.97893,178.8118 1.39045,1.48314 0.97331,1.62219 1.94663,-4.07865 2.17837,-2.6882 3.19804,-1.80759 4.91292,-0.64887 -0.97331,-1.85394 -0.23175,-1.2514 -4.91292,0.55618 -3.89326,1.71489 -1.94662,2.45646 -1.4368,2.96629 z"
       id="path5570" />
    <path
       style="fill:#ba0101;stroke:#000000;stroke-width:0.264583px;stroke-linecap:butt;stroke-linejoin:miter;stroke-opacity:1;fill-opacity:1"
       d="m 151.37359,169.58848 -0.37078,-1.90028 -1.48315,-2.13202 -5.97893,1.1587 -1.94663,0.78793 -2.54916,2.5955 -2.27106,4.68118 -1.06602,1.01967 2.27107,3.01264 1.20506,-1.5295 1.4368,-2.96629 1.94662,-2.45646 3.89326,-1.71489 z"
       id="path5572" />
    <path
       style="fill:#000000;stroke:#000000;stroke-width:0.264583px;stroke-linecap:butt;stroke-linejoin:miter;stroke-opacity:1;fill-opacity:1"
       d="m 121.80337,180.0632 1.4368,-2.7809 -1.76124,-3.70786 -3.61517,-1.99298 -3.29073,-0.88062 -4.07865,-0.0463 -0.50983,2.41011 5.23736,1.57585 1.80758,0.32444 3.42978,1.90028 z"
       id="path5578" />
    <path
       style="fill:#5c0100;stroke:#000000;stroke-width:0.264583px;stroke-linecap:butt;stroke-linejoin:miter;stroke-opacity:1;fill-opacity:1"
       d="m 121.45751,144.3332 -0.0713,6.9477 0.60253,0.37078 -0.0927,1.3441 -0.74158,0.83428 0.32444,0.32443 0.92697,-0.69522 0.0927,-2.41012 -0.46348,-0.50983 0.18539,-6.99859 z"
       id="path5582" />
    <path
       style="fill:#5c0100;stroke:#000000;stroke-width:0.264583px;stroke-linecap:butt;stroke-linejoin:miter;stroke-opacity:1;fill-opacity:1"
       d="m 122.08146,90.101123 -3.61517,3.012641 -0.37079,3.754212 -1.76123,1.251405 0.46348,2.085669 2.96629,2.73456 2.03933,0.46348 -2.6882,-0.37079 -3.70787,-3.337076 -2.64185,-1.112359 -1.3441,-4.44944 -3.29073,0.648878 -6.02528,4.449437 -1.3441,5.09831 -2.827252,5.93259 v 2.5955 l 3.012642,4.54214 -6.952248,-3.19803 -1.205058,-1.06602 -0.648875,-3.56881 -0.509831,-0.50984 -3.661519,2.7809 0.602528,8.99158 -3.230197,0.29971 -0.983194,-4.91598 1.76975,-4.45715 11.077344,-8.65213 3.93279,-6.226908 7.3412,-3.34287 8.71767,-1.63866 0.13109,-0.917649 2.77385,-1.776042 2.30397,0.620651 z"
       id="path5586" />
    <path
       style="fill:none;stroke:#000000;stroke-width:0.264583px;stroke-linecap:butt;stroke-linejoin:miter;stroke-opacity:1"
       d="m 114.77177,137.25419 3.09199,-4.79071 1.11236,-4.91292 -3.52247,-1.48315 -2.08567,-3.75421 -2.41012,-1.20505"
       id="path5588" />
    <path
       style="fill:none;stroke:#000000;stroke-width:0.264583px;stroke-linecap:butt;stroke-linejoin:miter;stroke-opacity:1"
       d="m 113.36798,122.3132 8.80618,-4.0323"
       id="path5590" />
    <path
       style="fill:none;stroke:#000000;stroke-width:0.264583px;stroke-linecap:butt;stroke-linejoin:miter;stroke-opacity:1"
       d="m 119.5323,119.76404 2.03933,1.90028"
       id="path5592" />
    <path
       style="fill:none;stroke:#000000;stroke-width:0.264583px;stroke-linecap:butt;stroke-linejoin:miter;stroke-opacity:1"
       d="m 118.97612,127.55056 4.07866,1.85393 6.25702,-2.36376 2.82977,-0.66724"
       id="path5594" />
    <path
       style="fill:none;stroke:#000000;stroke-width:0.264583px;stroke-linecap:butt;stroke-linejoin:miter;stroke-opacity:1"
       d="m 118.55899,129.96067 5.93258,10.75281"
       id="path5596" />
    <path
       style="fill:#5c0100;stroke:#000000;stroke-width:0.264583px;stroke-linecap:butt;stroke-linejoin:miter;stroke-opacity:1;fill-opacity:1"
       d="m 116.8441,134.7809 2.36376,4.77387 4.26405,2.73455 -1.25143,1.25141 -0.76297,0.79247 -1.37648,-2.09748 -3.80169,-1.76975 -1.50757,-3.21178 1.84059,-2.75138 z"
       id="path5598" />
    <path
       style="fill:#000000;fill-opacity:1;stroke:#000000;stroke-width:0.264583px;stroke-linecap:butt;stroke-linejoin:miter;stroke-opacity:1"
       d="m 152.30056,96.914326 0.97331,-1.622192 3.87005,-1.807583 8.644,0.04635 2.08567,2.17837 2.91995,2.595507 0.97331,3.337072 -0.0927,2.41011 -5.05197,3.66152 -1.4368,0.74157 -7.60112,-3.84687 -3.89326,-4.44947 z"
       id="path5600"
       sodipodi:nodetypes="ccccccccccccc" />
    <path
       style="fill:#ba0101;stroke:#000000;stroke-width:0.264583px;stroke-linecap:butt;stroke-linejoin:miter;stroke-opacity:1;fill-opacity:1"
       d="m 152.30056,96.914326 -0.88062,1.946627 1.5295,5.191007 3.89326,3.70787 6.6278,2.91994 2.68821,-0.0463 3.56882,-2.41012 0.74157,-1.90028 -1.06601,0.92697 -0.78792,-0.23174 -0.23175,-0.74158 -1.76124,1.4368 -1.4368,0.74157 -7.60112,-3.84691 -3.89326,-4.44943 z"
       id="path5602" />
    <path
       style="fill:#f8f8f8;stroke:#000000;stroke-width:0.264583px;stroke-linecap:butt;stroke-linejoin:miter;stroke-opacity:1;fill-opacity:1"
       d="m 157.58426,104.60818 -0.0463,1.25137 1.57584,1.99298 1.06601,-0.13905 0.97332,-1.01966 z"
       id="path5604" />
    <path
       style="fill:#f8f8f8;stroke:#000000;stroke-width:0.264583px;stroke-linecap:butt;stroke-linejoin:miter;stroke-opacity:1;fill-opacity:1"
       d="m 170.74719,104.74719 -0.27809,1.57588 -1.06601,0.92697 -0.78792,-0.23174 -0.23175,-0.74158 z"
       id="path5606" />
    <path
       style="fill:#060000;stroke:#000000;stroke-width:0.264583px;stroke-linecap:butt;stroke-linejoin:miter;stroke-opacity:1;fill-opacity:1"
       d="m 151.41994,98.860953 -3.70786,3.893257 1.1587,4.07865 0.0463,6.25703 1.06601,1.85393 2.59551,1.85393 2.03933,1.39045 1.01966,2.17837 5.09831,2.31742 6.95225,-2.27107 0.88062,-1.2514 v -3.56883 l -0.46348,-0.41713 0.23174,-1.4368 0.88062,-1.11236 0.50983,-4.40305 -3.56882,2.41012 -2.68821,0.0463 -6.6278,-2.91994 -3.89326,-3.70787 z"
       id="path5608" />
    <path
       style="fill:#ba0101;stroke:#000000;stroke-width:0.264583px;stroke-linecap:butt;stroke-linejoin:miter;stroke-opacity:1;fill-opacity:1"
       d="m 152.25421,106.60112 4.125,3.29073 -0.32444,2.54916 -1.43679,1.11236 -2.31742,-4.0323 z"
       id="path5610" />
    <path
       style="fill:#f8f8f8;stroke:#000000;stroke-width:0.264583px;stroke-linecap:butt;stroke-linejoin:miter;stroke-opacity:1;fill-opacity:1"
       d="m 154.57163,115.08286 0.46348,1.5295 1.80759,1.71489 1.90028,1.01966 2.13202,0.13904 4.0323,-0.78792 2.7809,-1.39045 0.88057,-1.71489 -0.46348,-0.41713 0.23174,-1.4368 -1.43675,0.32444 -0.27809,0.92697 0.0464,0.78792 -1.4368,0.23174 -0.88062,1.66854 -0.69522,0.18539 -1.11236,-0.97331 -1.29776,0.18539 -0.55617,0.74157 -1.71489,0.1854 -0.37079,-1.62219 -1.85393,-1.01967 -0.55618,0.0464 -0.55618,-0.27809 0.27809,-0.46348 -0.27809,-1.11236 -1.01966,0.92697 z"
       id="path5612" />
    <path
       style="fill:#f8f8f8;stroke:#000000;stroke-width:0.264583px;stroke-linecap:butt;stroke-linejoin:miter;stroke-opacity:1;fill-opacity:1"
       d="m 156.61095,110.86517 1.48315,-0.27809 5.88623,2.13202 0.92697,0.13904 2.82725,-2.03932 1.2514,-0.0464 -0.13904,0.50983 -0.83427,0.41714 -0.27809,0.78792 -1.25141,0.50983 -0.92696,1.20506 -2.13202,0.41713 -0.92697,-1.01966 -2.73455,-0.0927 -0.27809,0.97332 -0.78792,-0.27809 -1.01967,-0.97332 -0.23174,-1.80758 z"
       id="path5614" />
    <path
       style="fill:none;stroke:#000000;stroke-width:0.264583px;stroke-linecap:butt;stroke-linejoin:miter;stroke-opacity:1"
       d="m 150.30758,104.51545 -0.55618,5.14466 2.68821,3.10534 1.3441,4.31039 -0.55618,-4.44944 -2.73455,-3.47612 0.27809,-4.54214 z"
       id="path5616" />
    <path
       style="fill:#242326;stroke:#000000;stroke-width:0.264583px;stroke-linecap:butt;stroke-linejoin:miter;stroke-opacity:1;fill-opacity:1"
       d="m 126.4382,140.94522 1.06601,1.06601 27.39186,-4.95927 4.82022,-7.18398 -0.0463,-1.80759 0.0927,-1.57584 1.06601,2.50281 -5.70084,8.52809 5.09831,2.41011 -2.06262,2.04797 0.76487,-1.53814 -4.35674,-2.17837 -27.66995,4.49579 z"
       id="path5620" />
    <path
       style="fill:#242326;stroke:#000000;stroke-width:0.264583px;stroke-linecap:butt;stroke-linejoin:miter;stroke-opacity:1;fill-opacity:1"
       d="m 125.78932,145.25562 5.60815,3.01264 5.4691,-2.7809 11.86517,0.0927 0.83427,0.41713 -1.48315,1.01966 -5.42275,-0.64887 -0.37079,1.39045 -3.15168,2.27106 -1.06601,4.07866 0.13904,1.2514 -0.69522,-2.08568 0.92697,-3.66151 2.78089,-2.08568 0.23174,-0.88062 -4.44943,-0.32443 -5.70085,2.7809 -3.84691,-1.48315 -0.18539,2.27107 -0.78792,0.60253 -1.71489,4.95926 1.3441,1.66854 -3.84691,3.56883 -3.80056,6.11797 -2.17837,-0.41713 h -1.15871 l 8.71349,-10.38202 1.80758,-6.76686 -0.78792,-3.61517 0.0927,-0.55618 z"
       id="path5622" />
    <path
       style="fill:#242326;stroke:#000000;stroke-width:0.264583px;stroke-linecap:butt;stroke-linejoin:miter;stroke-opacity:1;fill-opacity:1"
       d="m 133.57584,157.25983 5.74719,-0.13905 0.1854,0.64888 -5.5618,0.27809 -0.60253,-0.23174 z"
       id="path5624" />
    <path
       style="fill:#242326;stroke:#000000;stroke-width:0.264583px;stroke-linecap:butt;stroke-linejoin:miter;stroke-opacity:1;fill-opacity:1"
       d="m 125.65028,160.82865 3.29073,5.88623 0.55618,-0.41713 -2.31742,-5.33005 -0.60253,-0.83428 z"
       id="path5626" />
    <path
       style="fill:#242326;stroke:#000000;stroke-width:0.264583px;stroke-linecap:butt;stroke-linejoin:miter;stroke-opacity:1;fill-opacity:1"
       d="m 141.26966,158.0014 -1.11236,3.24438 1.4368,6.25703 1.01966,-0.55618 -1.48314,-6.25702 z"
       id="path5628" />
    <path
       style="fill:#242326;stroke:#000000;stroke-width:0.264583px;stroke-linecap:butt;stroke-linejoin:miter;stroke-opacity:1;fill-opacity:1"
       d="m 130.98033,170.42275 4.82023,-1.11236 3.19803,-6.11798 0.37079,0.41714 -3.01264,6.44241 -3.33708,1.01967 z"
       id="path5630" />
    <path
       style="fill:#5c0100;stroke:#000000;stroke-width:0.264583px;stroke-linecap:butt;stroke-linejoin:miter;stroke-opacity:1;fill-opacity:1"
       d="m 170.74841,174.02573 1.20384,1.21724 -1.66854,0.88062 -0.37079,1.80759 -0.64888,-0.13905 -0.0927,5.97893 0.32444,3.61517 -1.29776,-1.2514 -0.13904,-8.71348 -1.06601,-1.15871 -1.85394,1.3441 -1.06601,6.21067 -0.0463,1.5295 -0.60252,-1.15871 1.11235,-6.67416 -0.83426,-1.20505 -2.54916,4.125 -0.32444,3.33707 -0.23174,0.37079 -0.99139,-0.61189 0.26218,-1.04874 -0.52437,-0.78656 v -3.21177 l 3.08069,-5.5059 5.24371,0.13109 z"
       id="path5632" />
    <path
       style="fill:none;stroke:#000000;stroke-width:0.264583px;stroke-linecap:butt;stroke-linejoin:miter;stroke-opacity:1"
       d="m 169.91292,177.93118 2.64185,2.17837 5.6545,-1.80758"
       id="path5634" />
    <path
       style="fill:#242326;stroke:#000000;stroke-width:0.264583px;stroke-linecap:butt;stroke-linejoin:miter;stroke-opacity:1;fill-opacity:1"
       d="m 99.370786,175.56741 2.734554,4.54214 -0.27809,2.27107 -9.779498,6.48876 -2.039326,-0.0927 2.549157,-1.06601 7.091294,-6.30337 -0.787924,-4.95927 -0.417134,-1.06601 0.185393,-0.97331 z"
       id="path5636" />
    <path
       style="fill:#242326;stroke:#000000;stroke-width:0.264583px;stroke-linecap:butt;stroke-linejoin:miter;stroke-opacity:1;fill-opacity:1"
       d="m 98.073031,186.8764 1.066012,1.99298 2.456457,1.20506 -0.60252,0.41713 -2.549161,-1.29775 -0.741572,-2.17837 z"
       id="path5638" />
    <path
       style="fill:#242326;stroke:#000000;stroke-width:0.264583px;stroke-linecap:butt;stroke-linejoin:miter;stroke-opacity:1;fill-opacity:1"
       d="m 92.696629,189.70365 2.039324,2.45646 v 0.92697 l -0.926965,-0.55618 -1.668539,-2.64186 z"
       id="path5640" />
    <path
       style="fill:#242326;stroke:#000000;stroke-width:0.264583px;stroke-linecap:butt;stroke-linejoin:miter;stroke-opacity:1;fill-opacity:1"
       d="m 87.412922,190.30618 2.41011,2.17837 0.926968,1.15871 -1.622192,-0.74158 -2.317417,-2.22472 z"
       id="path5642" />
    <path
       style="fill:#5c0100;stroke:#000000;stroke-width:0.264583px;stroke-linecap:butt;stroke-linejoin:miter;stroke-opacity:1;fill-opacity:1"
       d="m 81.341292,140.38904 -6.257022,14.13624 0.0927,4.86657 5.005618,6.39607 -2.641179,1.74872 -6.68573,-7.07902 1.114285,-10.94625 3.801695,-7.60338 -0.327737,-1.37648 z"
       id="path5644" />
    <path
       style="fill:none;stroke:#000000;stroke-width:0.264583px;stroke-linecap:butt;stroke-linejoin:miter;stroke-opacity:1"
       d="m 147.71208,102.75421 -3.47613,-1.85393 -0.23174,-0.88062 -3.93961,0.13905 2.73456,1.43679 1.48314,2.45646 -0.18539,1.94663 -1.80759,0.74158 1.71489,0.50983 -0.85084,1.29486 1.76975,2.49076 0.65547,3.27733 0.18686,1.65053 1.48315,-0.32444 4.26404,4.35674 -0.32444,2.9663 1.29775,0.32444 0.60253,-1.85394 2.54911,-1.06601 -1.01966,-2.17837 -4.63484,-3.24438 -1.06601,-1.85393 -0.0463,-6.25703 z"
       id="path5646" />
    <path
       style="fill:#5c0100;stroke:#000000;stroke-width:0.264583px;stroke-linecap:butt;stroke-linejoin:miter;stroke-opacity:1;fill-opacity:1"
       d="m 178.99715,97.771769 3.93965,3.499301 -0.50984,4.54213 -1.2514,-0.55618 0.0927,-3.56882 -2.68821,-2.363763 z"
       id="path5648" />
    <path
       style="fill:none;stroke:#000000;stroke-width:0.264583px;stroke-linecap:butt;stroke-linejoin:miter;stroke-opacity:1"
       d="m 176.77247,124.63062 4.72753,-0.32444 2.31741,-3.10534 -0.27809,-2.13202 v 0"
       id="path5650" />
    <path
       style="fill:none;stroke:#000000;stroke-width:0.264583px;stroke-linecap:butt;stroke-linejoin:miter;stroke-opacity:1"
       d="m 183.81741,121.20084 3.01264,-0.32444"
       id="path5652" />
    <path
       style="fill:#ca955d;stroke:#000000;stroke-width:0.264583px;stroke-linecap:butt;stroke-linejoin:miter;stroke-opacity:1;fill-opacity:1"
       d="m 188.03511,108.02054 -1.49001,-0.72106 -1.15184,0.97018 -0.0463,2.36377 1.48314,1.90028 1.90028,0.46348 0.76435,0.92248 0.52438,1.17983 2.22857,0.78656 0.78652,1.63866 0.58992,-2.75295 -3.27732,-2.09748 -0.90823,-3.90962 z"
       id="path5656"
       sodipodi:nodetypes="cccccccccccccc" />
    <path
       style="fill:#614238;stroke:#000000;stroke-width:0.264583px;stroke-linecap:butt;stroke-linejoin:miter;stroke-opacity:1;fill-opacity:1"
       d="m 187.33989,109.01123 v 1.29776 l 0.69522,0.74157 1.25141,-0.18539 0.15205,-2.1005 -1.5425,-0.44866 z"
       id="path5654"
       sodipodi:nodetypes="ccccccc" />
    <path
       style="fill:#242326;stroke:#000000;stroke-width:0.264583px;stroke-linecap:butt;stroke-linejoin:miter;stroke-opacity:1;fill-opacity:1"
       d="m 104.48099,127.81551 -3.93279,6.09582 -3.47396,-3.34287 4.5227,-4.98153 z"
       id="path5658"
       sodipodi:nodetypes="ccccc" />
    <path
       style="fill:#242326;stroke:#000000;stroke-width:0.264583px;stroke-linecap:butt;stroke-linejoin:miter;stroke-opacity:1;fill-opacity:1"
       d="m 95.014043,136.47261 -2.155195,5.70084 1.069158,0.32446 0.506685,0.41712 2.433285,-4.75071 z"
       id="path5660" />
    <path
       style="fill:none;stroke:#000000;stroke-width:0.264583px;stroke-linecap:butt;stroke-linejoin:miter;stroke-opacity:1"
       d="m 92.233146,159.48455 1.089183,7.60112 3.030898,-0.92551 -2.660111,-7.06957 z"
       id="path5662" />
    <path
       style="fill:none;stroke:#000000;stroke-width:0.264583px;stroke-linecap:butt;stroke-linejoin:miter;stroke-opacity:1"
       d="m 126.43903,109.39697 1.9664,2.16303 4.91598,0.78655"
       id="path5664" />
    <path
       style="fill:none;stroke:#000000;stroke-width:0.264583px;stroke-linecap:butt;stroke-linejoin:miter;stroke-opacity:1"
       d="m 131.22392,108.34822 2.68741,-1.11429 0.39327,-2.75294 -2.81849,-3.27733 -3.99833,-0.19663"
       id="path5666" />
    <path
       style="fill:none;stroke:#000000;stroke-width:0.264583px;stroke-linecap:butt;stroke-linejoin:miter;stroke-opacity:1"
       d="m 127.29114,99.630549 5.44035,0.327734 3.27732,3.801697 3.08068,0.26218 0.9832,2.6874"
       id="path5668" />
    <path
       style="fill:none;stroke:#000000;stroke-width:0.264583px;stroke-linecap:butt;stroke-linejoin:miter;stroke-opacity:1"
       d="m 150.8223,93.272548 -2.16303,1.507567 2.16303,1.11429 0.59764,2.966548"
       id="path5670" />
    <path
       style="fill:#242326;stroke:#000000;stroke-width:0.264583px;stroke-linecap:butt;stroke-linejoin:miter;stroke-opacity:1;fill-opacity:1"
       d="m 156.06601,94.517928 2.68741,5.047076 2.55631,0.983196 0.65546,0.78656 5.76808,0.32773 3.27733,-1.769755 0.19663,0.327735 -3.01513,2.16303 -6.94792,0.13109 -1.24538,0.91765 -0.45883,1.96639 -1.95571,-0.79045 c 0,0 1.49689,-0.19274 1.30025,-0.58602 -0.19664,-0.39328 -0.26219,-3.08068 -0.26219,-3.08068 l -3.27732,-4.588251 -0.26218,-1.704207 0.98319,-0.393277 z"
       id="path5672" />
    <path
       style="fill:#242326;stroke:#000000;stroke-width:0.264583px;stroke-linecap:butt;stroke-linejoin:miter;stroke-opacity:1;fill-opacity:1"
       d="m 178.41734,134.04242 0.58987,4.19497 2.68745,-1.44202 0.32773,-5.83363 z"
       id="path5674" />
    <path
       style="fill:#242326;stroke:#000000;stroke-width:0.264583px;stroke-linecap:butt;stroke-linejoin:miter;stroke-opacity:1;fill-opacity:1"
       d="m 184.64425,160.06434 0.19664,2.16303 -3.86724,2.8185 1.96639,1.04874 -1.8353,2.09749 2.42522,1.8353 2.03194,-3.80169 -1.8353,-1.31093 3.14623,-3.14623 0.45882,-1.63866 z"
       id="path5676" />
    <path
       style="fill:#242326;stroke:#000000;stroke-width:0.264583px;stroke-linecap:butt;stroke-linejoin:miter;stroke-opacity:1;fill-opacity:1"
       d="m 178.2207,162.62065 -0.26219,1.90085 -2.35967,2.03194 -1.17983,-0.65546 0.52437,1.04874 0.0656,2.55631 0.72101,-0.26219 0.19664,-1.90085 2.75295,-2.22857 2.29412,-0.0656 -2.35967,-0.91765 z"
       id="path5678" />
    <path
       style="fill:#60341a;stroke:#000000;stroke-width:0.264583px;stroke-linecap:butt;stroke-linejoin:miter;stroke-opacity:1;fill-opacity:1"
       d="m 112.60874,111.88773 1.24538,0.0656 0.65547,1.50756 -0.58992,1.37648 -1.57312,0.0655 -1.04874,-1.31092 0.19664,-1.24539 z"
       id="path5510" />
    <path
       style="fill:#60341a;fill-opacity:1;stroke:#000000;stroke-width:0.264583px;stroke-linecap:butt;stroke-linejoin:miter;stroke-opacity:1"
       d="m 84.292688,129.97854 0.852101,-1.31093 1.900849,-0.72101 0.589917,1.63866 1.966394,-0.78656 v 0 l 2.215402,0.913 -3.329692,1.97105 0.131093,0.65546 -1.63866,0.13109 -0.655465,0.78656 z"
       id="path5514"
       sodipodi:nodetypes="cccccccccccc" />
    <path
       style="fill:#ca955d;stroke:#000000;stroke-width:0.264583px;stroke-linecap:butt;stroke-linejoin:miter;stroke-opacity:1;fill-opacity:1"
       d="m 86.127986,111.75664 -4.129421,3.80169 3.146226,13.10928 1.900847,-0.72101 -1.704208,-6.81683 -0.983194,-4.91598 z"
       id="path5512" />
    <path
       style="fill:#242326;stroke:#000000;stroke-width:0.264583px;stroke-linecap:butt;stroke-linejoin:miter;stroke-opacity:1;fill-opacity:1"
       d="m 141.84244,173.10808 1.11429,3.34287 1.51096,-1.30067 v 0 l -0.59331,-3.68086 -1.30697,0.39013 z"
       id="path5680" />
    <path
       style="fill:#ca955d;fill-opacity:1;stroke:#000000;stroke-width:0.264583px;stroke-linecap:butt;stroke-linejoin:miter;stroke-opacity:1"
       d="m 164.78369,128.53652 1.7042,-1.63866 2.09749,-0.58992 h 1.70421 l 1.50756,2.03194 -0.13109,4.45716 1.15522,1.12642 1.72878,-1.12642 5e-5,0 0.98315,1.70416 -1.9663,2.6219 -1.83531,0.13109 -1.04874,-1.37647 0.58992,-0.78656 -1.16293,-1.10981 -1.54108,1.01966 -2.80407,-0.16222 -1.30934,-1.27457 z"
       id="path5550"
       sodipodi:nodetypes="ccccccccccccccccccc" />
    <path
       style="fill:#60341a;stroke:#000000;stroke-width:0.264583px;stroke-linecap:butt;stroke-linejoin:miter;stroke-opacity:1;fill-opacity:1"
       d="m 167.41679,129.68125 -0.9289,1.14939 0.13109,1.57312 1.04875,0.98319 1.76975,-0.19664 0.9832,-1.11429 0.39657,-1.57311 -0.65876,-1.17984 -1.70421,-0.52437 z"
       id="path5548"
       sodipodi:nodetypes="cccccccccc" />
    <path
       style="fill:#60341a;stroke:#000000;stroke-width:0.264583px;stroke-linecap:butt;stroke-linejoin:miter;stroke-opacity:1;fill-opacity:1"
       d="m 89.077577,177.79465 1.8353,0.0656 0.983195,1.04874 -0.52437,2.13026 -0.917649,0.72101 -2.261352,-0.42605 -0.622691,-2.3269 z"
       id="path5686" />
  </g>
</svg>
