<?xml version="1.0" encoding="UTF-8" standalone="no"?>
<svg
   xmlns:dc="http://purl.org/dc/elements/1.1/"
   xmlns:cc="http://creativecommons.org/ns#"
   xmlns:rdf="http://www.w3.org/1999/02/22-rdf-syntax-ns#"
   xmlns:svg="http://www.w3.org/2000/svg"
   xmlns="http://www.w3.org/2000/svg"
   xmlns:sodipodi="http://sodipodi.sourceforge.net/DTD/sodipodi-0.dtd"
   xmlns:inkscape="http://www.inkscape.org/namespaces/inkscape"
   width="210mm"
   height="297mm"
   viewBox="0 0 210 297"
   version="1.1"
   id="svg8"
   inkscape:export-filename="C:\Users\abhis\batman1992_1.png"
   inkscape:export-xdpi="180.11682"
   inkscape:export-ydpi="180.11682"
   sodipodi:docname="batman1992_2.svg"
   inkscape:version="1.0.2-2 (e86c870879, 2021-01-15)">
  <defs
     id="defs2" />
  <sodipodi:namedview
     id="base"
     pagecolor="#ffffff"
     bordercolor="#666666"
     borderopacity="1.0"
     inkscape:pageopacity="0.0"
     inkscape:pageshadow="2"
     inkscape:zoom="0.98994949"
     inkscape:cx="320.41311"
     inkscape:cy="576.96804"
     inkscape:document-units="mm"
     inkscape:current-layer="layer1"
     inkscape:document-rotation="0"
     showgrid="false"
     inkscape:window-width="1431"
     inkscape:window-height="935"
     inkscape:window-x="160"
     inkscape:window-y="48"
     inkscape:window-maximized="0" />
  <metadata
     id="metadata5">
    <rdf:RDF>
      <cc:Work
         rdf:about="">
        <dc:format>image/svg+xml</dc:format>
        <dc:type
           rdf:resource="http://purl.org/dc/dcmitype/StillImage" />
        <dc:title></dc:title>
      </cc:Work>
    </rdf:RDF>
  </metadata>
  <g
     inkscape:label="Layer 1"
     inkscape:groupmode="layer"
     id="layer1">
    <rect
       style="fill:#670404;fill-opacity:1;stroke-width:0.4856"
       id="rect859"
       width="185.30951"
       height="150.96503"
       x="1.5118967"
       y="78.844505"
       inkscape:export-xdpi="180.11682"
       inkscape:export-ydpi="180.11682" />
    <path
       style="fill:#070707;stroke:#000000;stroke-width:0.264583px;stroke-linecap:butt;stroke-linejoin:miter;stroke-opacity:1;fill-opacity:1"
       d="m 78.997023,180.86161 6.047618,-17.00893 5.480656,-3.2128 10.583333,-19.27679 -0.75595,-0.75595 0.75595,-3.40178 1.5119,-0.18899 -3.023805,-4.72471 -9.260417,12.66221 2.267858,0.56696 v 3.40179 l -2.645834,2.45684 -2.834822,-3.59077 0.566965,-5.29167 -0.56061,-1.04462 v -1.80407 l 0.868627,0.93544 0.46772,-0.80181 -0.868625,-1.26953 0.200451,-2.00452 0.935445,1.5368 0.534538,-0.66817 -0.801809,-1.80407 0.06682,-1.60362 1.202714,1.46998 1.737251,-5.67948 3.407685,-8.88671 1.670436,-1.5368 2.739512,-0.93544 4.54358,2.07134 1.9377,-0.13364 2.00452,-5.54584 -0.0668,-4.47676 2.00452,2.00452 2.00452,0.53454 1.06908,-1.00226 0.86863,1.73725 1.46998,1.40316 0.4009,6.28084 -1.9377,0.86862 0.13363,2.40543 1.40317,2.00452 5.14494,3.94223 1.26953,5.07812 -0.60136,1.00226 9.95579,2.87314 9.88897,0.735 10.82442,0.60135 6.68174,1.5368 10.62396,5.54585 2.07134,1.53679 -3.27405,-0.86862 -1.33635,-0.13364 4.74403,3.40769 1.73726,3.00678 -6.54811,-4.81085 -2.67269,-1.46998 -2.73952,0.26727 -0.86862,2.20497 3.40768,6.54811 -3.07359,-2.07135 -2.07134,-1.33634 -2.60588,-0.13364 -0.86863,2.07134 2.87315,4.94449 3.80859,4.67722 -5.0113,-2.00453 -3.67496,-1.26953 -3.00678,-0.13363 -1.33635,1.67043 0.20045,3.00678 3.67496,4.6104 -5.21176,-3.54132 -3.60813,-1.5368 -3.00679,-0.0668 -0.4009,1.5368 1.20271,2.3386 2.87315,3.40769 1.26953,1.26953 -5.7463,-3.27405 -5.0113,-2.20497 -1.87089,-0.46772 -0.13363,1.06907 1.73725,2.13816 2.40543,4.47676 -2.93997,-3.00678 -3.34087,-2.40543 -3.54132,-1.53679 -1.20271,-0.0668 0.4009,1.80407 2.27179,3.40768 1.06908,1.06908 -5.27857,-3.0736 -1.26953,-0.60136 -0.66817,0.46773 0.73499,1.26953 4.07586,2.80633 4.67721,2.13815 2.87315,0.60136 -4.20949,0.20045 -3.94223,-1.67043 -2.13816,-0.60136 -0.13363,1.26953 1.87089,3.0736 1.5368,2.07134 -5.94675,-7.2831 -5.14494,-7.08264 -3.4745,-6.88219 -0.53454,-0.46772 -1.87089,6.48129 -1.46998,3.4745 -0.33409,7.41673 -1.60362,9.48807 -0.26727,3.74177 -2.67269,-1.06908 -1.87089,-13.56392 0.60136,-3.34087 1.9377,-3.80859 -1.60361,-16.57072 -11.225322,10.62397 -1.336347,3.87541 -9.554887,12.56167 z"
       id="path847" />
    <path
       style="fill:#fafafa;stroke:#000000;stroke-width:0.264583px;stroke-linecap:butt;stroke-linejoin:miter;stroke-opacity:1;fill-opacity:1"
       d="m 110.64958,114.45817 1.33635,0.33409 -0.46772,0.60136 -0.66817,-0.33409 z"
       id="path849" />
    <path
       style="fill:#fafafa;stroke:#000000;stroke-width:0.264583px;stroke-linecap:butt;stroke-linejoin:miter;stroke-opacity:1;fill-opacity:1"
       d="m 113.85682,115.66089 0.87667,0.0884 -0.19489,0.46656 h -0.4961 z"
       id="path851" />
    <path
       style="fill:#021444;stroke:#000000;stroke-width:0.264583px;stroke-linecap:butt;stroke-linejoin:miter;stroke-opacity:1;fill-opacity:1"
       d="m 1.6036172,186.8214 18.7088668,-9.88897 -12.8289374,52.65209 -5.9716499,0.225 z"
       id="path853" />
    <path
       style="fill:#070707;stroke:#000000;stroke-width:0.264583px;stroke-linecap:butt;stroke-linejoin:miter;stroke-opacity:1;fill-opacity:1"
       d="m 20.312484,176.93243 25.123334,9.88897 5.345391,-19.24341 116.262241,49.71213 -3.20723,13.36348 -156.3526734,-1.06908 z"
       id="path855" />
    <path
       style="fill:#021444;stroke:#000000;stroke-width:0.264583px;stroke-linecap:butt;stroke-linejoin:miter;stroke-opacity:1;fill-opacity:1"
       d="m 50.781209,167.57799 -25.390604,11.22532 20.045213,8.01809 z"
       id="path857" />
    <ellipse
       style="fill:#ffffff;fill-opacity:1;stroke-width:0.499999"
       id="path861"
       cx="31.1369"
       cy="102.49786"
       rx="13.76438"
       ry="13.497111" />
  </g>
</svg>
