<?xml version="1.0" encoding="UTF-8" standalone="no"?>
<svg
   xmlns:dc="http://purl.org/dc/elements/1.1/"
   xmlns:cc="http://creativecommons.org/ns#"
   xmlns:rdf="http://www.w3.org/1999/02/22-rdf-syntax-ns#"
   xmlns:svg="http://www.w3.org/2000/svg"
   xmlns="http://www.w3.org/2000/svg"
   xmlns:sodipodi="http://sodipodi.sourceforge.net/DTD/sodipodi-0.dtd"
   xmlns:inkscape="http://www.inkscape.org/namespaces/inkscape"
   width="64"
   height="64"
   viewBox="0 0 16.933333 16.933333"
   version="1.1"
   id="svg6377"
   inkscape:export-filename="C:\Users\ASUS\bpawn1.png"
   inkscape:export-xdpi="96.000008"
   inkscape:export-ydpi="96.000008"
   inkscape:version="1.0.2 (e86c870879, 2021-01-15, custom)"
   sodipodi:docname="bpawn_64.svg">
  <defs
     id="defs6371" />
  <sodipodi:namedview
     id="base"
     pagecolor="#ffffff"
     bordercolor="#666666"
     borderopacity="1.0"
     inkscape:pageopacity="0.0"
     inkscape:pageshadow="2"
     inkscape:zoom="7.9195959"
     inkscape:cx="59.506189"
     inkscape:cy="16.41283"
     inkscape:document-units="mm"
     inkscape:current-layer="layer1"
     inkscape:document-rotation="0"
     showgrid="false"
     units="px"
     inkscape:window-width="1920"
     inkscape:window-height="1001"
     inkscape:window-x="-9"
     inkscape:window-y="-9"
     inkscape:window-maximized="1" />
  <metadata
     id="metadata6374">
    <rdf:RDF>
      <cc:Work
         rdf:about="">
        <dc:format>image/svg+xml</dc:format>
        <dc:type
           rdf:resource="http://purl.org/dc/dcmitype/StillImage" />
        <dc:title></dc:title>
      </cc:Work>
    </rdf:RDF>
  </metadata>
  <g
     inkscape:label="Layer 1"
     inkscape:groupmode="layer"
     id="layer1">
    <g
       inkscape:label="Layer 1"
       id="layer1-3"
       transform="matrix(0.11722484,0,0,0.11722484,-2.8655604,-6.474248)">
      <path
         style="fill:none;stroke:none;stroke-width:2.85714"
         d="m 280.60119,703.52923 -50.82737,-15.9396 12.25595,-12.59834 12.25594,-12.59832 -11.27731,-9.84311 -11.27731,-9.84312 18.45543,-19.21051 c 10.15048,-10.56577 23.58242,-24.74326 29.84874,-31.50552 l 11.39331,-12.29497 -7.14286,-5.60119 -7.14285,-5.60117 6.65,-5.59826 c 3.6575,-3.07904 9.84535,-7.92591 13.75078,-10.77081 6.07458,-4.42502 8.92195,-12.79762 19.70238,-57.93415 6.93088,-29.01887 12.63588,-54.31673 12.67779,-56.21747 0.0521,-2.36091 -7.31045,-3.7188 -23.23709,-4.28571 l -23.31329,-0.82984 20.45614,-11.19589 c 11.25088,-6.15775 20.45614,-12.11352 20.45614,-13.23506 0,-1.12153 -6.41008,-15.36909 -14.24464,-31.66124 -7.83455,-16.29215 -14.26312,-31.70064 -14.28571,-34.24108 -0.0523,-5.8836 11.32119,-34.34819 15.42389,-38.60153 1.70856,-1.77129 12.51099,-5.46587 24.00542,-8.21017 l 20.89895,-4.98965 29.58916,11.02869 29.58915,11.02869 4.13006,22.80698 4.13006,22.80699 -16.04674,17.94076 c -8.82571,9.86742 -16.04674,19.15736 -16.04674,20.64432 0,1.48697 9.30192,9.66279 20.67093,18.1685 l 20.67093,15.46494 -25.67093,3.67954 c -14.74452,2.1134 -25.63398,5.02332 -25.58412,6.83666 0.35372,12.86406 17.34213,79.84833 21.68856,85.51664 2.95212,3.84996 10.29747,12.87323 16.323,20.05171 l 10.95552,13.05179 -7.84138,10.28058 c -6.71068,8.79815 -7.26046,10.83443 -3.81266,14.1214 2.2158,2.11246 15.60015,13.79269 29.74301,25.95609 14.14286,12.16337 26.25507,22.58466 26.91603,23.15834 0.66095,0.57372 -1.80835,4.2472 -5.48734,8.16332 l -6.68908,7.1202 9.53757,12.15423 c 5.24567,6.68485 10.63074,13.59931 11.96682,15.36548 1.66148,2.19632 -9.55158,8.38289 -35.47881,19.57463 -32.74386,14.1342 -42.18954,16.90434 -69.33662,20.33434 -17.28571,2.18403 -35.28571,3.86306 -40,3.73123 -4.71429,-0.13171 -31.44375,-7.41257 -59.39881,-16.17934 z"
         id="path849"
         transform="scale(0.26458333)" />
    </g>
    <g
       inkscape:label="Layer 1"
       id="layer1-6"
       transform="matrix(0.13499396,0,0,0.13499396,-4.6787683,-9.5470865)">
      <path
         style="fill:#000000;fill-opacity:1;stroke:#000000;stroke-width:0.264583px;stroke-linecap:butt;stroke-linejoin:miter;stroke-opacity:1"
         d="m 85.422617,108.10119 -13.607142,7.55952 h 15.119048 l -6.803572,28.72619 -8.315476,6.04762 4.535715,3.02381 -15.875,16.63095 6.047618,5.29167 -6.80357,6.80357 29.482143,9.07143 19.654759,-2.26786 21.16667,-9.07143 -6.80357,-8.31547 3.77976,-3.77976 -16.63095,-14.3631 4.53571,-5.29167 -9.07143,-10.58333 -4.53571,-21.16666 14.36309,-2.26786 -12.09524,-9.07143 9.07143,-9.827381 -2.26785,-12.851191 -15.875003,-6.047618 -12.851191,3.023809 -4.535714,11.339285 z"
         id="path847" />
      <path
         style="fill:none;stroke:none;stroke-width:2.85714"
         d="m 280.60119,703.52923 -50.82737,-15.9396 12.25595,-12.59834 12.25594,-12.59832 -11.27731,-9.84311 -11.27731,-9.84312 18.45543,-19.21051 c 10.15048,-10.56577 23.58242,-24.74326 29.84874,-31.50552 l 11.39331,-12.29497 -7.14286,-5.60119 -7.14285,-5.60117 6.65,-5.59826 c 3.6575,-3.07904 9.84535,-7.92591 13.75078,-10.77081 6.07458,-4.42502 8.92195,-12.79762 19.70238,-57.93415 6.93088,-29.01887 12.63588,-54.31673 12.67779,-56.21747 0.0521,-2.36091 -7.31045,-3.7188 -23.23709,-4.28571 l -23.31329,-0.82984 20.45614,-11.19589 c 11.25088,-6.15775 20.45614,-12.11352 20.45614,-13.23506 0,-1.12153 -6.41008,-15.36909 -14.24464,-31.66124 -7.83455,-16.29215 -14.26312,-31.70064 -14.28571,-34.24108 -0.0523,-5.8836 11.32119,-34.34819 15.42389,-38.60153 1.70856,-1.77129 12.51099,-5.46587 24.00542,-8.21017 l 20.89895,-4.98965 29.58916,11.02869 29.58915,11.02869 4.13006,22.80698 4.13006,22.80699 -16.04674,17.94076 c -8.82571,9.86742 -16.04674,19.15736 -16.04674,20.64432 0,1.48697 9.30192,9.66279 20.67093,18.1685 l 20.67093,15.46494 -25.67093,3.67954 c -14.74452,2.1134 -25.63398,5.02332 -25.58412,6.83666 0.35372,12.86406 17.34213,79.84833 21.68856,85.51664 2.95212,3.84996 10.29747,12.87323 16.323,20.05171 l 10.95552,13.05179 -7.84138,10.28058 c -6.71068,8.79815 -7.26046,10.83443 -3.81266,14.1214 2.2158,2.11246 15.60015,13.79269 29.74301,25.95609 14.14286,12.16337 26.25507,22.58466 26.91603,23.15834 0.66095,0.57372 -1.80835,4.2472 -5.48734,8.16332 l -6.68908,7.1202 9.53757,12.15423 c 5.24567,6.68485 10.63074,13.59931 11.96682,15.36548 1.66148,2.19632 -9.55158,8.38289 -35.47881,19.57463 -32.74386,14.1342 -42.18954,16.90434 -69.33662,20.33434 -17.28571,2.18403 -35.28571,3.86306 -40,3.73123 -4.71429,-0.13171 -31.44375,-7.41257 -59.39881,-16.17934 z"
         id="path849-5"
         transform="scale(0.26458333)" />
      <path
         style="fill:#ffffff;fill-opacity:1;stroke:#000000;stroke-width:0.264583px;stroke-linecap:butt;stroke-linejoin:miter;stroke-opacity:1"
         d="m 67.27976,175.25814 19.582836,9.15783 18.976134,-2.40542 16.74565,-10.41539 -16.07747,8.1436 -19.510681,2.93996 z"
         id="path851" />
      <path
         style="fill:#ffffff;fill-opacity:1;stroke:#000000;stroke-width:0.264583px;stroke-linecap:butt;stroke-linejoin:miter;stroke-opacity:1"
         d="m 78.309972,149.9382 14.833457,-4.40994 20.755051,2.57192 -19.685973,-1.23558 z"
         id="path853" />
      <path
         style="fill:#ffffff;fill-opacity:1;stroke:#000000;stroke-width:0.264583px;stroke-linecap:butt;stroke-linejoin:miter;stroke-opacity:1"
         d="m 82.319012,112.78774 12.02713,-4.94449 16.169808,5.21176 -15.768903,-3.20723 z"
         id="path855" />
    </g>
  </g>
</svg>
