<?xml version="1.0" encoding="UTF-8" standalone="no"?>
<svg
   xmlns:dc="http://purl.org/dc/elements/1.1/"
   xmlns:cc="http://creativecommons.org/ns#"
   xmlns:rdf="http://www.w3.org/1999/02/22-rdf-syntax-ns#"
   xmlns:svg="http://www.w3.org/2000/svg"
   xmlns="http://www.w3.org/2000/svg"
   xmlns:sodipodi="http://sodipodi.sourceforge.net/DTD/sodipodi-0.dtd"
   xmlns:inkscape="http://www.inkscape.org/namespaces/inkscape"
   width="64"
   height="64"
   viewBox="0 0 16.933333 16.933333"
   version="1.1"
   id="svg6377"
   inkscape:export-filename="C:\Users\ASUS\bqueen1.png"
   inkscape:export-xdpi="96.000008"
   inkscape:export-ydpi="96.000008"
   inkscape:version="1.0.2 (e86c870879, 2021-01-15, custom)"
   sodipodi:docname="bqueen1.svg">
  <defs
     id="defs6371" />
  <sodipodi:namedview
     id="base"
     pagecolor="#ffffff"
     bordercolor="#666666"
     borderopacity="1.0"
     inkscape:pageopacity="0.0"
     inkscape:pageshadow="2"
     inkscape:zoom="12.515625"
     inkscape:cx="32"
     inkscape:cy="32.041209"
     inkscape:document-units="mm"
     inkscape:current-layer="layer1"
     inkscape:document-rotation="0"
     showgrid="false"
     units="px"
     inkscape:window-width="1920"
     inkscape:window-height="1001"
     inkscape:window-x="-9"
     inkscape:window-y="-9"
     inkscape:window-maximized="1" />
  <metadata
     id="metadata6374">
    <rdf:RDF>
      <cc:Work
         rdf:about="">
        <dc:format>image/svg+xml</dc:format>
        <dc:type
           rdf:resource="http://purl.org/dc/dcmitype/StillImage" />
        <dc:title></dc:title>
      </cc:Work>
    </rdf:RDF>
  </metadata>
  <g
     inkscape:label="Layer 1"
     inkscape:groupmode="layer"
     id="layer1">
    <g
       inkscape:label="Layer 1"
       id="layer1-1"
       transform="matrix(0.06879133,0,0,0.06879133,1.2358794,-1.9113009)">
      <path
         style="fill:#000000;fill-opacity:1;stroke:#000000;stroke-width:0.264583px;stroke-linecap:butt;stroke-linejoin:miter;stroke-opacity:1"
         d="m 70.826423,52.117558 9.621705,18.708865 1.069078,21.648832 -2.405428,1.603619 -0.267269,3.207234 2.939966,3.207232 -1.603619,3.74177 -2.672693,0.26728 -2.672697,4.54358 1.069078,2.40542 -4.276312,2.13816 -1.870887,4.00904 4.543583,7.21628 9.354434,4.27631 2.405425,1.60362 -1.870887,35.27957 -7.216278,31.00327 -3.207234,1.06908 -2.138156,6.41447 1.336347,6.41447 -14.699824,20.84702 1.069081,8.55262 -3.207237,4.81085 5.345393,11.22532 11.492587,9.35443 23.252451,5.87994 17.63979,-0.80182 23.25245,-5.87991 13.0962,-10.95806 4.00905,-13.89802 -1.60362,-2.67269 -0.26727,-10.15625 -14.96709,-17.10524 1.06907,-8.28536 -2.67269,-4.81085 -1.60362,-1.87089 -6.41447,-13.63074 -4.81085,-30.46873 -2.13816,-21.11429 11.49259,-6.41447 4.27632,-6.94901 -2.93997,-7.48354 h -2.13815 v -1.60362 l -0.53454,-2.93996 -3.74178,-2.6727 -1.87088,-0.80181 -0.53454,-2.138156 3.74177,-3.207235 -0.80181,-1.870887 -1.87088,-2.138156 -1.87089,-13.363474 5.61266,-18.976136 3.4745,-5.078122 0.80181,-3.207234 -6.94901,6.414468 -6.949,-9.354433 -12.82894,-3.474503 -0.53454,-2.939965 1.33635,-2.672697 -5.34539,-7.216277 -4.810855,6.949008 3.207235,5.345391 -2.405425,2.939965 -11.225321,2.939965 -6.681737,5.612659 z"
         id="path2704" />
      <path
         style="fill:#ffffff;fill-opacity:1;stroke:#000000;stroke-width:0.264583px;stroke-linecap:butt;stroke-linejoin:miter;stroke-opacity:1"
         d="m 78.577241,262.99321 9.087162,2.93997 2.672696,-3.20724 -1.870887,-0.26727 -2.405425,0.53454 -4.543581,-0.26727 z"
         id="path2706" />
      <path
         style="fill:#ffffff;fill-opacity:1;stroke:#000000;stroke-width:0.264583px;stroke-linecap:butt;stroke-linejoin:miter;stroke-opacity:1"
         d="m 95.949758,263.52775 0.801809,1.87089 11.225323,0.53454 -0.26727,-2.40543 z"
         id="path2708" />
      <path
         style="fill:#ffffff;fill-opacity:1;stroke:#000000;stroke-width:0.264583px;stroke-linecap:butt;stroke-linejoin:miter;stroke-opacity:1"
         d="m 117.33132,265.39864 14.16529,-2.40543 -3.47451,-4.00904 -14.43255,3.20723 z"
         id="path2710" />
      <path
         style="fill:#ffffff;fill-opacity:1;stroke:#000000;stroke-width:0.264583px;stroke-linecap:butt;stroke-linejoin:miter;stroke-opacity:1"
         d="m 112.78774,223.70459 6.94901,0.53454 2.40542,-1.33635 5.34539,19.77795 4.27631,6.68173 -15.50163,4.27632 -2.93996,-15.23436 z"
         id="path2712" />
      <path
         style="fill:#ffffff;fill-opacity:1;stroke:#000000;stroke-width:0.264583px;stroke-linecap:butt;stroke-linejoin:miter;stroke-opacity:1"
         d="m 87.129865,222.36824 7.750815,1.33635 -3.474503,19.51068 -2.939965,10.42351 -9.621703,-2.93997 5.078122,-10.42351 z"
         id="path2714" />
      <path
         style="fill:#ffffff;fill-opacity:1;stroke:#000000;stroke-width:0.264583px;stroke-linecap:butt;stroke-linejoin:miter;stroke-opacity:1"
         d="m 74.515849,213.42655 -13.536834,19.86246 0.885587,5.56655 3.54235,4.93398 13.030784,-26.06157 6.831674,1.64466 17.45872,2.53026 18.72385,-1.89769 8.34982,-3.16282 5.56655,-4.55444 14.80196,19.22989 -0.63256,7.33773 -4.0484,6.70516 5.44004,-5.56655 0.12651,-9.74146 -13.67936,-20.17886 -3.02029,-5.88271 -1.64466,4.68096 -16.57314,6.70516 -16.573131,1.0121 -16.826159,-2.90979 -7.843774,-5.81957 -3.267154,-3.39881 z"
         id="path2716" />
      <path
         style="fill:#ffffff;fill-opacity:1;stroke:#000000;stroke-width:0.264583px;stroke-linecap:butt;stroke-linejoin:miter;stroke-opacity:1"
         d="m 59.713888,243.66303 -1.13861,2.90979 c 0,0 3.542347,7.59074 3.415837,6.83167 -0.126513,-0.75907 0.885587,-4.55445 0.885587,-4.55445 l 4.427937,1.89769 17.838258,6.57865 21.633633,1.39163 24.41691,-3.54235 -25.17598,3.0363 -20.74805,-2.65676 -19.735948,-8.47633 -4.68096,-3.92189 z"
         id="path2718" />
      <path
         style="fill:#ffffff;fill-opacity:1;stroke:#000000;stroke-width:0.264583px;stroke-linecap:butt;stroke-linejoin:miter;stroke-opacity:1"
         d="m 81.22101,257.5794 8.982387,1.77118 0.759074,0.88559 -9.108898,-1.39164 z"
         id="path2720" />
      <path
         style="fill:#ffffff;fill-opacity:1;stroke:#000000;stroke-width:0.264583px;stroke-linecap:butt;stroke-linejoin:miter;stroke-opacity:1"
         d="m 97.017016,261.21686 10.153464,0.13419 0.26838,0.67094 -10.377114,0.0894 z"
         id="path2722" />
      <path
         style="fill:#ffffff;fill-opacity:1;stroke:#000000;stroke-width:0.264583px;stroke-linecap:butt;stroke-linejoin:miter;stroke-opacity:1"
         d="m 115.53479,260.5012 13.1503,-3.26521 0.0447,0.89458 -14.5369,3.35467 z"
         id="path2724" />
      <path
         style="fill:#ffffff;fill-opacity:1;stroke:#000000;stroke-width:0.264583px;stroke-linecap:butt;stroke-linejoin:miter;stroke-opacity:1"
         d="m 130.78735,257.54909 3.98087,-1.74442 1.02877,1.16295 v 0.80512 l -2.46009,0.80512 -2.7732,-0.49202 z"
         id="path2726" />
      <path
         style="fill:#ffffff;fill-opacity:1;stroke:#000000;stroke-width:0.264583px;stroke-linecap:butt;stroke-linejoin:miter;stroke-opacity:1"
         d="m 112.35903,210.62846 4.51763,-0.40256 5.09909,-1.38659 -1.87861,2.41536 -6.84353,0.84985 -2.54954,0.0894 z"
         id="path2728"
         sodipodi:nodetypes="ccccccc" />
      <path
         style="fill:#ffffff;fill-opacity:1;stroke:#000000;stroke-width:0.264583px;stroke-linecap:butt;stroke-linejoin:miter;stroke-opacity:1"
         d="m 89.144728,207.18433 -0.447289,3.53359 2.817921,0.80512 3.846687,0.0895 0.04473,-2.41536 -3.26521,-0.0895 -1.610241,-0.40256 z"
         id="path2730" />
      <path
         style="fill:#ffffff;fill-opacity:1;stroke:#000000;stroke-width:0.264583px;stroke-linecap:butt;stroke-linejoin:miter;stroke-opacity:1"
         d="m 87.445029,212.95436 3.66777,0.13419 3.131026,0.84985 -0.268374,1.16295 -3.354668,-1.02876 -3.131024,-0.0895 z"
         id="path2732" />
      <path
         style="fill:#ffffff;fill-opacity:1;stroke:#000000;stroke-width:0.264583px;stroke-linecap:butt;stroke-linejoin:miter;stroke-opacity:1"
         d="m 94.601656,212.59653 -0.357833,1.34187 5.4122,0.17892 -0.08946,-1.16296 H 95.94352 Z"
         id="path2734" />
      <path
         style="fill:#ffffff;fill-opacity:1;stroke:#000000;stroke-width:0.264583px;stroke-linecap:butt;stroke-linejoin:miter;stroke-opacity:1"
         d="m 100.5506,211.88087 6.08313,-0.0895 0.53675,0.98404 h -6.61988 z"
         id="path2736" />
      <path
         style="fill:#ffffff;fill-opacity:1;stroke:#000000;stroke-width:0.264583px;stroke-linecap:butt;stroke-linejoin:miter;stroke-opacity:1"
         d="m 99.656023,214.11732 7.827557,0.26837 -0.44729,0.84985 h -7.603911 z"
         id="path2738" />
      <path
         style="fill:#ffffff;fill-opacity:1;stroke:#000000;stroke-width:0.264583px;stroke-linecap:butt;stroke-linejoin:miter;stroke-opacity:1"
         d="m 111.50919,214.02786 0.67093,1.16295 2.99684,-0.17892 6.61987,-2.14698 3.22049,-1.61024 -2.59428,0.35783 1.78916,-1.78916 -2.23645,0.84985 -1.92334,1.52078 0.53674,0.49202 -4.29397,1.02877 z"
         id="path2740" />
      <path
         style="fill:#ffffff;fill-opacity:1;stroke:#000000;stroke-width:0.264583px;stroke-linecap:butt;stroke-linejoin:miter;stroke-opacity:1"
         d="m 87.221384,131.05572 -2.146988,34.44127 -6.932982,32.11536 -3.533582,1.52078 -1.610244,4.20452 3.444129,4.15979 7.022439,3.04156 -4.964909,-4.69653 7.693374,-38.8247 2.057529,-28.71597 v -6.79879 l 8.274849,2.72846 14.581631,-0.9393 7.51445,-2.23645 h -7.20135 l -2.0128,1.47605 -10.466571,0.0447 -3.712498,-1.69969 -2.817923,0.26837 -0.402559,-1.02877 -5.188556,-0.0894 0.134189,0.76039 z"
         id="path2742" />
      <path
         style="fill:#ffffff;fill-opacity:1;stroke:#000000;stroke-width:0.264583px;stroke-linecap:butt;stroke-linejoin:miter;stroke-opacity:1"
         d="m 127.74578,124.43584 -5.00964,1.47606 -3.30994,-0.22365 -6.39623,1.56551 -22.230273,-0.13418 -9.482529,-0.93931 -6.083134,-2.99684 -0.626202,-4.42816 -1.968074,-2.50482 6.932983,0.44729 3.30994,-0.22364 -5.546387,-2.72847 -3.578312,0.3131 -2.996837,3.35467 3.712498,6.39624 10.645481,4.69653 32.875756,0.40256 6.26205,-1.83388 3.89141,-2.28118 z"
         id="path2744" />
      <path
         style="fill:#ffffff;fill-opacity:1;stroke:#000000;stroke-width:0.264583px;stroke-linecap:butt;stroke-linejoin:miter;stroke-opacity:1"
         d="m 84.627108,121.03644 -0.08946,2.37064 7.514458,1.20768 -0.04473,-3.26521 z"
         id="path2746" />
      <path
         style="fill:#ffffff;fill-opacity:1;stroke:#000000;stroke-width:0.264583px;stroke-linecap:butt;stroke-linejoin:miter;stroke-opacity:1"
         d="m 97.330119,121.439 0.04473,0.67094 7.648641,0.26837 0.13419,-1.20768 z"
         id="path2748" />
      <path
         style="fill:#ffffff;fill-opacity:1;stroke:#000000;stroke-width:0.264583px;stroke-linecap:butt;stroke-linejoin:miter;stroke-opacity:1"
         d="m 109.13855,121.70738 2.14699,2.639 10.77967,-2.19171 0.0447,-0.93931 -1.52079,-1.29714 -2.81792,0.26837 -8.14066,1.02877 z"
         id="path2750" />
      <path
         style="fill:#ffffff;fill-opacity:1;stroke:#000000;stroke-width:0.264583px;stroke-linecap:butt;stroke-linejoin:miter;stroke-opacity:1"
         d="m 120.36551,118.39744 -0.6262,0.98403 3.98087,0.0895 0.0895,-1.16295 z"
         id="path2752" />
      <path
         style="fill:#ffffff;fill-opacity:1;stroke:#000000;stroke-width:0.264583px;stroke-linecap:butt;stroke-linejoin:miter;stroke-opacity:1"
         d="m 87.758131,112.85105 -0.894577,0.93931 0.492016,0.98404 5.993675,0.58147 0.223645,-2.46009 z"
         id="path2754" />
      <path
         style="fill:#ffffff;fill-opacity:1;stroke:#000000;stroke-width:0.264583px;stroke-linecap:butt;stroke-linejoin:miter;stroke-opacity:1"
         d="m 87.176657,115.93735 v 0.6262 l 1.386596,0.80512 4.47289,-0.0447 0.134188,-1.0735 -5.009639,-0.26837 -0.805124,-1.20768 z"
         id="path2756" />
      <path
         style="fill:#ffffff;fill-opacity:1;stroke:#000000;stroke-width:0.264583px;stroke-linecap:butt;stroke-linejoin:miter;stroke-opacity:1"
         d="m 91.917921,118.8 6.440964,0.44729 7.156625,-0.13419 0.22365,1.16295 -13.239764,-0.44729 -1.699699,-0.3131 z"
         id="path2758" />
      <path
         style="fill:#ffffff;fill-opacity:1;stroke:#000000;stroke-width:0.264583px;stroke-linecap:butt;stroke-linejoin:miter;stroke-opacity:1"
         d="m 98.045782,113.02997 0.313103,0.53675 5.993675,-0.0447 0.13419,-0.89458 -6.485696,0.0895 z"
         id="path2760" />
      <path
         style="fill:#ffffff;fill-opacity:1;stroke:#000000;stroke-width:0.264583px;stroke-linecap:butt;stroke-linejoin:miter;stroke-opacity:1"
         d="m 108.69126,113.20888 1.34187,1.61024 9.07997,-1.11822 -1.3866,-1.61024 -8.45376,0.49202 z"
         id="path2762" />
      <path
         style="fill:#ffffff;fill-opacity:1;stroke:#000000;stroke-width:0.264583px;stroke-linecap:butt;stroke-linejoin:miter;stroke-opacity:1"
         d="m 109.54111,116.65301 -0.53674,0.93931 8.0512,-0.44729 2.3259,-0.67093 1.87862,-0.26838 0.76039,-0.80512 -0.89458,0.40256 -1.47605,0.0895 -0.62621,-0.49202 -6.21731,0.49202 z"
         id="path2764" />
      <path
         style="fill:#ffffff;fill-opacity:1;stroke:#000000;stroke-width:0.264583px;stroke-linecap:butt;stroke-linejoin:miter;stroke-opacity:1"
         d="m 117.05557,110.70407 3.22048,-0.22365 0.62621,1.02877 -3.93615,-0.17892 z"
         id="path2766" />
      <path
         style="fill:#ffffff;fill-opacity:1;stroke:#000000;stroke-width:0.264583px;stroke-linecap:butt;stroke-linejoin:miter;stroke-opacity:1"
         d="m 95.406775,117.4134 5.278015,-0.17891 4.07033,-0.0895 0.35783,0.84985 -7.424998,0.40256 -2.728466,-0.0447 z"
         id="path2768" />
      <path
         style="fill:#ffffff;fill-opacity:1;stroke:#000000;stroke-width:0.264583px;stroke-linecap:butt;stroke-linejoin:miter;stroke-opacity:1"
         d="m 90.30768,106.90211 0.178917,1.29714 5.099095,-0.0895 0.04473,-1.0735 -5.009636,-0.35783 z"
         id="path2770" />
      <path
         style="fill:#ffffff;fill-opacity:1;stroke:#000000;stroke-width:0.264583px;stroke-linecap:butt;stroke-linejoin:miter;stroke-opacity:1"
         d="m 93.036143,111.0619 0.268375,-0.53675 0.178913,-1.47605 4.025604,-0.31311 -2.236446,0.80512 0.313103,1.02877 6.798798,0.49202 1.20768,1.29713 -9.571992,-0.35783 z"
         id="path2772" />
      <path
         style="fill:#ffffff;fill-opacity:1;stroke:#000000;stroke-width:0.264583px;stroke-linecap:butt;stroke-linejoin:miter;stroke-opacity:1"
         d="m 82.972136,101.75828 -1.520782,2.28118 -2.460091,2.19171 -2.594276,3.22048 1.20768,2.68374 2.146988,1.56551 -0.984036,-1.61024 -1.431325,-2.41536 2.773194,-3.08629 2.191715,-1.92335 1.20768,0.35783 0.805122,-1.78915 z"
         id="path2774" />
      <path
         style="fill:#ffffff;fill-opacity:1;stroke:#000000;stroke-width:0.264583px;stroke-linecap:butt;stroke-linejoin:miter;stroke-opacity:1"
         d="m 89.547289,99.208734 -0.268375,0.715664 0.492019,0.760392 4.964909,0.26837 0.313103,-1.654967 z"
         id="path2776" />
      <path
         style="fill:#ffffff;fill-opacity:1;stroke:#000000;stroke-width:0.264583px;stroke-linecap:butt;stroke-linejoin:miter;stroke-opacity:1"
         d="m 90.978613,95.183131 -0.268372,1.118224 3.846684,0.670933 0.805122,-0.447289 0.08946,-1.162952 z"
         id="path2778" />
      <path
         style="fill:#ffffff;fill-opacity:1;stroke:#000000;stroke-width:0.264583px;stroke-linecap:butt;stroke-linejoin:miter;stroke-opacity:1"
         d="m 98.806173,96.838102 -0.223644,0.715661 0.402561,0.357833 4.60708,0.134186 0.58147,-0.84985 -0.35783,-0.581474 z"
         id="path2780" />
      <path
         style="fill:#ffffff;fill-opacity:1;stroke:#000000;stroke-width:0.264583px;stroke-linecap:butt;stroke-linejoin:miter;stroke-opacity:1"
         d="m 98.09051,99.119276 -0.08946,0.447289 0.894578,0.447285 4.741272,-0.134183 0.80512,-0.626205 -0.58148,-0.313103 z"
         id="path2782" />
      <path
         style="fill:#ffffff;fill-opacity:1;stroke:#000000;stroke-width:0.264583px;stroke-linecap:butt;stroke-linejoin:miter;stroke-opacity:1"
         d="m 108.78072,107.03629 7.38027,-0.76039 0.0895,0.67094 1.83389,-0.0895 -1.61024,1.29714 -3.48886,0.0447 1.6997,0.6262 -0.58148,1.74443 -6.57515,0.58147 0.53675,-2.23644 -0.67094,-0.13419 z"
         id="path2784" />
      <path
         style="fill:#ffffff;fill-opacity:1;stroke:#000000;stroke-width:0.264583px;stroke-linecap:butt;stroke-linejoin:miter;stroke-opacity:1"
         d="m 106.72319,98.940359 9.21416,-1.20768 0.76039,0.760392 v 1.297138 l -6.97771,0.939311 -0.67093,-0.58148 -1.78916,0.17892 z"
         id="path2786" />
      <path
         style="fill:#ffffff;fill-opacity:1;stroke:#000000;stroke-width:0.264583px;stroke-linecap:butt;stroke-linejoin:miter;stroke-opacity:1"
         d="m 108.02033,95.719878 -0.67093,1.028766 v 0.715663 l 0.80512,0.536747 4.96491,-0.849849 2.639,-0.760392 0.22365,-1.118224 -0.44729,-0.492017 -5.4122,0.492017 z"
         id="path2788" />
      <path
         style="fill:#ffffff;fill-opacity:1;stroke:#000000;stroke-width:0.264583px;stroke-linecap:butt;stroke-linejoin:miter;stroke-opacity:1"
         d="m 117.90542,96.122439 -0.80512,0.760391 0.84985,0.805122 0.71566,-0.49202 z"
         id="path2790" />
      <path
         style="fill:#ffffff;fill-opacity:1;stroke:#000000;stroke-width:0.264583px;stroke-linecap:butt;stroke-linejoin:miter;stroke-opacity:1"
         d="m 108.42289,101.89247 8.14066,-0.98404 7.24609,-1.610237 0.35783,1.923347 -5.4122,2.3259 -10.28765,0.98403 4.56235,-1.02876 3.53358,-0.44729 6.84353,-1.96807 0.17891,-0.80512 -7.11189,1.61024 -6.30678,0.53675 -1.6997,-0.31311 z"
         id="path2792" />
      <path
         style="fill:#ffffff;fill-opacity:1;stroke:#000000;stroke-width:0.264583px;stroke-linecap:butt;stroke-linejoin:miter;stroke-opacity:1"
         d="m 85.074396,101.26626 5.36747,0.58148 11.182224,0.26837 1.34187,0.67094 -6.08313,-0.0447 -6.262047,-0.0447 -5.635845,-0.76039 z"
         id="path2794" />
      <path
         style="fill:#ffffff;fill-opacity:1;stroke:#000000;stroke-width:0.264583px;stroke-linecap:butt;stroke-linejoin:miter;stroke-opacity:1"
         d="m 92.275751,103.41325 -0.492016,0.67093 -2.594279,-0.22364 0.04473,0.44729 5.143826,0.89458 7.603918,-0.0895 -2.14699,-0.76039 -4.025604,-0.0447 -0.760391,-0.80512 z"
         id="path2796" />
      <path
         style="fill:#ffffff;fill-opacity:1;stroke:#000000;stroke-width:0.264583px;stroke-linecap:butt;stroke-linejoin:miter;stroke-opacity:1"
         d="m 75.234034,57.163554 2.59428,2.639004 -2.057533,-1.20768 4.204521,6.172592 1.431324,4.293976 1.699699,1.878613 0.760391,23.080119 -1.162952,-0.134186 -1.20768,-22.856475 -5.099097,-9.795632 -1.565511,-2.952109 z"
         id="path2798" />
      <path
         style="fill:#ffffff;fill-opacity:1;stroke:#000000;stroke-width:0.264583px;stroke-linecap:butt;stroke-linejoin:miter;stroke-opacity:1"
         d="m 86.058432,58.371234 -3.712498,5.188556 10.958584,11.897889 10.019272,-2.728463 9.79564,2.549549 9.92982,-7.290813 0.98403,6.127861 4.07033,-14.447441 -3.22048,2.281177 -20.68712,2.795557 -15.051282,-2.214082 z"
         id="path2800"
         sodipodi:nodetypes="cccccccccccc" />
      <path
         style="fill:#ffffff;fill-opacity:1;stroke:#000000;stroke-width:0.264583px;stroke-linecap:butt;stroke-linejoin:miter;stroke-opacity:1"
         d="m 100.95316,36.140964 -0.93931,0.715663 0.44729,0.760392 1.20768,-0.760392 z"
         id="path2802" />
      <path
         style="fill:#ffffff;fill-opacity:1;stroke:#000000;stroke-width:0.264583px;stroke-linecap:butt;stroke-linejoin:miter;stroke-opacity:1"
         d="m 104.08418,35.201656 1.43133,1.431324 -1.52078,0.08946 z"
         id="path2804" />
      <path
         style="fill:#ffffff;fill-opacity:1;stroke:#000000;stroke-width:0.264583px;stroke-linecap:butt;stroke-linejoin:miter;stroke-opacity:1"
         d="m 103.77108,43.610693 0.49202,-0.447291 h 0.84985 l 0.49202,1.968074 -1.87862,0.04473 z"
         id="path2806" />
      <path
         style="fill:#ffffff;fill-opacity:1;stroke:#000000;stroke-width:0.264583px;stroke-linecap:butt;stroke-linejoin:miter;stroke-opacity:1"
         d="m 101.80301,43.25286 0.0895,2.639007 -1.02877,0.626206 0.80512,-1.789158 z"
         id="path2808" />
      <path
         style="fill:#ffffff;fill-opacity:1;stroke:#000000;stroke-width:0.264583px;stroke-linecap:butt;stroke-linejoin:miter;stroke-opacity:1"
         d="m 82.659036,55.642771 4.696534,-4.607078 11.942623,-3.30994 -6.754067,2.862651 -4.741264,4.47289 z"
         id="path2810" />
      <path
         style="fill:#ffffff;fill-opacity:1;stroke:#000000;stroke-width:0.264583px;stroke-linecap:butt;stroke-linejoin:miter;stroke-opacity:1"
         d="m 107.43886,46.562801 7.42499,2.057529 4.87546,2.549549 2.81792,3.131023 -3.57832,-1.56551 -6.3515,-3.265212 -4.42816,-1.833886 z"
         id="path2812" />
    </g>
  </g>
</svg>
