<?xml version="1.0" encoding="UTF-8" standalone="no"?>
<svg
   xmlns:dc="http://purl.org/dc/elements/1.1/"
   xmlns:cc="http://creativecommons.org/ns#"
   xmlns:rdf="http://www.w3.org/1999/02/22-rdf-syntax-ns#"
   xmlns:svg="http://www.w3.org/2000/svg"
   xmlns="http://www.w3.org/2000/svg"
   xmlns:sodipodi="http://sodipodi.sourceforge.net/DTD/sodipodi-0.dtd"
   xmlns:inkscape="http://www.inkscape.org/namespaces/inkscape"
   width="210mm"
   height="297mm"
   viewBox="0 0 210 297"
   version="1.1"
   id="svg3307"
   inkscape:version="1.0.2 (e86c870879, 2021-01-15, custom)"
   sodipodi:docname="chibi.svg"
   inkscape:export-filename="C:\Users\ASUS\player1_climb2.png"
   inkscape:export-xdpi="96.199997"
   inkscape:export-ydpi="96.199997">
  <defs
     id="defs3301" />
  <sodipodi:namedview
     id="base"
     pagecolor="#ffffff"
     bordercolor="#666666"
     borderopacity="1.0"
     inkscape:pageopacity="0.0"
     inkscape:pageshadow="2"
     inkscape:zoom="0.71357323"
     inkscape:cx="396.85039"
     inkscape:cy="561.25984"
     inkscape:document-units="mm"
     inkscape:current-layer="layer1"
     inkscape:document-rotation="0"
     showgrid="false"
     inkscape:window-width="1920"
     inkscape:window-height="1001"
     inkscape:window-x="-9"
     inkscape:window-y="-9"
     inkscape:window-maximized="1" />
  <metadata
     id="metadata3304">
    <rdf:RDF>
      <cc:Work
         rdf:about="">
        <dc:format>image/svg+xml</dc:format>
        <dc:type
           rdf:resource="http://purl.org/dc/dcmitype/StillImage" />
        <dc:title></dc:title>
      </cc:Work>
    </rdf:RDF>
  </metadata>
  <g
     inkscape:label="Layer 1"
     inkscape:groupmode="layer"
     id="layer1">
    <path
       style="fill:#a0a0a0;stroke:none;stroke-width:0.946008"
       d=""
       id="path3938"
       transform="scale(0.26458333)" />
    <path
       style="fill:#a0a0a0;stroke:none;stroke-width:0.946008"
       d=""
       id="path3940"
       transform="scale(0.26458333)" />
    <path
       style="fill:#1e3d6e;fill-opacity:1;stroke:#000000;stroke-width:0.264583px;stroke-linecap:butt;stroke-linejoin:miter;stroke-opacity:1"
       d="m -44.037555,90.481962 -1.939808,1.68951 -0.375447,0.81347 -1.877234,1.62693 -9.261025,21.588198 -0.688322,0.12515 -1.126339,2.87843 1.376638,1.06376 3.316449,1.50179 3.691895,-9.88677 3.191298,1.0012 3.629321,-0.2503 0.81347,-19.085218 0.375446,-2.31526 1.752089,-1.18891 0.12515,-1.68952 z"
       id="path3976"
       inkscape:export-filename="C:\Users\ASUS\player1_climb2.png"
       inkscape:export-xdpi="96.199997"
       inkscape:export-ydpi="96.199997" />
    <path
       style="fill:#f7ece7;stroke:#000000;stroke-width:0.264583px;stroke-linecap:butt;stroke-linejoin:miter;stroke-opacity:1;fill-opacity:1"
       d="m 106.68951,110.25626 0.25032,2.06495 1.00119,0.62575 -0.50062,7.19607 -4.75566,0.25029 -4.693084,-0.50059 0.625742,-5.25626 1.752092,-1.18891 0.12515,-1.68952 z"
       id="path4014"
       sodipodi:nodetypes="cccccccccc" />
    <path
       style="fill:#f7ece7;stroke:#000000;stroke-width:0.264583px;stroke-linecap:butt;stroke-linejoin:miter;stroke-opacity:1;fill-opacity:1"
       d="m 74.088198,66.57926 -2.753275,14.767581 3.504171,21.525619 13.516091,8.51014 10.512515,1.50179 20.02384,-6.25745 7.25864,-5.00597 2.00238,-2.252676 3.50417,-4.505362 -2.75327,-4.255066 -6.25746,-28.283672 -20.27413,-11.513707 -15.768772,2.002386 -9.261025,9.010726 z"
       id="path3968" />
    <path
       style="fill:#000000;stroke:#000000;stroke-width:0.264583px;stroke-linecap:butt;stroke-linejoin:miter;stroke-opacity:1;fill-opacity:1"
       d="m 65.828367,63.075089 -3.504173,19.272943 3.504173,12.765196 2.252681,-9.010727 4.004768,10.512515 7.759236,-28.784267 -3.754469,17.520859 9.010727,-15.768772 -1.25149,13.265793 8.760428,-25.029797 8.760432,22.777113 -3.003577,-19.272943 17.771157,27.032183 -10.01192,-28.283672 16.51966,35.542312 1.25149,-14.767581 2.19011,18.960073 2.87843,-16.331943 15.08045,-8.197258 -6.88319,-21.650775 -23.27771,-12.827771 -29.410014,5.068534 z"
       id="path3970" />
    <path
       style="fill:#040a04;stroke:#000000;stroke-width:0.264583px;stroke-linecap:butt;stroke-linejoin:miter;stroke-opacity:1;fill-opacity:1"
       d="m 94.112036,107.941 0.688319,0.87604 0.750896,-0.43802 2.315255,0.37545 -1.752084,-0.93862 z"
       id="path3974" />
    <path
       style="fill:#f7ece7;fill-opacity:1;stroke:#000000;stroke-width:0.264583px;stroke-linecap:butt;stroke-linejoin:miter;stroke-opacity:1"
       d="m -27.938,144.08189 3.504169,22.02622 5.569135,0.62575 1.93981,-23.15255 -5.005965,1.06377 z"
       id="path3982"
       sodipodi:nodetypes="cccccc"
       inkscape:export-filename="C:\Users\ASUS\player1_climb2.png"
       inkscape:export-xdpi="96.199997"
       inkscape:export-ydpi="96.199997" />
    <path
       style="fill:#f7ece7;fill-opacity:1;stroke:#000000;stroke-width:0.264583px;stroke-linecap:butt;stroke-linejoin:miter;stroke-opacity:1"
       d="m -48.939102,146.8416 3.06615,17.83373 0.68832,4.56794 5.56913,-0.37545 2.06496,-23.34029 -4.63051,1.43924 z"
       id="path3984"
       inkscape:export-filename="C:\Users\ASUS\player1_climb2.png"
       inkscape:export-xdpi="96.199997"
       inkscape:export-ydpi="96.199997" />
    <path
       style="fill:#1e100a;fill-opacity:1;stroke:#000000;stroke-width:0.264583px;stroke-linecap:butt;stroke-linejoin:miter;stroke-opacity:1"
       d="m 91.54058,153.08212 -1.376664,2.34643 0.56184,0.77244 3.940104,-0.17926 2.63443,-0.83139 0.197071,-1.46624 z"
       id="path3986"
       sodipodi:nodetypes="ccccccc" />
    <path
       style="fill:#e4ecf8;fill-opacity:1;stroke:#000000;stroke-width:0.244214px;stroke-linecap:butt;stroke-linejoin:miter;stroke-opacity:1"
       d="m 95.359568,119.38246 7.324652,0.85257 6.69861,-0.47957 17.27867,32.29103 -0.87645,0.79928 -6.76121,0.0533 -6.07258,1.54528 -10.64266,-0.15987 -5.00831,0.90586 -11.644321,-0.95914 -4.168249,-1.57048 -0.584742,-5.09149 9.698697,-14.65224 4.319668,-13.53452 z"
       id="path3980"
       sodipodi:nodetypes="ccccccccccccccc" />
    <path
       style="fill:#1e100a;fill-opacity:1;stroke:#000000;stroke-width:0.264583px;stroke-linecap:butt;stroke-linejoin:miter;stroke-opacity:1"
       d="m 107.80003,154.47149 -0.93861,1.56693 0.31287,1.06377 3.00357,0.0626 2.44041,-0.31287 1.07043,-0.64575 -0.73744,-1.76182 z"
       id="path3988"
       sodipodi:nodetypes="cccccccc" />
    <path
       style="fill:#030303;stroke:#000000;stroke-width:0.264583px;stroke-linecap:butt;stroke-linejoin:miter;stroke-opacity:1;fill-opacity:1"
       d="m 76.458553,94.909488 -0.796444,-2.566315 0.530963,-2.566319 2.389331,-1.504391 3.318512,-0.176988 4.955649,1.991109 1.902613,1.283157 -4.867153,-4.291943 -4.999895,-0.973432 -3.4955,1.10617 -1.68138,1.769875 -0.309729,2.433577 -0.973428,-0.04425 -0.530964,-0.707948 0.752198,1.415899 1.415899,0.752195 0.575207,0.265483 1.061926,1.637133 z"
       id="path3990" />
    <path
       style="fill:#ffffff;stroke:#000000;stroke-width:0.264583px;stroke-linecap:butt;stroke-linejoin:miter;stroke-opacity:1;fill-opacity:1"
       d="m 76.458553,94.909488 1.371652,2.477826 5.973326,3.362756 3.362759,-0.6637 1.637133,-1.858367 0.84069,-4.468931 -0.884936,-2.389333 -5.486609,-3.583993 -3.893722,-0.530961 -3.053032,0.973432 -1.238912,2.389327 0.575207,1.725629 z"
       id="path3992" />
    <path
       style="fill:#55bc56;stroke:#000000;stroke-width:0.264583px;stroke-linecap:butt;stroke-linejoin:miter;stroke-opacity:1;fill-opacity:1"
       d="m 83.228322,88.980411 -1.814121,1.637133 0.398222,5.92908 1.460145,2.920291 1.946862,0.796445 1.94686,-0.17699 1.061927,-2.566318 0.26548,-2.123847 -0.442468,-3.141528 -0.442471,-1.548638 -2.743303,-2.079603 z"
       id="path3994" />
    <path
       style="fill:#030303;stroke:#000000;stroke-width:0.264583px;stroke-linecap:butt;stroke-linejoin:miter;stroke-opacity:1;fill-opacity:1"
       d="m 84.555726,92.918382 -0.796444,1.150416 0.442471,2.477826 1.37165,0.309726 0.796444,-1.681379 -0.486715,-1.946862 -1.061923,-0.619456 z"
       id="path3996" />
    <path
       style="fill:#f8fcf8;stroke:#000000;stroke-width:0.264583px;stroke-linecap:butt;stroke-linejoin:miter;stroke-opacity:1;fill-opacity:1"
       d="m 81.679681,92.785641 1.106173,1.150418 0.309726,1.637134 -1.283157,0.973431 z"
       id="path3998" />
    <path
       style="fill:#030303;stroke:#000000;stroke-width:0.264583px;stroke-linecap:butt;stroke-linejoin:miter;stroke-opacity:1;fill-opacity:1"
       d="m 103.1394,90.175076 2.30084,-3.185774 2.8318,-2.345081 3.93797,-0.707951 3.4955,0.884939 1.72563,0.929182 1.01767,2.079604 1.06193,-0.309729 1.01767,-0.30973 0.57521,-1.194662 -0.57521,1.991106 -1.15041,0.752197 -0.79645,0.530963 -0.26548,1.150416 -0.88493,1.327407 -0.17699,-1.283158 -0.22124,0.663702 0.0443,-2.212342 -3.584,-2.610565 -4.29194,0.0885 -2.52207,1.061923 -1.90261,1.592887 z"
       id="path4000" />
    <path
       style="fill:#ffffff;stroke:#000000;stroke-width:0.264583px;stroke-linecap:butt;stroke-linejoin:miter;stroke-opacity:1;fill-opacity:1"
       d="m 103.1394,90.175074 -0.0442,3.760985 1.90261,3.937969 3.27427,2.256592 2.30083,0.26548 2.12385,-0.973432 3.09728,-4.026463 1.63714,-3.628242 -0.66371,-4.424685 -5.88483,-1.858367 -3.45125,1.061923 -1.99111,0.442466 z"
       id="path4002" />
    <path
       style="fill:#55bc56;stroke:#000000;stroke-width:0.264583px;stroke-linecap:butt;stroke-linejoin:miter;stroke-opacity:1;fill-opacity:1"
       d="m 108.31629,86.856564 -1.37166,1.504391 -0.75219,2.699057 -0.0443,3.23002 0.92918,3.495503 1.59289,1.415899 1.90261,0.176988 2.12385,-0.973431 1.90262,-2.96454 0.39822,-4.645919 -0.39822,-1.991109 -1.59289,-1.725625 -0.97343,-1.106173 -2.83175,0.442473 z"
       id="path4004" />
    <path
       style="fill:#030303;stroke:#000000;stroke-width:0.264583px;stroke-linecap:butt;stroke-linejoin:miter;stroke-opacity:1;fill-opacity:1"
       d="m 109.68794,90.883027 -0.70795,1.37165 0.0442,2.035355 0.7522,1.238914 0.79644,0.398222 1.06193,-0.884939 0.53096,-1.460145 -0.13274,-2.256589 -0.48671,-0.486717 -1.06193,-0.132739 z"
       id="path4006" />
    <path
       style="fill:#f8fcf8;stroke:#000000;stroke-width:0.264583px;stroke-linecap:butt;stroke-linejoin:miter;stroke-opacity:1;fill-opacity:1"
       d="m 106.19244,91.06001 1.19466,0.442473 0.79644,1.460145 -0.0442,0.796444 -0.48672,0.796443 -0.57521,0.398222 -0.92923,-0.663707 z"
       id="path4008" />
    <path
       style="fill:#f7ece7;fill-opacity:1;stroke:#000000;stroke-width:0.264583px;stroke-linecap:butt;stroke-linejoin:miter;stroke-opacity:1"
       d="m 82.588091,120.08285 -3.334232,-1.39604 -2.149673,0.41418 -1.709947,3.71741 3.49236,2.5839 2.020842,-2.08996 z"
       id="path4010" />
    <path
       style="fill:#1e3d6e;fill-opacity:1;stroke:#000000;stroke-width:0.264583px;stroke-linecap:butt;stroke-linejoin:miter;stroke-opacity:1"
       d="m -71.974989,57.827081 0.0626,0.81347 1.00119,0.62575 -1.06377,22.52682 8.19726,-0.81347 2.31526,6.445171 -1.37664,0.31287 1.56436,3.00358 7.57152,-1.12634 -0.93862,-3.87962 -0.43802,-0.12515 -5.94458,-19.085221 -4.19249,-4.44279 -2.56556,-1.75208 -0.31287,-1.18892 -1.81466,-1.18891 z"
       id="path3978"
       inkscape:export-filename="C:\Users\ASUS\player1_climb2.png"
       inkscape:export-xdpi="96.199997"
       inkscape:export-ydpi="96.199997" />
    <path
       style="fill:#ffffff;fill-opacity:1;stroke:#000000;stroke-width:0.264583px;stroke-linecap:butt;stroke-linejoin:miter;stroke-opacity:1"
       d="m -26.805724,150.98148 9.250748,0.15813 -1.30972,15.59425 -5.569137,-0.62575 z"
       id="path4016"
       sodipodi:nodetypes="ccccc"
       inkscape:export-filename="C:\Users\ASUS\player1_climb2.png"
       inkscape:export-xdpi="96.199997"
       inkscape:export-ydpi="96.199997" />
    <path
       style="fill:#ffffff;fill-opacity:1;stroke:#000000;stroke-width:0.264583px;stroke-linecap:butt;stroke-linejoin:miter;stroke-opacity:1"
       d="m -47.597892,154.39664 9.31005,-0.65229 -1.32766,15.12347 -5.56913,0.37545 z"
       id="path4018"
       sodipodi:nodetypes="ccccc"
       inkscape:export-filename="C:\Users\ASUS\player1_climb2.png"
       inkscape:export-xdpi="96.199997"
       inkscape:export-ydpi="96.199997" />
    <path
       style="fill:#1e3d6e;fill-opacity:1;stroke:#000000;stroke-width:0.264583px;stroke-linecap:butt;stroke-linejoin:miter;stroke-opacity:1"
       d="m 100.36949,113.44756 -1.752092,1.18891 c -1.11882,6.61741 -0.799197,14.26228 -1.188915,21.40048 l -3.629319,0.2503 -3.191298,-1.00118 2.479439,-10.94603 -6.038096,5.64674 -8.16261,-4.58448 2.907231,-4.19312 2.404057,1.45361 -0.391358,1.06226 3.233089,0.55278 6.258952,-6.26234 1.877232,-1.62693 0.375449,-0.81347 3.316449,-2.6907 1.57103,-0.44147 z"
       id="path4028"
       sodipodi:nodetypes="cccccccccccccccccc" />
    <path
       style="fill:#1e3d6e;fill-opacity:1;stroke:#000000;stroke-width:0.264583px;stroke-linecap:butt;stroke-linejoin:miter;stroke-opacity:1"
       d="m 106.87723,111.50774 0.0626,0.81347 1.00119,0.62575 -1.06377,22.52682 8.19726,-0.81347 0.84401,-0.59964 -3.18838,-10.52246 -1.97327,-10.7164 -1.81466,-1.18891 z"
       id="path4030"
       sodipodi:nodetypes="cccccccccc" />
    <path
       style="fill:#1e3d6e;fill-opacity:1;stroke:#000000;stroke-width:0.264583px;stroke-linecap:butt;stroke-linejoin:miter;stroke-opacity:1"
       d="m 110.75687,112.82181 7.65689,8.21964 -9.28077,6.54127 -3.34375,-3.58234 2.55987,-1.4294 0.70961,0.63253 3.93674,-2.69121 -1.15456,-1.43093 z"
       id="path4032"
       sodipodi:nodetypes="ccccccccc" />
    <path
       style="fill:#f7ece7;fill-opacity:1;stroke:#000000;stroke-width:0.264583px;stroke-linecap:butt;stroke-linejoin:miter;stroke-opacity:1"
       d="m 105.31402,123.52516 -2.91207,2.15017 0.068,1.56663 1.4235,-0.48664 -2.05405,2.19856 3.06454,1.85152 0.67417,0.33065 3.25097,-0.81082 0.30391,-2.74251 z"
       id="path4012" />
    <path
       style="fill:#f7ece7;fill-opacity:1;stroke:#000000;stroke-width:0.264583px;stroke-linecap:butt;stroke-linejoin:miter;stroke-opacity:1"
       d="m -38.682534,54.104153 -3.700979,7.00733 5.702647,10.73439 4.696296,-0.55908 -3.763879,-8.71656 3.070985,-6.20417 -2.313175,-0.25953 z"
       id="path4058"
       sodipodi:nodetypes="cccccccc"
       inkscape:export-filename="C:\Users\ASUS\player1_climb2.png"
       inkscape:export-xdpi="96.199997"
       inkscape:export-ydpi="96.199997" />
    <path
       style="fill:#ffffff;fill-opacity:1;stroke:#000000;stroke-width:0.264583px;stroke-linecap:butt;stroke-linejoin:miter;stroke-opacity:1"
       d="m -40.602514,57.700013 6.187185,2.33377 -1.33312,2.53645 4.080144,8.43983 -5.012561,0.83581 -5.702647,-10.73439 z"
       id="path4060"
       sodipodi:nodetypes="ccccccc"
       inkscape:export-filename="C:\Users\ASUS\player1_climb2.png"
       inkscape:export-xdpi="96.199997"
       inkscape:export-ydpi="96.199997" />
    <path
       style="fill:#f7ece7;fill-opacity:1;stroke:#000000;stroke-width:0.264583px;stroke-linecap:butt;stroke-linejoin:miter;stroke-opacity:1"
       d="m -14.86446,56.295183 -4.65765,6.09371 3.86699,10.82647 5.15123,-0.53031 -3.48687,-9.8393 6.2825995,-6.48892 z"
       id="path4062"
       sodipodi:nodetypes="ccccccc"
       inkscape:export-filename="C:\Users\ASUS\player1_climb2.png"
       inkscape:export-xdpi="96.199997"
       inkscape:export-ydpi="96.199997" />
    <path
       style="fill:#ffffff;fill-opacity:1;stroke:#000000;stroke-width:0.264583px;stroke-linecap:butt;stroke-linejoin:miter;stroke-opacity:1"
       d="m -16.77752,58.875143 5.14358,1.62134 -2.35682,2.34927 3.48687,9.8393 -5.15123,0.53031 -3.86699,-10.82647 z"
       id="path4064"
       sodipodi:nodetypes="ccccccc"
       inkscape:export-filename="C:\Users\ASUS\player1_climb2.png"
       inkscape:export-xdpi="96.199997"
       inkscape:export-ydpi="96.199997" />
    <path
       style="fill:#000000;fill-opacity:1;stroke:#000000;stroke-width:0.264583px;stroke-linecap:butt;stroke-linejoin:miter;stroke-opacity:1"
       d="m 66.829558,87.166269 2.690704,4.567939 0.43802,12.389752 -5.005958,20.89988 -0.375447,8.38498 3.441597,8.00953 -0.250299,-6.06972 1.25149,-3.31645 1.626936,6.1323 6.257452,7.75924 3.003573,2.31525 -1.001191,-2.4404 0.250299,-2.87843 0.750892,-1.00119 5.491479,5.22761 -0.735815,-6.20355 7.622589,7.17856 3.969425,-6.0568 7.132076,5.32875 7.1482,-7.21151 5.25059,5.12285 5.95232,-8.20593 1.91822,8.75911 8.87606,-8.3192 -3.94219,7.75923 -0.75089,0.62575 5.94457,-3.9422 2.94101,-4.12991 0.50059,1.25149 -2.81585,5.13111 -0.31287,0.31287 4.31764,-3.94219 2.87843,-5.56913 0.93861,-3.62932 -1.18891,7.19606 2.56555,-4.69309 0.68832,-8.0721 -2.06496,-13.39095 -0.68832,-13.703811 3.1913,-18.334326 -0.68832,-5.131109 L 137.16329,53.626339 113.88558,40.79857 84.475565,45.867102 65.828367,63.075089 62.324194,82.348032 Z"
       id="path3972"
       sodipodi:nodetypes="ccccccccccccccccccccccccccccccccccccccccccccccc" />
  </g>
</svg>
