<?xml version="1.0" encoding="UTF-8" standalone="no"?>
<svg
   xmlns:dc="http://purl.org/dc/elements/1.1/"
   xmlns:cc="http://creativecommons.org/ns#"
   xmlns:rdf="http://www.w3.org/1999/02/22-rdf-syntax-ns#"
   xmlns:svg="http://www.w3.org/2000/svg"
   xmlns="http://www.w3.org/2000/svg"
   xmlns:sodipodi="http://sodipodi.sourceforge.net/DTD/sodipodi-0.dtd"
   xmlns:inkscape="http://www.inkscape.org/namespaces/inkscape"
   width="210mm"
   height="297mm"
   viewBox="0 0 210 297"
   version="1.1"
   id="svg873"
   inkscape:version="1.0.2 (e86c870879, 2021-01-15, custom)"
   sodipodi:docname="elf.svg"
   inkscape:export-filename="C:\Users\ASUS\belf.png"
   inkscape:export-xdpi="96"
   inkscape:export-ydpi="96">
  <defs
     id="defs867" />
  <sodipodi:namedview
     id="base"
     pagecolor="#ffffff"
     bordercolor="#666666"
     borderopacity="1.0"
     inkscape:pageopacity="0.0"
     inkscape:pageshadow="2"
     inkscape:zoom="0.73940797"
     inkscape:cx="396.85039"
     inkscape:cy="561.25984"
     inkscape:document-units="mm"
     inkscape:current-layer="layer1"
     inkscape:document-rotation="0"
     showgrid="false"
     inkscape:window-width="1431"
     inkscape:window-height="1030"
     inkscape:window-x="160"
     inkscape:window-y="0"
     inkscape:window-maximized="0" />
  <metadata
     id="metadata870">
    <rdf:RDF>
      <cc:Work
         rdf:about="">
        <dc:format>image/svg+xml</dc:format>
        <dc:type
           rdf:resource="http://purl.org/dc/dcmitype/StillImage" />
        <dc:title></dc:title>
      </cc:Work>
    </rdf:RDF>
  </metadata>
  <g
     inkscape:label="Layer 1"
     inkscape:groupmode="layer"
     id="layer1">
    <path
       style="fill:#ffffff;stroke:#000000;stroke-width:0.264583px;stroke-linecap:butt;stroke-linejoin:miter;stroke-opacity:1;fill-opacity:1"
       d="m 78.619047,269.11906 3.779761,-17.38692 30.238092,-24.19048 10.58334,-16.63095 9.82738,-21.92262 -5.29167,-3.77976 1.51191,-4.53571 0.75595,-11.33929 -7.55953,-3.02381 5.29167,-5.29166 -7.55952,-7.55953 9.07143,-13.60714 -5.29167,-7.55953 5.29167,-12.09523 V 111.125 l 2.26785,-5.29167 -9.82738,-26.458331 -6.04762,2.267857 L 99.02976,57.452381 80.130951,43.089284 79.374999,21.922619 85.422617,39.309524 127,71.815475 l -1.51191,3.779763 17.38691,28.726192 -5.29167,12.85119 2.26786,17.3869 -4.53572,6.04762 8.31548,12.09524 -3.02381,6.80357 6.04762,9.07143 -5.29167,9.82738 1.51191,12.09524 12.09524,38.55357 18.89881,18.89881 -4.53572,17.38689 -46.86905,10.58333 -24.190472,1.51191 z"
       id="path1450"
       inkscape:export-filename="C:\Users\ASUS\welf.png"
       inkscape:export-xdpi="96"
       inkscape:export-ydpi="96" />
    <path
       style="fill:#000000;fill-opacity:1;stroke:none;stroke-width:0.264583px;stroke-linecap:butt;stroke-linejoin:miter;stroke-opacity:1"
       d="m 85.526247,253.50514 35.413213,1.06908 37.81864,-6.01356 7.61718,-5.7463 4.14268,3.74178 -4.00905,16.70434 -43.69856,9.88897 42.09495,-11.49259 -1.87089,-10.15624 -16.43708,4.67722 -25.52424,3.74177 -27.715444,-0.58545 0.999055,12.99436 -12.572226,-4.65808 z"
       id="path1452"
       sodipodi:nodetypes="ccccccccccccccc" />
    <path
       style="fill:#000000;stroke:none;stroke-width:0.264583px;stroke-linecap:butt;stroke-linejoin:miter;stroke-opacity:1;fill-opacity:1"
       d="m 133.10022,196.0422 -8.95353,21.64883 -18.30796,21.51519 -15.100726,9.75534 17.773426,-8.15172 14.56619,-16.97161 8.95353,-16.57071 z"
       id="path1454" />
    <path
       style="fill:#000000;stroke:none;stroke-width:0.264583px;stroke-linecap:butt;stroke-linejoin:miter;stroke-opacity:1;fill-opacity:1"
       d="m 143.65737,202.5903 7.88445,26.19241 -9.88897,-24.18789 z"
       id="path1456" />
    <path
       style="fill:#000000;stroke:none;stroke-width:0.264583px;stroke-linecap:butt;stroke-linejoin:miter;stroke-opacity:1;fill-opacity:1"
       d="m 124.68123,151.80909 6.28084,-9.88897 1.46998,2.93996 z"
       id="path1458" />
    <path
       style="fill:#000000;stroke:none;stroke-width:0.264583px;stroke-linecap:butt;stroke-linejoin:miter;stroke-opacity:1;fill-opacity:1"
       d="m 138.98015,163.30168 4.14268,5.07812 -2.93996,6.01357 1.33634,-6.01357 z"
       id="path1460" />
    <path
       style="fill:#000000;stroke:none;stroke-width:0.264583px;stroke-linecap:butt;stroke-linejoin:miter;stroke-opacity:1;fill-opacity:1"
       d="m 125.75031,165.3062 5.24517,0.7684 3.57473,-2.63929 -3.57755,4.09395 z"
       id="path1462"
       sodipodi:nodetypes="ccccc" />
    <path
       style="fill:#000000;stroke:none;stroke-width:0.264583px;stroke-linecap:butt;stroke-linejoin:miter;stroke-opacity:1;fill-opacity:1"
       d="m 138.44561,148.23436 3.0736,4.04245 -2.27179,6.94901 -3.8754,0.16704 z"
       id="path1464" />
    <path
       style="fill:#000000;stroke:none;stroke-width:0.264583px;stroke-linecap:butt;stroke-linejoin:miter;stroke-opacity:1;fill-opacity:1"
       d="m 129.99322,121.77468 -4.64381,10.32328 1.83747,2.43884 -0.70158,-3.14042 4.27631,-8.92012 4.51018,-0.73499 z"
       id="path1466" />
    <path
       style="fill:#000000;stroke:none;stroke-width:0.264583px;stroke-linecap:butt;stroke-linejoin:miter;stroke-opacity:1;fill-opacity:1"
       d="m 137.6104,128.18915 1.10248,5.98015 -3.74177,4.71063 3.00678,-4.91108 z"
       id="path1468" />
    <path
       style="fill:#000000;stroke:none;stroke-width:0.264583px;stroke-linecap:butt;stroke-linejoin:miter;stroke-opacity:1;fill-opacity:1"
       d="m 124.01306,80.815623 2.20497,-1.570209 14.46597,24.221296 -2.87315,7.71741 -6.48129,-1.1693 2.13816,-4.9779 -3.34087,-7.349908 1.40316,-3.006783 -6.11379,-13.563928 -1.5702,0.567947 z"
       id="path1470" />
    <path
       style="fill:#000000;stroke:none;stroke-width:0.264583px;stroke-linecap:butt;stroke-linejoin:miter;stroke-opacity:1;fill-opacity:1"
       d="m 115.79452,80.247674 2.10475,-6.11379 8.11831,-2.27179 -7.34991,2.672694 z"
       id="path1472" />
    <path
       style="fill:#000000;stroke:none;stroke-width:0.264583px;stroke-linecap:butt;stroke-linejoin:miter;stroke-opacity:1;fill-opacity:1"
       d="m 99.891984,56.62773 2.338606,-2.706102 12.59508,10.122831 -3.50791,3.775183 z"
       id="path1474" />
    <path
       style="fill:#000000;stroke:#000000;stroke-width:0.264583px;stroke-linecap:butt;stroke-linejoin:miter;stroke-opacity:1;fill-opacity:1"
       d="m 81.060225,31.326769 0.57521,10.53075 7.964432,6.327299 2.12385,-2.610564 -8.274161,-6.106065 z"
       id="path1476" />
    <path
       style="fill:#000000;fill-opacity:1;stroke:none;stroke-width:0.264583px;stroke-linecap:butt;stroke-linejoin:miter;stroke-opacity:1"
       d="m 92.166185,50.175927 2.300835,-2.654811 1.267056,0.962693 -2.300836,2.691467 z"
       id="path1478"
       sodipodi:nodetypes="ccccc" />
    <path
       style="fill:#000000;fill-opacity:1;stroke:none;stroke-width:0.264583px;stroke-linecap:butt;stroke-linejoin:miter;stroke-opacity:1"
       d="m 94.229684,51.758076 2.36341,-2.730344 0.926958,0.838465 -2.300835,2.566319 z"
       id="path1480"
       sodipodi:nodetypes="ccccc" />
    <path
       style="fill:#000000;fill-opacity:1;stroke:none;stroke-width:0.264583px;stroke-linecap:butt;stroke-linejoin:miter;stroke-opacity:1"
       d="m 95.971415,53.007725 2.19938,-2.571688 1.074886,0.890306 z"
       id="path1482"
       sodipodi:nodetypes="cccc" />
    <path
       style="fill:#000000;fill-opacity:1;stroke:none;stroke-width:0.264583px;stroke-linecap:butt;stroke-linejoin:miter;stroke-opacity:1"
       d="m 92.829887,46.193709 0.929185,0.752198 -2.368779,2.754038 z"
       id="path1484"
       sodipodi:nodetypes="cccc" />
  </g>
</svg>
