<?xml version="1.0" encoding="UTF-8" standalone="no"?>
<svg
   xmlns:dc="http://purl.org/dc/elements/1.1/"
   xmlns:cc="http://creativecommons.org/ns#"
   xmlns:rdf="http://www.w3.org/1999/02/22-rdf-syntax-ns#"
   xmlns:svg="http://www.w3.org/2000/svg"
   xmlns="http://www.w3.org/2000/svg"
   xmlns:sodipodi="http://sodipodi.sourceforge.net/DTD/sodipodi-0.dtd"
   xmlns:inkscape="http://www.inkscape.org/namespaces/inkscape"
   width="210mm"
   height="297mm"
   viewBox="0 0 210 297"
   version="1.1"
   id="svg3503"
   inkscape:version="1.0.2 (e86c870879, 2021-01-15, custom)"
   sodipodi:docname="horse.svg"
   inkscape:export-filename="C:\Users\ASUS\wknight.png"
   inkscape:export-xdpi="96"
   inkscape:export-ydpi="96">
  <defs
     id="defs3497" />
  <sodipodi:namedview
     id="base"
     pagecolor="#ffffff"
     bordercolor="#666666"
     borderopacity="1.0"
     inkscape:pageopacity="0.0"
     inkscape:pageshadow="2"
     inkscape:zoom="1.0570734"
     inkscape:cx="396.85039"
     inkscape:cy="439.73791"
     inkscape:document-units="mm"
     inkscape:current-layer="layer1"
     inkscape:document-rotation="0"
     showgrid="false"
     inkscape:window-width="1431"
     inkscape:window-height="1030"
     inkscape:window-x="32"
     inkscape:window-y="0"
     inkscape:window-maximized="0" />
  <metadata
     id="metadata3500">
    <rdf:RDF>
      <cc:Work
         rdf:about="">
        <dc:format>image/svg+xml</dc:format>
        <dc:type
           rdf:resource="http://purl.org/dc/dcmitype/StillImage" />
        <dc:title></dc:title>
      </cc:Work>
    </rdf:RDF>
  </metadata>
  <g
     inkscape:label="Layer 1"
     inkscape:groupmode="layer"
     id="layer1">
    <path
       style="fill:#ffffff;stroke:#000000;stroke-width:0.264583px;stroke-linecap:butt;stroke-linejoin:miter;stroke-opacity:1;fill-opacity:1"
       d="m 129.89299,66.817382 9.6217,-6.414468 -16.30344,-8.819896 -22.98518,-1.603616 -13.898014,3.741772 5.87993,2.939965 -10.423511,1.336347 -8.819896,8.285356 12.828939,0.53454 -3.474506,3.207234 -11.759858,0.534538 -3.741772,10.69078 12.294396,-2.672693 -1.870884,4.009043 -10.423512,4.009041 -2.939965,9.354433 8.819893,-3.207234 3.741774,-3.207234 0.267269,4.009043 -10.423511,8.552627 1.069078,9.88897 9.621702,-8.28535 0.534541,5.34539 -8.285356,6.68173 1.069078,12.02713 10.156243,-9.35443 v 4.00904 l -6.68174,8.8199 2.672696,17.37252 4.276313,-9.35444 2.405425,-0.53454 -3.474503,14.43256 -2.405425,4.27631 6.414468,7.21628 0.267269,8.01808 4.009043,2.40543 44.901276,-1.06908 3.47451,-3.4745 -3.74178,-3.74178 4.81086,-6.1472 4.27631,-2.93996 0.26727,-8.55263 -7.48355,-11.49259 -13.63075,-13.36347 -8.55262,-10.69078 -2.6727,-7.75082 8.01809,6.68174 7.48355,1.06908 7.21627,8.01808 h 9.88898 l 6.41447,-13.0962 -7.75082,-10.690785 -2.93997,-8.285355 -0.8018,-9.087162 z"
       id="path4080" />
    <path
       style="fill:#ffffff;stroke:#000000;stroke-width:0.264583px;stroke-linecap:butt;stroke-linejoin:miter;stroke-opacity:1;fill-opacity:1"
       d="m 92.207986,179.33785 34.210494,-1.33635 2.93997,1.60362 v 6.41447 l 8.01809,10.95805 1.60361,3.4745 H 85.526247 l -7.750816,0.26727 0.534541,-5.34539 8.819893,-8.01808 1.870887,-6.94901 z"
       id="path4082" />
    <path
       style="fill:#ffffff;stroke:#000000;stroke-width:0.264583px;stroke-linecap:butt;stroke-linejoin:miter;stroke-opacity:1;fill-opacity:1"
       d="m 75.971364,204.12709 -5.846521,2.90656 -3.574732,4.64381 -1.069079,4.27632 87.397138,0.53453 -0.26727,-4.54358 -5.87993,-5.61266 -5.14494,-2.00452 z"
       id="path4084"
       sodipodi:nodetypes="ccccccccc" />
    <path
       style="fill:#000000;stroke:#000000;stroke-width:0.264583px;stroke-linecap:butt;stroke-linejoin:miter;stroke-opacity:1;fill-opacity:1"
       d="m 99.618592,55.065554 7.759238,2.252681 5.25626,4.004767 1.75208,4.505365 -7.50894,-4.755663 -5.25626,-3.504171 1.75209,6.00715 4.75566,4.505365 -7.50894,-4.255066 z"
       id="path4086" />
    <path
       style="fill:#000000;stroke:#000000;stroke-width:0.264583px;stroke-linecap:butt;stroke-linejoin:miter;stroke-opacity:1;fill-opacity:1"
       d="m 101.37068,83.84982 0.25029,4.505365 -5.005954,6.00715 -3.754469,9.261025 2.252681,9.01073 3.253875,10.26221 -6.007151,-13.01549 -2.502982,-12.014304 4.255066,-9.261025 z"
       id="path4088" />
    <path
       style="fill:#000000;stroke:#000000;stroke-width:0.264583px;stroke-linecap:butt;stroke-linejoin:miter;stroke-opacity:1;fill-opacity:1"
       d="m 125.39928,83.599522 7.50894,3.003576 -0.50059,2.50298 h -5.00596 z"
       id="path4090" />
    <path
       style="fill:#000000;stroke:#000000;stroke-width:0.264583px;stroke-linecap:butt;stroke-linejoin:miter;stroke-opacity:1;fill-opacity:1"
       d="m 102.87246,106.62694 3.25388,3.75447 5.75685,9.76162 15.01788,16.26936 5.25626,10.26222 v 9.76162 l -4.50536,-1.00119 -0.7509,-10.76281 -4.00477,-9.26103 -12.51489,-14.01669 -4.75567,-6.75804 z"
       id="path4092" />
    <path
       style="fill:#000000;stroke:#000000;stroke-width:0.264583px;stroke-linecap:butt;stroke-linejoin:miter;stroke-opacity:1;fill-opacity:1"
       d="m 111.38259,180.08939 0.31288,3.37903 14.07926,-0.37546 0.14315,-2.90135 z"
       id="path4094"
       sodipodi:nodetypes="ccccc" />
    <path
       style="fill:#000000;stroke:#000000;stroke-width:0.264583px;stroke-linecap:butt;stroke-linejoin:miter;stroke-opacity:1;fill-opacity:1"
       d="m 123.02145,207.55959 1.31407,-1.68951 16.89511,-0.31287 1.18891,1.12634 0.5006,1.43921 -1.87723,0.93862 -0.18773,0.75089 -15.89392,0.37545 -0.93862,-1.68951 h -0.50059 z"
       id="path4096" />
  </g>
</svg>
