<?xml version="1.0" encoding="UTF-8" standalone="no"?>
<svg
   xmlns:dc="http://purl.org/dc/elements/1.1/"
   xmlns:cc="http://creativecommons.org/ns#"
   xmlns:rdf="http://www.w3.org/1999/02/22-rdf-syntax-ns#"
   xmlns:svg="http://www.w3.org/2000/svg"
   xmlns="http://www.w3.org/2000/svg"
   xmlns:sodipodi="http://sodipodi.sourceforge.net/DTD/sodipodi-0.dtd"
   xmlns:inkscape="http://www.inkscape.org/namespaces/inkscape"
   width="210mm"
   height="297mm"
   viewBox="0 0 210 297"
   version="1.1"
   id="svg1492"
   inkscape:version="1.0.2 (e86c870879, 2021-01-15, custom)"
   sodipodi:docname="orc.svg"
   inkscape:export-filename="C:\Users\ASUS\borc.png"
   inkscape:export-xdpi="96.21833"
   inkscape:export-ydpi="96.21833">
  <defs
     id="defs1486" />
  <sodipodi:namedview
     id="base"
     pagecolor="#ffffff"
     bordercolor="#666666"
     borderopacity="1.0"
     inkscape:pageopacity="0.0"
     inkscape:pageshadow="2"
     inkscape:zoom="1.0570734"
     inkscape:cx="396.85039"
     inkscape:cy="658.72363"
     inkscape:document-units="mm"
     inkscape:current-layer="layer1"
     inkscape:document-rotation="0"
     showgrid="false"
     inkscape:window-width="1431"
     inkscape:window-height="1030"
     inkscape:window-x="160"
     inkscape:window-y="0"
     inkscape:window-maximized="0" />
  <metadata
     id="metadata1489">
    <rdf:RDF>
      <cc:Work
         rdf:about="">
        <dc:format>image/svg+xml</dc:format>
        <dc:type
           rdf:resource="http://purl.org/dc/dcmitype/StillImage" />
        <dc:title></dc:title>
      </cc:Work>
    </rdf:RDF>
  </metadata>
  <g
     inkscape:label="Layer 1"
     inkscape:groupmode="layer"
     id="layer1">
    <path
       style="fill:#000000;fill-opacity:1;stroke:#000000;stroke-width:0.264583px;stroke-linecap:butt;stroke-linejoin:miter;stroke-opacity:1"
       d="m 33.141422,119.46948 4.810851,10.15624 2.939964,9.88897 -4.009043,18.17433 -10.958049,-4.27632 2.138156,5.07813 5.879928,6.68174 0.53454,16.30344 7.483546,18.97613 23.519717,5.87993 9.087165,18.70887 19.243405,23.51972 10.423508,3.4745 38.75408,0.26727 22.45064,-40.3577 10.95806,-50.24667 -16.03617,-33.67596 3.4745,-0.26727 -6.1472,-6.94901 -10.15624,-1.87088 -6.94901,-8.55263 2.67269,-10.690777 6.41447,-8.285356 -3.4745,-13.096205 -1.33635,12.027127 -3.4745,4.810853 -4.54358,-6.68174 -12.2944,-13.363474 -16.30344,12.294396 -4.27632,10.156243 -6.414463,-7.483547 v -9.621702 l -3.474503,13.630746 4.543581,7.483546 -16.036171,11.22532 -15.501633,4.54358 -9.354434,-21.11429 -2.138156,7.21628 5.34539,18.17432 -7.750815,6.41447 -4.810852,4.81085 -10.690781,-12.02713 z"
       id="path2069"
       sodipodi:nodetypes="ccccccccccccccccccccccccccccccccccccccccccc" />
    <path
       style="fill:#ffffff;fill-opacity:1;stroke:none;stroke-width:0.264583px;stroke-linecap:butt;stroke-linejoin:miter;stroke-opacity:1"
       d="m 157.48559,121.04832 5.77422,6.49322 -3.23003,-0.36503 -1.75327,-1.20573 -0.90153,-4.61274 z"
       id="path2071"
       sodipodi:nodetypes="cccccc" />
    <path
       style="fill:#ffffff;stroke:none;stroke-width:0.264583px;stroke-linecap:butt;stroke-linejoin:miter;stroke-opacity:1;fill-opacity:1"
       d="m 35.08775,121.4576 2.345084,0.44247 10.132528,11.85815 0.265481,3.09728 -2.035355,2.65481 -3.628242,0.26548 -2.876045,-11.37144 z"
       id="path2073" />
    <path
       style="fill:#ffffff;stroke:none;stroke-width:0.264583px;stroke-linecap:butt;stroke-linejoin:miter;stroke-opacity:1;fill-opacity:1"
       d="m 28.185242,155.57192 9.778553,3.76098 0.796443,3.14153 -1.460145,2.43357 -2.079601,0.0443 -6.238807,-6.63703 z"
       id="path2075" />
    <path
       style="fill:#ffffff;stroke:none;stroke-width:0.264583px;stroke-linecap:butt;stroke-linejoin:miter;stroke-opacity:1;fill-opacity:1"
       d="m 58.184605,100.17486 8.362653,17.91998 0.132742,1.94686 -0.398222,1.59288 -1.769875,1.01768 -2.610561,-0.6637 -5.265375,-18.05271 z"
       id="path2077" />
    <path
       style="fill:#ffffff;stroke:none;stroke-width:0.264583px;stroke-linecap:butt;stroke-linejoin:miter;stroke-opacity:1;fill-opacity:1"
       d="m 100.13062,102.16597 1.99111,0.7522 2.30083,-0.88494 -1.63713,-0.88494 -0.17699,-1.150412 0.7522,0.884932 1.72563,0.35398 0.39822,-1.902617 -0.57521,-1.061923 -0.48672,0.796443 -7.56621,-8.318407 -0.132741,-4.513178 -1.725626,7.30073 z"
       id="path2079" />
    <path
       style="fill:#ffffff;stroke:none;stroke-width:0.264583px;stroke-linecap:butt;stroke-linejoin:miter;stroke-opacity:1;fill-opacity:1"
       d="m 146.54556,83.228322 2.12385,8.052927 -6.3273,8.495395 -2.38933,-0.265483 -0.48672,-2.831798 2.47783,-0.707949 3.80523,-5.088389 z"
       id="path2081"
       sodipodi:nodetypes="cccccccc" />
    <path
       style="fill:#ffffff;stroke:none;stroke-width:0.264583px;stroke-linecap:butt;stroke-linejoin:miter;stroke-opacity:1;fill-opacity:1"
       d="m 95.113228,141.16805 -4.255064,-1.75208 -8.009535,6.00715 -2.50298,9.26103 7.008342,-8.25984 5.756854,-2.75328 3.754469,1.0012 0.250299,-2.50298 z"
       id="path2083" />
    <path
       style="fill:#ffffff;stroke:none;stroke-width:0.264583px;stroke-linecap:butt;stroke-linejoin:miter;stroke-opacity:1;fill-opacity:1"
       d="m 84.100119,162.69368 3.50417,-8.51013 7.258643,-4.75566 4.505362,0.2503 2.252676,-3.25388 -4.755658,-1.75208 -3.754469,-1.0012 -5.756852,2.75328 -7.008344,8.25984 z"
       id="path2085" />
    <path
       style="fill:#ffffff;stroke:none;stroke-width:0.264583px;stroke-linecap:butt;stroke-linejoin:miter;stroke-opacity:1;fill-opacity:1"
       d="m 108.37902,145.67342 2.50298,4.00477 -11.764005,15.76877 0.250299,-15.76877 2.252676,-3.25388 z"
       id="path2087" />
    <path
       style="fill:#ffffff;stroke:none;stroke-width:0.264583px;stroke-linecap:butt;stroke-linejoin:miter;stroke-opacity:1;fill-opacity:1"
       d="m 116.38856,145.67342 2.25268,-4.00477 6.25745,3.50417 -2.75328,13.2658 1.25149,2.50297 -3.75447,-0.75089 -3.25387,-11.26341 z"
       id="path2089" />
    <path
       style="fill:#ffffff;stroke:none;stroke-width:0.264583px;stroke-linecap:butt;stroke-linejoin:miter;stroke-opacity:1;fill-opacity:1"
       d="m 130.65554,139.91656 1.00119,-4.00476 3.50417,-0.5006 4.00477,6.75805 2.00238,6.50775 -3.00357,-0.5006 -3.00358,-5.00596 z"
       id="path2091" />
    <path
       style="fill:#ffffff;stroke:none;stroke-width:0.264583px;stroke-linecap:butt;stroke-linejoin:miter;stroke-opacity:1;fill-opacity:1"
       d="m 140.66746,129.40405 -0.5006,-4.25507 4.25507,-1.00119 5.25626,5.00596 0.2503,7.25864 -4.50537,-4.25506 z"
       id="path2093" />
    <path
       style="fill:#ffffff;stroke:none;stroke-width:0.264583px;stroke-linecap:butt;stroke-linejoin:miter;stroke-opacity:1;fill-opacity:1"
       d="m 89.356376,133.65912 5.005959,-5.00596 5.756855,0.50059 0.2503,4.50537 -4.755665,0.25029 -4.755663,5.50656 z"
       id="path2095" />
    <path
       style="fill:#ffffff;stroke:none;stroke-width:0.264583px;stroke-linecap:butt;stroke-linejoin:miter;stroke-opacity:1;fill-opacity:1"
       d="m 83.84982,176.58522 -2.878426,0.75089 -3.316449,3.25388 0.438021,6.00715 1.126342,-4.75566 3.253874,-2.94101 2.315255,1.06377 1.72682,-1.78047 -2.039692,-0.65993 c 0,0 0,0 1.995445,-0.57898 l -0.681381,-0.60991 z"
       id="path2101"
       sodipodi:nodetypes="cccccccccccc" />
    <path
       style="fill:#ffffff;stroke:none;stroke-width:0.264583px;stroke-linecap:butt;stroke-linejoin:miter;stroke-opacity:1;fill-opacity:1"
       d="m 79.219308,181.84148 1.439214,5.25625 0.312872,-3.69189 3.754469,-1.25149 1.939809,1.25149 1.25149,-1.50179 0.438023,-1.87723 -1.564362,-1.18892 -2.002388,1.12634 -2.315255,-1.06377 z"
       id="path2103" />
    <path
       style="fill:#ffffff;stroke:none;stroke-width:0.264583px;stroke-linecap:butt;stroke-linejoin:miter;stroke-opacity:1;fill-opacity:1"
       d="m 82.59833,218.51013 -1.251489,19.02264 2.502979,9.51133 1.752087,-12.2646 2.753278,-8.25984 z"
       id="path2105" />
    <path
       style="fill:#ffffff;stroke:none;stroke-width:0.264583px;stroke-linecap:butt;stroke-linejoin:miter;stroke-opacity:1;fill-opacity:1"
       d="m 91.546483,211.00119 3.253872,6.06973 0.312873,7.32121 -3.066148,4.75566 -1.251492,19.46067 -1.376638,-2.12753 -1.063765,-19.96127 1.001191,-9.0733 z"
       id="path2107" />
    <path
       style="fill:#ffffff;stroke:none;stroke-width:0.264583px;stroke-linecap:butt;stroke-linejoin:miter;stroke-opacity:1;fill-opacity:1"
       d="m 104.4994,215.94457 2.75328,6.57033 -0.62574,3.75446 -5.75686,9.94935 -0.68832,8.13468 -0.87604,1.12635 -0.250299,-11.63886 2.064959,-8.38498 z"
       id="path2109" />
    <path
       style="fill:#ffffff;stroke:none;stroke-width:0.264583px;stroke-linecap:butt;stroke-linejoin:miter;stroke-opacity:1;fill-opacity:1"
       d="m 98.241955,103.68593 1.564362,2.00239 1.501783,8.00953 -1.752082,3.6919 -0.500597,-1.37664 -0.06257,3.56675 1.314059,0.31287 3.75447,-3.81705 0.43802,-9.88677 -4.505358,-2.6907 z"
       id="path2111" />
    <path
       style="fill:#ffffff;stroke:none;stroke-width:0.264583px;stroke-linecap:butt;stroke-linejoin:miter;stroke-opacity:1;fill-opacity:1"
       d="m 117.7652,107.6907 -1.06377,3.50417 1.00119,4.50537 4.75566,-0.62575 3.89795,0.0101 5.5508,0.86596 1.37664,-4.1925 -1.50179,-5.75685 -0.81347,4.00477 -0.12515,2.56555 -0.75089,2.06496 -3.75447,-0.31287 -4.31764,-0.12515 -3.06615,0.68832 3e-5,-4.31764 z"
       id="path2113"
       sodipodi:nodetypes="cccccccccccccccc" />
    <path
       style="fill:#ffffff;stroke:none;stroke-width:0.264583px;stroke-linecap:butt;stroke-linejoin:miter;stroke-opacity:1;fill-opacity:1"
       d="m 116.38856,126.52562 -4.12992,3.12873 -0.5006,6.3826 3.06615,-5.56913 4.31764,-2.06496 -0.56317,-1.68951 z"
       id="path2115" />
    <path
       style="fill:#ffffff;stroke:none;stroke-width:0.264583px;stroke-linecap:butt;stroke-linejoin:miter;stroke-opacity:1;fill-opacity:1"
       d="m 127.33909,125.08641 4.19249,0.93862 2.12754,3.94219 -1.50179,4.31764 -1.37664,-5.06853 -4.38021,-2.06496 -0.62575,-1.56436 z"
       id="path2117" />
    <path
       style="fill:#ffffff;stroke:none;stroke-width:0.264583px;stroke-linecap:butt;stroke-linejoin:miter;stroke-opacity:1;fill-opacity:1"
       d="m 48.808105,171.45411 -6.257449,-5.00596 2.753276,-14.76758 7.508941,-12.2646 11.69903,-16.76371 14.582257,1.49553 7.25864,-7.75923 4.505364,4.75566 -2.753278,6.00715 v -4.75566 l -2.502979,-1.0012 -6.758046,6.50775 -12.767596,-2.68445 -17.017862,29.46634 -2.502982,10.51251 z"
       id="path2119"
       sodipodi:nodetypes="cccccccccccccccc" />
    <path
       style="fill:#ffffff;stroke:none;stroke-width:0.264583px;stroke-linecap:butt;stroke-linejoin:miter;stroke-opacity:1;fill-opacity:1"
       d="m 104.62455,192.22884 34.29082,4.00477 29.28487,-31.28725 -29.28487,22.27652 -29.28486,1.75209 z"
       id="path2121" />
    <path
       style="fill:#ffffff;stroke:none;stroke-width:0.264583px;stroke-linecap:butt;stroke-linejoin:miter;stroke-opacity:1;fill-opacity:1"
       d="m 111.6329,214.75566 12.51489,8.25983 24.7795,0.7509 h 8.51013 l -3.75447,4.75566 -33.53992,0.25029 -7.50894,-6.75804 z"
       id="path2123" />
    <path
       style="fill:#ffffff;stroke:none;stroke-width:0.264583px;stroke-linecap:butt;stroke-linejoin:miter;stroke-opacity:1;fill-opacity:1"
       d="m 95.613825,188.72467 15.017875,15.76877 19.27295,11.76401 13.01549,4.50536 -32.28844,-18.77235 -13.01549,-14.01668 z"
       id="path2125" />
    <path
       style="fill:#ffffff;stroke:none;stroke-width:0.264583px;stroke-linecap:butt;stroke-linejoin:miter;stroke-opacity:1;fill-opacity:1"
       d="m 113.63528,238.03337 -1.75209,3.75447 6.50775,3.50417 1.75209,-2.00238 6.50774,-0.2503 0.2503,-3.00358 2.25268,-3.00357 5.00596,3.00357 0.7509,2.75328 h 11.5137 l -0.50059,-4.25506 4.50536,-3.00358 6.00715,5.25626 1.00119,4.25506 0.7509,-8.25983 -9.01073,-4.25506 -6.00715,3.50417 -1.00119,4.75566 -5.00596,-1.00119 -5.00596,-4.50537 -4.50536,-0.25029 -4.00477,3.50417 -1.25149,2.25268 -4.00477,0.50059 -1.50179,1.50179 -2.50298,-1.75208 z"
       id="path2127" />
    <path
       style="fill:#ffffff;stroke:none;stroke-width:0.264583px;stroke-linecap:butt;stroke-linejoin:miter;stroke-opacity:1;fill-opacity:1"
       d="m 115.38736,165.44696 v 10.76281 l 5.00596,8.51013 -2.50298,-9.26102 0.7509,-9.76162 z"
       id="path2129" />
    <path
       style="fill:#ffffff;stroke:none;stroke-width:0.264583px;stroke-linecap:butt;stroke-linejoin:miter;stroke-opacity:1;fill-opacity:1"
       d="m 123.89749,176.96067 6.50775,3.50417 21.27533,-12.2646 -22.27652,15.26817 z"
       id="path2131" />
  </g>
</svg>
