<?xml version="1.0" encoding="UTF-8" standalone="no"?>
<svg
   xmlns:dc="http://purl.org/dc/elements/1.1/"
   xmlns:cc="http://creativecommons.org/ns#"
   xmlns:rdf="http://www.w3.org/1999/02/22-rdf-syntax-ns#"
   xmlns:svg="http://www.w3.org/2000/svg"
   xmlns="http://www.w3.org/2000/svg"
   xmlns:xlink="http://www.w3.org/1999/xlink"
   xmlns:sodipodi="http://sodipodi.sourceforge.net/DTD/sodipodi-0.dtd"
   xmlns:inkscape="http://www.inkscape.org/namespaces/inkscape"
   width="210mm"
   height="297mm"
   viewBox="0 0 210 297"
   version="1.1"
   id="svg865"
   sodipodi:docname="rook.svg"
   inkscape:export-filename="C:\Users\ASUS\prook5.png"
   inkscape:export-xdpi="98.411362"
   inkscape:export-ydpi="98.411362"
   inkscape:version="1.0.2 (e86c870879, 2021-01-15, custom)">
  <defs
     id="defs859">
    <linearGradient
       inkscape:collect="always"
       id="linearGradient2103">
      <stop
         style="stop-color:#000000;stop-opacity:1;"
         offset="0"
         id="stop2099" />
      <stop
         style="stop-color:#000000;stop-opacity:0;"
         offset="1"
         id="stop2101" />
    </linearGradient>
    <radialGradient
       inkscape:collect="always"
       xlink:href="#linearGradient2103"
       id="radialGradient2105"
       cx="106.2113"
       cy="142.11526"
       fx="106.2113"
       fy="142.11526"
       r="42.844648"
       gradientTransform="matrix(1,0,0,2.0410755,0,-147.95272)"
       gradientUnits="userSpaceOnUse" />
  </defs>
  <sodipodi:namedview
     id="base"
     pagecolor="#ffffff"
     bordercolor="#666666"
     borderopacity="1.0"
     inkscape:pageopacity="0.0"
     inkscape:pageshadow="2"
     inkscape:zoom="0.73940797"
     inkscape:cx="396.85039"
     inkscape:cy="561.25984"
     inkscape:document-units="mm"
     inkscape:current-layer="layer1"
     inkscape:document-rotation="0"
     showgrid="false"
     inkscape:window-width="1431"
     inkscape:window-height="1030"
     inkscape:window-x="96"
     inkscape:window-y="0"
     inkscape:window-maximized="0" />
  <metadata
     id="metadata862">
    <rdf:RDF>
      <cc:Work
         rdf:about="">
        <dc:format>image/svg+xml</dc:format>
        <dc:type
           rdf:resource="http://purl.org/dc/dcmitype/StillImage" />
      </cc:Work>
    </rdf:RDF>
  </metadata>
  <g
     inkscape:label="Layer 1"
     inkscape:groupmode="layer"
     id="layer1">
    <path
       style="fill:#0f116d;stroke:url(#radialGradient2105);stroke-width:0.264583px;stroke-linecap:butt;stroke-linejoin:miter;stroke-opacity:1;fill-opacity:1"
       d="m 76.162201,56.318451 8.504464,1.13393 2.456845,9.827379 13.60714,-0.377976 -0.18898,-10.016368 7.74851,-2.078868 4.34673,2.078867 v 9.827382 l 12.09523,-0.188989 2.83482,-8.504465 9.82738,-1.700892 -6.2366,30.238096 1.5119,2.267858 0.18899,6.425594 -3.02381,2.267857 -6.99256,0.377976 3.02381,54.050598 5.66964,10.58333 6.04762,7.9375 -1.32292,9.4494 -6.2366,4.15774 0.75595,2.45685 5.48065,1.5119 0.75596,3.77976 -3.96875,2.45685 10.96131,17.3869 4.91369,2.45685 -0.18899,14.93006 -85.044642,0.37798 -0.188989,-14.74108 6.425594,-3.21279 10.583333,-17.19792 -4.535712,-1.88988 0.377976,-3.77976 5.291666,-1.51191 0.188987,-2.83482 -5.291666,-3.77976 -1.511904,-9.44941 11.717261,-16.25297 3.401786,-57.452382 -7.559525,0.377975 -2.83482,-2.645831 -0.377977,-4.157739 1.889883,-3.590774 2.267857,-0.377976 z"
       id="path1442"
       sodipodi:nodetypes="cccccccccccccccccccccccccccccccccccccccccccccc" />
    <path
       style="fill:#8c101c;stroke:none;stroke-width:0.264583px;stroke-linecap:butt;stroke-linejoin:miter;stroke-opacity:1;fill-opacity:1"
       d="M 80.036457,59.153273 85.753346,86.698287 98.179315,86.367558 97.61235,68.035714 86.131322,68.366443 83.816219,59.531249 Z"
       id="path1444"
       sodipodi:nodetypes="ccccccc" />
    <path
       style="fill:#8c101c;stroke:none;stroke-width:0.264583px;stroke-linecap:butt;stroke-linejoin:miter;stroke-opacity:1;fill-opacity:1"
       d="m 105.5026,86.745534 23.85975,-0.283483 6.37835,-26.694566 -7.27604,0.519716 -2.59859,7.701267 -6.56734,0.803198 -15.0718,17.859375 z"
       id="path1446" />
    <path
       style="fill:#8c101c;stroke:none;stroke-width:0.264583px;stroke-linecap:butt;stroke-linejoin:miter;stroke-opacity:1;fill-opacity:1"
       d="m 82.635044,88.540922 0.04725,2.173362 33.261906,-0.04725 -0.0472,-2.409597 z"
       id="path1448" />
    <path
       style="fill:#8c101c;stroke:none;stroke-width:0.264583px;stroke-linecap:butt;stroke-linejoin:miter;stroke-opacity:1;fill-opacity:1"
       d="m 131.29948,89.060638 0.51972,6.094868 -2.88207,1.559152 -23.24554,0.708705 -14.504834,0.14174 -0.141743,-1.27567 31.797247,-4.724702 z"
       id="path1450" />
    <path
       style="fill:#8c101c;stroke:none;stroke-width:0.264583px;stroke-linecap:butt;stroke-linejoin:miter;stroke-opacity:1;fill-opacity:1"
       d="m 91.942707,99.171502 -0.09449,3.590778 15.449773,1.18117 8.40997,5.43341 2.88207,10.2526 2.50409,23.1038 0.47247,7.89025 3.87426,11.19754 7.98475,8.40998 -1.22843,8.50446 -8.45722,1.13393 -24.190469,0.42522 -22.442336,-1.93713 6.236607,4.44122 46.207588,-0.0945 5.33891,-2.88207 1.41741,-9.49665 -8.50446,-10.06362 -3.9215,-10.2526 -1.46466,-30.89955 -0.75595,-11.67002 -0.51972,-9.449405 z"
       id="path1452" />
    <path
       style="fill:#8c101c;stroke:none;stroke-width:0.264583px;stroke-linecap:butt;stroke-linejoin:miter;stroke-opacity:1;fill-opacity:1"
       d="m 82.776784,183.97991 -0.09449,3.40179 46.585566,-0.0945 -0.42523,-3.68527 z"
       id="path1454" />
    <path
       style="fill:#8c101c;stroke:none;stroke-width:0.264583px;stroke-linecap:butt;stroke-linejoin:miter;stroke-opacity:1;fill-opacity:1"
       d="m 109.99107,188.23214 0.0945,1.22842 -30.946797,-0.0472 1.700893,-1.46466 z"
       id="path1456" />
    <path
       style="fill:#8c101c;stroke:none;stroke-width:0.264583px;stroke-linecap:butt;stroke-linejoin:miter;stroke-opacity:1;fill-opacity:1"
       d="m 82.020832,194.27976 -2.36235,4.39397 37.561388,-0.28348 11.43377,1.98438 6.04762,3.9215 5.24442,9.02418 -30.99404,-0.28348 -14.504839,-0.18899 15.922249,1.08668 21.16666,0.85045 13.41816,0.94494 2.03162,4.48847 -0.61421,6.37834 -81.831847,0.0472 0.18899,1.93713 82.682287,-0.33073 0.85045,-8.26823 -1.27567,-5.33891 -4.44122,-2.50409 -11.10305,-18.19011 z"
       id="path1458" />
    <path
       style="fill:#8c101c;stroke:none;stroke-width:0.264583px;stroke-linecap:butt;stroke-linejoin:miter;stroke-opacity:1;fill-opacity:1"
       d="m 93.123884,105.21912 8.268226,0.42523 -0.94494,32.50595 -3.779761,25.46614 -0.377976,4.63021 4.677457,2.59859 14.03237,4.34672 -21.780883,0.33073 -12.945684,-2.26786 -1.984375,-2.3151 11.339285,-16.25298 z"
       id="path1460" />
  </g>
</svg>
