<?xml version="1.0" encoding="UTF-8" standalone="no"?>
<!-- Created with Inkscape (http://www.inkscape.org/) -->

<svg
   width="210mm"
   height="297mm"
   viewBox="0 0 210 297"
   version="1.1"
   id="svg31557"
   inkscape:version="1.1 (c68e22c387, 2021-05-23)"
   sodipodi:docname="sf.svg"
   xmlns:inkscape="http://www.inkscape.org/namespaces/inkscape"
   xmlns:sodipodi="http://sodipodi.sourceforge.net/DTD/sodipodi-0.dtd"
   xmlns="http://www.w3.org/2000/svg"
   xmlns:svg="http://www.w3.org/2000/svg">
  <sodipodi:namedview
     id="namedview31559"
     pagecolor="#ffffff"
     bordercolor="#666666"
     borderopacity="1.0"
     inkscape:pageshadow="2"
     inkscape:pageopacity="0.0"
     inkscape:pagecheckerboard="0"
     inkscape:document-units="mm"
     showgrid="false"
     inkscape:zoom="1.3416246"
     inkscape:cx="431.93902"
     inkscape:cy="510.94771"
     inkscape:window-width="1920"
     inkscape:window-height="1001"
     inkscape:window-x="-9"
     inkscape:window-y="-9"
     inkscape:window-maximized="1"
     inkscape:current-layer="layer1" />
  <defs
     id="defs31554" />
  <g
     inkscape:label="Layer 1"
     inkscape:groupmode="layer"
     id="layer1">
    <rect
       style="opacity:1;fill:none;fill-opacity:1;stroke:#000000;stroke-width:0.478304;stroke-opacity:1"
       id="rect220350"
       width="142.99979"
       height="142.99979"
       x="22.668436"
       y="56.391544"
       inkscape:export-filename="C:\Users\abhis\rect220350.png"
       inkscape:export-xdpi="90.942787"
       inkscape:export-ydpi="90.942787" />
    <path
       style="fill:#3aa4ef;stroke:#000000;stroke-width:0.264583px;stroke-linecap:butt;stroke-linejoin:miter;stroke-opacity:1;fill-opacity:1"
       d="m 69.306323,105.28426 7.948612,3.76513 6.978891,13.09833 -6.69992,7.47051 -10.528495,-14.78169 z"
       id="path89146" />
    <path
       style="fill:#3aa4ef;stroke:none;stroke-width:0.264583px;stroke-linecap:butt;stroke-linejoin:miter;stroke-opacity:1;fill-opacity:1"
       d="m 51.447464,137.83831 13.675378,1.47158 -13.354907,21.51581 -14.395511,1.07499 -0.395353,-6.79388 z"
       id="path83934" />
    <path
       style="fill:#25347a;stroke:none;stroke-width:0.264583px;stroke-linecap:butt;stroke-linejoin:miter;stroke-opacity:1;fill-opacity:1"
       d="m 80.856573,180.15239 -4.535858,-6.06425 -1.528384,-5.17679 -0.394422,-7.74054 0.345117,-1.03535 0.246515,3.99352 0.887449,5.02889 6.16285,4.78237 2.760956,3.79631 -0.01558,1.83934 -1.364885,-2.43097 -1.232569,-1.87351 -0.419074,0.41908 -0.517678,4.14143 1.306523,1.75025 -0.02466,0.34512 z"
       id="path32170" />
    <path
       style="fill:#3aa4ef;stroke:none;stroke-width:0.264583px;stroke-linecap:butt;stroke-linejoin:miter;stroke-opacity:1;fill-opacity:1"
       d="m 42.153884,165.41085 2.563744,0.24652 2.317232,-0.24652 3.056773,0.54234 3.007471,1.52838 1.922807,1.42978 -0.640935,-5.02888 -10.40289,-2.61305 -3.451193,1.57769 z"
       id="path32144" />
    <path
       style="fill:#25347a;stroke:none;stroke-width:0.264583px;stroke-linecap:butt;stroke-linejoin:miter;stroke-opacity:1;fill-opacity:1"
       d="m 140.75946,158.31125 0.24651,1.47909 2.71166,1.52838 1.52838,0.24652 2.31724,-2.81026 0.73954,-4.09213 -2.51445,-3.74702 -1.62699,-3.00746 -0.64093,-3.10608 0.54233,-2.76096 0.19721,4.09213 1.92281,3.5005 2.81026,2.26793 1.08466,1.92281 0.0493,2.36653 0.73954,1.18327 1.62699,0.69024 -1.52838,-2.71165 -0.24652,-3.10608 1.38048,-3.79631 -0.14791,4.48655 0.59164,3.5991 1.62699,1.97212 h 1.92281 l 1.42978,-0.83815 0.39442,-5.2261 -1.33117,-2.90886 -5.2754,-3.4512 5.71912,2.41584 1.28187,0.54233 2.26793,2.71165 0.78885,1.13397 -1.23257,8.57868 -12.76943,6.21215 -9.46613,-3.94422 -0.34512,-4.73307 z"
       id="path32154" />
    <path
       style="fill:#3aa4ef;stroke:none;stroke-width:0.264583px;stroke-linecap:butt;stroke-linejoin:miter;stroke-opacity:1;fill-opacity:1"
       d="m 131.29333,159.29731 3.15537,0.49303 1.87351,-2.51444 5.07819,-3.4019 2.31723,0.19721 -2.56375,3.25399 -1.08466,1.92281 0.44373,1.72559 1.13396,0.93676 3.5498,0.54233 1.28187,0.14791 0.0479,-1.15316 -0.63953,-1.26268 -1.24304,-2.95566 -0.33465,-1.53089 4.06492,5.85382 0.81606,1.24578 2.41583,-0.24652 -0.73954,-2.26793 -1.08466,-2.90886 3.00747,2.31723 3.5991,1.52839 3.84562,-5.02889 1.13397,-1.23257 v -2.07071 l 1.03536,1.18326 1.38047,2.81026 -3.20468,7.74054 -3.99352,2.46514 -2.56375,3.94422 -1.38048,1.82421 -3.74701,0.19721 0.83815,1.62699 -10.6001,-5.81773 -7.93775,-6.85309 z"
       id="path32150" />
    <path
       style="fill:#25347a;stroke:none;stroke-width:0.264583px;stroke-linecap:butt;stroke-linejoin:miter;stroke-opacity:1;fill-opacity:1"
       d="m 138.43838,156.6713 0.34897,-2.8466 3.00747,-1.57769 h 0.98606 l -1.58838,2.7509 z"
       id="path32152" />
    <path
       style="fill:#25347a;stroke:none;stroke-width:0.264583px;stroke-linecap:butt;stroke-linejoin:miter;stroke-opacity:1;fill-opacity:1"
       d="m 114.6274,144.10339 2.95975,0.50169 1.47908,-0.59164 0.69024,-1.03535 -1.42978,3.5498 -1.52838,1.23257 z"
       id="path32156" />
    <path
       style="fill:#25347a;stroke:none;stroke-width:0.264583px;stroke-linecap:butt;stroke-linejoin:miter;stroke-opacity:1;fill-opacity:1"
       d="m 122.71464,153.18376 0.54233,-2.66235 3.5498,-2.41583 -1.8735,2.46514 1.28187,5.22609 1.33117,1.52839 0.49303,0.59163 -1.76792,-0.86204 -2.47522,-4.11376 z"
       id="path32158" />
    <path
       style="fill:#3aa4ef;stroke:none;stroke-width:0.264583px;stroke-linecap:butt;stroke-linejoin:miter;stroke-opacity:1;fill-opacity:1"
       d="m 59.963219,175.84562 0.383394,-2.64492 -0.493027,-4.09213 1.331174,-6.40937 0.788845,-3.99352 -1.676294,3.5991 -1.824205,-3.69771 2.021414,-5.02888 2.563747,-1.52839 -0.986057,-1.03536 3.451196,-4.09213 0.443724,-3.05677 3.155379,-1.57769 3.303288,0.88745 1.972112,5.02888 0.246512,2.71165 2.662351,3.00747 v 0.69024 l -0.838147,0.14791 1.281872,1.52839 1.429782,4.78237 -1.922809,-2.12002 2.021414,4.97958 0.936752,2.81026 0.542332,4.24004 0.34512,2.46514 -0.246515,6.70518 4.634463,4.97958 0.542329,1.7256 13.706176,-0.39442 4.240039,-8.92381 -3.20468,-3.79631 0.78884,-2.95817 4.88098,-1.7749 -0.78884,-2.36654 -0.0493,-1.18326 0.61629,-0.27117 7.56797,1.87351 6.31076,-1.55304 -5.71912,-12.67082 -4.94956,-6.81778 4.65374,-9.84656 v -12.22709 l -1.73789,-8.09795 -38.887606,6.91468 -21.693227,38.06176 z"
       id="path32146" />
    <path
       style="fill:#3aa4ef;stroke:none;stroke-width:0.264583px;stroke-linecap:butt;stroke-linejoin:miter;stroke-opacity:1;fill-opacity:1"
       d="m 27.215139,173.54582 -2.563745,-2.16933 v -3.84561 l 1.873506,-4.43726 4.43725,-1.97211 6.014942,-6.01494 1.774899,-6.90239 1.095658,2.68001 1.708256,-2.6844 1.18532,-5.61284 -0.592661,-3.90458 2.37064,-3.13761 0.313761,-9.65687 2.161464,-1.8477 2.405501,0.20918 -1.743117,2.78898 0.73211,2.37064 1.289904,0.5578 2.684402,-4.11376 2.510089,-2.75412 1.442805,-0.18699 -0.501523,3.81267 0.557797,2.99816 1.255046,-1.74312 -0.592662,-2.47522 -4.148616,-4.25321 -2.614676,-6.90274 -0.592662,-7.4954 1.847705,5.78715 5.020178,3.62568 9.726591,12.5853 -17.884378,16.55961 -16.176125,20.39447 z"
       id="path32138" />
    <path
       style="fill:#25347a;stroke:none;stroke-width:0.264583px;stroke-linecap:butt;stroke-linejoin:miter;stroke-opacity:1;fill-opacity:1"
       d="m 83.948504,105.9815 1.533943,-3.20733 0.06973,-1.95229 -1.255046,-2.963304 -0.697246,-1.882566 2.729302,3.812829 -0.637561,1.974321 0.383484,1.77798 1.812843,5.33393 2.196328,-1.011 -1.429356,-2.1266 0.17431,-2.78899 1.115597,1.91743 0.313759,-16.001815 2.266053,10.842186 0.03486,0.766969 2.405502,-3.067884 -1.63853,6.728434 -0.418349,0.83669 0.5578,1.81284 0.697246,0.13946 1.917427,-3.34679 2.440363,-5.926598 -0.557797,-1.708253 0.836697,-3.834858 0.697246,-3.625683 -1.080733,-2.266051 -3.17247,-3.974306 3.625683,2.719261 1.708251,2.893576 0.41835,2.823847 -0.59266,2.37064 -0.453211,1.638531 0.732111,1.81284 0.80183,0.139449 1.22018,-2.196328 1.42936,-2.370637 0.10458,-2.823851 -0.62752,-2.196327 1.28991,0.557797 1.08073,3.939445 0.17431,3.416509 0.13945,2.684399 0.87156,0.104587 2.44036,-2.928435 2.02202,-4.18348 0.80183,-3.869719 -0.31376,-2.928438 -0.59266,-3.590819 1.15046,3.033022 -0.0349,2.963299 0.48807,4.532103 0.10459,2.544951 -1.32477,3.27706 0.0955,2.753939 -0.0607,13.840528 -26.042161,1.63853 z"
       id="path32178" />
    <path
       style="fill:#3aa4ef;stroke:none;stroke-width:0.264583px;stroke-linecap:butt;stroke-linejoin:miter;stroke-opacity:1;fill-opacity:1"
       d="m 82.434262,83.420317 -1.922809,2.317231 -3.106076,12.917331 0.838147,2.415841 3.894921,-1.183271 4.190738,-0.09861 -3.056774,3.796321 0.0493,3.5498 1.824204,-2.36653 1.922809,5.12749 2.070717,0.29581 2.514441,-1.13396 2.366534,0.29581 0.640937,0.44373 2.273384,-0.41671 4.462365,-10.511019 1.44852,-3.567295 1.8735,-1.972111 -1.13396,4.733067 -0.59164,2.120028 -1.57768,2.76095 0.98605,-0.69024 -0.24651,1.42978 1.28187,-1.42978 0.7837,1.91468 -0.61012,1.53394 1.05899,0.69282 0.49303,-3.15538 4.78237,-7.592637 -2.21863,5.669827 0.24652,3.30329 1.28187,-0.69024 0.39442,2.71165 1.52659,1.04782 v -1.67339 h 0.52293 v -4.49724 l -0.90642,-3.97431 3.09697,4.06827 2.06266,-4.033406 -0.59266,3.451376 -0.48807,5.29907 0.0697,8.22752 -2.92843,7.98347 -23.044011,3.55596 L 72.13015,98.451232 77.638399,86.144827 Z"
       id="path32148" />
    <path
       style="fill:#25347a;stroke:none;stroke-width:0.264583px;stroke-linecap:butt;stroke-linejoin:miter;stroke-opacity:1;fill-opacity:1"
       d="m 54.972608,106.001 -3.74701,-3.84562 -5.12749,-2.563749 -4.338646,-0.493027 -4.634463,0.09861 5.374005,-0.986054 6.36006,0.690239 4.215407,2.120091 4.954911,4.7823 1.062278,1.74653 2.54495,0.87155 1.394495,-0.7321 0.557797,-2.38807 0.488071,-1.55138 -0.43938,-1.8044 1.429779,-2.884223 1.275654,-6.972832 1.324769,-7.425676 0.139449,-3.71284 -0.714679,-2.213758 -2.544951,-2.300915 -1.725684,-1.237612 4.566965,2.440363 1.847705,2.614676 0.592658,4.462378 -0.226605,6.623844 2.510089,-2.213759 1.481648,-2.475224 2.300915,-6.711 2.405502,-3.329353 3.45137,-1.289907 2.213758,-0.244036 -3.224765,1.411925 -2.771556,2.544951 -1.655961,4.340359 -0.03486,3.033025 -9.273381,28.430234 z"
       id="path32174" />
    <path
       style="fill:#000000;stroke:#000000;stroke-width:0.264583px;stroke-linecap:butt;stroke-linejoin:miter;stroke-opacity:1;fill-opacity:1"
       d="m 45.164157,157.08968 0.662385,-0.0523 1.429356,1.37706 -1.237615,0.10459 z"
       id="path31669" />
    <path
       style="fill:#000000;stroke:#000000;stroke-width:0.264583px;stroke-linecap:butt;stroke-linejoin:miter;stroke-opacity:1;fill-opacity:1"
       d="m 47.02929,157.40345 0.540367,-0.26147 1.045871,-0.0872 -0.226605,0.59266 -0.575228,0.54037 -0.73211,-0.48807 z"
       id="path31671" />
    <g
       id="g89652"
       style="fill:#020100;fill-opacity:1;stroke:#020100;stroke-opacity:1">
      <path
         style="fill:#020100;stroke:#020100;stroke-width:0.264583px;stroke-linecap:butt;stroke-linejoin:miter;stroke-opacity:1;fill-opacity:1"
         d="m 29.981609,176.54287 0.627523,1.22018 0.209172,0.69725 3.834857,2.75412 0.871559,0.59266 6.519257,-0.34862 1.882565,-4.14862 -1.952288,1.70825 -4.915591,0.20918 -3.869719,-5.50825 1.150456,-2.57981 0.383487,-1.53395 2.196327,-1.91742 -6.205497,2.99816 z"
         id="path31665" />
      <path
         style="fill:#020100;stroke:#020100;stroke-width:0.264583px;stroke-linecap:butt;stroke-linejoin:miter;stroke-opacity:1;fill-opacity:1"
         d="m 34.688026,174.73003 1.743114,2.64953 1.91743,0.17432 2.579812,-3.45137 -0.17431,-3.97431 -2.126604,4.70641 z"
         id="path31667" />
      <path
         style="fill:#020100;stroke:#020100;stroke-width:0.264583px;stroke-linecap:butt;stroke-linejoin:miter;stroke-opacity:1;fill-opacity:1"
         d="m 78.475119,168.48967 0.766972,1.5688 0.17431,1.25505 1.499082,3.55596 -1.289908,-0.45321 -0.697246,0.17431 -1.568807,-1.53394 -0.104584,-1.25505 -0.174313,-0.20917 -0.139449,-0.87156 h 0.348623 l -0.174313,-1.35963 0.697249,0.38348 0.209172,0.34863 0.313761,-0.0697 z"
         id="path31675" />
      <path
         style="fill:#020100;stroke:#020100;stroke-width:0.264583px;stroke-linecap:butt;stroke-linejoin:miter;stroke-opacity:1;fill-opacity:1"
         d="m 81.577867,178.87865 0.836694,-2.44037 1.150459,1.84771 0.522933,0.83669 -0.732107,1.46422 -1.499082,-1.28991 z"
         id="path31677" />
      <path
         style="fill:#020100;stroke:#020100;stroke-width:0.264583px;stroke-linecap:butt;stroke-linejoin:miter;stroke-opacity:1;fill-opacity:1"
         d="m 84.785202,179.57589 0.732107,-0.13945 1.812843,1.88257 0.313761,0.94128 -0.209174,2.12661 -0.348623,0.59265 -1.987153,-1.60366 -0.522936,-1.22018 -0.174313,-2.2312 z"
         id="path31679" />
      <path
         style="fill:#020100;stroke:#020100;stroke-width:0.264583px;stroke-linecap:butt;stroke-linejoin:miter;stroke-opacity:1;fill-opacity:1"
         d="m 89.561341,183.51534 0.03486,1.67339 0.2789,0.76697 2.126602,-0.17431 1.150459,-0.66238 0.45321,-1.22019 -0.522936,-0.17431 -1.150456,-2.37064 -1.18532,-0.41835 z"
         id="path31681" />
      <path
         style="fill:#020100;stroke:#020100;stroke-width:0.264583px;stroke-linecap:butt;stroke-linejoin:miter;stroke-opacity:1;fill-opacity:1"
         d="m 83.425569,172.77774 6.170633,5.15962 -0.104587,2.82385 -0.522933,1.88257 -2.056879,-3.27706 -2.893573,-4.0789 -0.90642,-1.5688 -0.06973,-0.73211 0.313762,-0.48807 z"
         id="path31683" />
      <path
         style="fill:#020100;stroke:#020100;stroke-width:0.264583px;stroke-linecap:butt;stroke-linejoin:miter;stroke-opacity:1;fill-opacity:1"
         d="m 82.798048,163.88784 4.218342,4.21834 v 0.62753 l 1.917428,2.68439 0.73211,1.22019 -1.533943,1.2899 -1.603666,-1.11559 0.06972,1.70825 -0.801833,-0.90642 h -0.488072 l -3.27706,-3.34678 -0.383487,-1.25504 -0.383485,-0.0697 0.104588,-2.57981 0.766971,-2.16147 z"
         id="path31687" />
      <path
         style="fill:#020100;stroke:#020100;stroke-width:0.264583px;stroke-linecap:butt;stroke-linejoin:miter;stroke-opacity:1;fill-opacity:1"
         d="m 93.326473,176.40342 2.649537,-3.78256 0.627523,0.15688 2.457794,-2.14404 1.167893,-1.20275 -2.35321,5.07247 -1.377064,0.33119 -0.836697,0.78441 -1.202748,0.87155 z"
         id="path31697" />
      <path
         style="fill:#020100;stroke:#020100;stroke-width:0.264583px;stroke-linecap:butt;stroke-linejoin:miter;stroke-opacity:1;fill-opacity:1"
         d="m 97.178761,170.11077 -0.01744,0.92385 2.562381,-1.96972 1.516518,-2.61468 -0.80183,-0.43578 -2.10918,1.9 0.01744,0.80184 z"
         id="path31699" />
      <path
         style="fill:#020100;stroke:#020100;stroke-width:0.264583px;stroke-linecap:butt;stroke-linejoin:miter;stroke-opacity:1;fill-opacity:1"
         d="m 93.291611,174.39883 1.987153,-2.59724 0.505505,-0.31376 0.06972,-3.76513 -0.383484,0.17431 -1.255046,1.39449 -1.568804,2.49266 -0.05229,1.04587 0.278898,0.41835 z"
         id="path31701" />
      <path
         style="fill:#020100;stroke:#020100;stroke-width:0.264583px;stroke-linecap:butt;stroke-linejoin:miter;stroke-opacity:1;fill-opacity:1"
         d="m 93.413629,165.56123 -0.784402,2.61468 1.115594,-0.50551 0.418349,-0.5055 -0.784402,2.03945 v 0.57523 l 1.655961,-2.64954 1.307337,-2.16147 0.540367,-1.6211 -1.812843,-0.47064 -0.662384,2.37064 z"
         id="path31703" />
      <path
         style="fill:#020100;stroke:#020100;stroke-width:0.264583px;stroke-linecap:butt;stroke-linejoin:miter;stroke-opacity:1;fill-opacity:1"
         d="m 85.691622,161.62179 0.923851,0.5578 0.610092,0.10459 0.104587,0.52293 3.852288,2.6844 0.209174,6.60641 -2.562383,-3.67798 -2.144033,-2.64953 -1.028438,-0.31376 z"
         id="path31705" />
      <path
         style="fill:#020100;stroke:#020100;stroke-width:0.264583px;stroke-linecap:butt;stroke-linejoin:miter;stroke-opacity:1;fill-opacity:1"
         d="m 88.18428,157.14198 0.592659,-0.0349 3.625683,1.60366 1.777979,2.19633 0.05229,0.52294 -1.51651,0.97614 -0.209174,1.42936 -1.499082,-1.60367 -0.976145,-0.41835 -0.557798,-0.85412 -0.03486,-1.09817 z"
         id="path31707" />
      <path
         style="fill:#020100;stroke:#020100;stroke-width:0.264583px;stroke-linecap:butt;stroke-linejoin:miter;stroke-opacity:1;fill-opacity:1"
         d="m 91.722807,156.65391 1.150456,-0.12202 0.575228,0.34862 1.551373,0.69725 -0.278897,0.41835 -0.261466,1.02844 -1.568808,-0.69725 z"
         id="path31709" />
      <path
         style="fill:#020100;stroke:#020100;stroke-width:0.264583px;stroke-linecap:butt;stroke-linejoin:miter;stroke-opacity:1;fill-opacity:1"
         d="m 80.375116,158.29244 0.766972,-1.63853 0.191743,-0.85413 1.655961,0.40092 1.08073,1.55137 -0.06972,2.10917 0.592659,1.08073 h 0.45321 l -0.139449,1.69083 -1.882565,-2.24862 0.331192,0.95871 1.255043,1.65596 0.29633,1.28991 -2.475227,-2.75413 -0.366054,-0.55779 -0.05229,-0.80184 z"
         id="path31711" />
      <path
         style="fill:#020100;stroke:#020100;stroke-width:0.264583px;stroke-linecap:butt;stroke-linejoin:miter;stroke-opacity:1;fill-opacity:1"
         d="m 102.96887,165.97784 0.8135,-0.51768 0.61629,1.67629 0.78884,0.78885 -1.06001,0.81349 -2.26793,0.88745 -0.19721,-1.03536 1.03536,-1.0107 z"
         id="path31713" />
    </g>
    <g
       id="g99020"
       style="fill:#040200;fill-opacity:1;stroke:#000000;stroke-opacity:1">
      <path
         style="fill:#040200;stroke:#000000;stroke-width:0.264583px;stroke-linecap:butt;stroke-linejoin:miter;stroke-opacity:1;fill-opacity:1"
         d="m 90.223725,172.15021 2.266053,2.85872 0.104587,0.59266 -1.359633,2.82385 -0.697245,1.08073 -0.801833,-3.38165 0.17431,-2.33577 z"
         id="path31685" />
      <path
         style="fill:#040200;stroke:#000000;stroke-width:0.264583px;stroke-linecap:butt;stroke-linejoin:miter;stroke-opacity:1;fill-opacity:1"
         d="m 93.012711,178.1814 0.627523,-0.10459 0.418349,0.41835 -0.06973,1.28991 0.697249,-0.34863 v -0.90642 l 0.871556,-0.24403 v 1.04587 l -1.080731,2.23118 -1.220181,0.20918 -1.359633,-1.35963 z"
         id="path31689" />
      <path
         style="fill:#040200;stroke:#000000;stroke-width:0.264583px;stroke-linecap:butt;stroke-linejoin:miter;stroke-opacity:1;fill-opacity:1"
         d="m 95.5228,180.65662 0.348623,-0.24403 0.348623,-0.24404 0.03486,1.22018 -0.313761,0.0349 z"
         id="path31693" />
      <path
         style="fill:#040200;stroke:#000000;stroke-width:0.264583px;stroke-linecap:butt;stroke-linejoin:miter;stroke-opacity:1;fill-opacity:1"
         d="m 96.220046,177.10067 1.743117,-2.05688 0.941285,-0.2789 0.801833,-1.53394 0.557799,-0.41835 -0.0349,2.57981 -1.185324,0.90642 -1.324769,0.62752 z"
         id="path31695" />
      <path
         style="fill:#040200;fill-opacity:1;stroke:#000000;stroke-width:0.264583px;stroke-linecap:butt;stroke-linejoin:miter;stroke-opacity:1"
         d="m 94.33748,185.50249 4.950452,-0.0697 0.592661,-1.5688 V 182.1906 H 98.79986 l 0.906421,-0.41835 1.185319,0.0349 1.22018,-1.67339 0.38349,-1.46422 -0.5578,-1.01101 -0.5578,0.2789 -1.8477,2.6844 -0.209174,-0.10458 2.196324,-3.38165 -1.533939,-0.69725 -3.695409,2.9633 0.697245,0.5578 -0.278897,0.83669 2.370638,0.24404 -1.324769,0.48807 -0.17431,0.94129 -2.056879,0.94128 -0.627523,1.22018 z"
         id="path31691" />
      <path
         style="fill:#040200;stroke:#000000;stroke-width:0.264583px;stroke-linecap:butt;stroke-linejoin:miter;stroke-opacity:1;fill-opacity:1"
         d="m 99.764193,158.90289 0.591627,-1.20792 0.8135,-0.88745 0.27117,0.8628 0.0493,1.13396 -1.20792,0.36977 z"
         id="path31715" />
    </g>
    <path
       style="fill:none;stroke:#000000;stroke-width:0.264583px;stroke-linecap:butt;stroke-linejoin:miter;stroke-opacity:1"
       d="m 94.464141,130.03611 0.764194,0.81349 0.862801,1.7749 1.947457,1.8242 0.640938,0.074 1.183266,2.46514 -0.9121,-0.7642 -0.02466,3.05678 -1.676297,-2.76096 -0.493027,-1.70094 -1.972112,-2.29258 -0.0493,-1.38048 z"
       id="path31717" />
    <path
       style="fill:none;stroke:#000000;stroke-width:0.264583px;stroke-linecap:butt;stroke-linejoin:miter;stroke-opacity:1"
       d="m 94.464141,135.06499 1.774902,2.98282 0.714891,0.73954 0.468376,2.21862 -3.204681,2.09537 3.278635,0.24652 0.221863,0.46837 -0.542332,0.88745 -1.45443,0.17256 -0.862801,0.34512 -0.912101,-0.83814 -1.133965,0.0986 0.07395,-2.83491 0.14791,-0.54233 -1.725599,-2.66235 0.07396,-2.29258 0.714888,1.50374 2.317232,1.50373 z"
       id="path31719" />
    <path
       style="fill:none;stroke:#000000;stroke-width:0.264583px;stroke-linecap:butt;stroke-linejoin:miter;stroke-opacity:1"
       d="m 93.995765,147.61255 2.169324,-0.83815 2.514442,-0.46838 v 2.12002 l -1.23257,2.76096 -1.873506,0.66559 -1.553038,-3.18003 z"
       id="path31721" />
    <path
       style="fill:none;stroke:#000000;stroke-width:0.264583px;stroke-linecap:butt;stroke-linejoin:miter;stroke-opacity:1"
       d="m 76.0249,140.01992 v -1.30652 l 1.355826,1.50373 -0.02466,1.20792 z"
       id="path31723" />
    <path
       style="fill:none;stroke:#000000;stroke-width:0.264583px;stroke-linecap:butt;stroke-linejoin:miter;stroke-opacity:1"
       d="m 76.345366,141.10458 1.306526,1.42978 0.566981,2.29258 1.232569,1.8242 1.084662,1.92281 0.147908,0.61629 h -0.320466 l -0.936755,-1.47909 -0.0493,-0.32046 -0.961403,-0.88746 0.197209,-0.46837 -0.394422,-0.44373 h -0.566981 l -0.961406,-1.40513 0.34512,-0.49302 -0.221861,-0.34512 -0.295817,-0.24652 -0.02466,-1.06001 -0.221863,-0.27116 z"
       id="path31725" />
    <path
       style="fill:none;stroke:#000000;stroke-width:0.264583px;stroke-linecap:butt;stroke-linejoin:miter;stroke-opacity:1"
       d="m 72.179282,128.18725 1.898158,3.22933 1.602341,1.45444 -2.292581,-0.91211 0.07395,-0.76419 z"
       id="path31727" />
    <path
       style="fill:none;stroke:#000000;stroke-width:0.264583px;stroke-linecap:butt;stroke-linejoin:miter;stroke-opacity:1"
       d="m 69.516931,133.16683 0.739542,-0.51768 0.591635,-0.36977 0.493027,0.0986 -0.788844,-1.79955 -0.542333,-0.46838 0.665589,1.7749 -0.936752,0.27116 z"
       id="path31729" />
    <path
       style="fill:none;stroke:#000000;stroke-width:0.264583px;stroke-linecap:butt;stroke-linejoin:miter;stroke-opacity:1"
       d="m 80.782619,123.92256 1.281872,1.45443 0.172559,2.14467 -0.665586,-1.52839 -0.714891,-1.38047 z"
       id="path31731" />
    <g
       id="g127927"
       style="fill:#000000;fill-opacity:1;stroke:#000000;stroke-opacity:1">
      <path
         style="fill:#000000;stroke:#000000;stroke-width:0.264583px;stroke-linecap:butt;stroke-linejoin:miter;stroke-opacity:1;fill-opacity:1"
         d="m 90.026891,111.44895 1.405131,-1.42978 1.281871,-0.17256 -1.133964,0.64094 -1.010706,1.15861 -0.616286,0.0247 z"
         id="path31733" />
      <path
         style="fill:#000000;stroke:#000000;stroke-width:0.264583px;stroke-linecap:butt;stroke-linejoin:miter;stroke-opacity:1;fill-opacity:1"
         d="m 83.444968,110.5615 v -0.78884 l 1.257223,-2.48979 0.34512,-0.41908 0.468376,2.24328 0.936752,2.39119 -1.503736,-0.14791 z"
         id="path31735" />
      <path
         style="fill:#000000;stroke:#000000;stroke-width:0.264583px;stroke-linecap:butt;stroke-linejoin:miter;stroke-opacity:1;fill-opacity:1"
         d="m 78.243524,103.58516 2.884215,-1.7749 2.859561,-0.0493 -2.144673,1.13396 -0.640934,3.64841 0.221861,1.89815 -2.317231,-2.58839 z"
         id="path31737" />
      <path
         style="fill:#000000;stroke:#000000;stroke-width:0.264583px;stroke-linecap:butt;stroke-linejoin:miter;stroke-opacity:1;fill-opacity:1"
         d="m 91.641558,113.06362 0.517679,-0.46838 0.0493,-0.89977 0.234188,-0.36977 0.09861,1.62699 -0.751869,0.51768 z"
         id="path31739" />
      <path
         style="fill:#000000;stroke:#000000;stroke-width:0.264583px;stroke-linecap:butt;stroke-linejoin:miter;stroke-opacity:1;fill-opacity:1"
         d="m 95.598106,117.32831 0.887452,1.41746 0.110929,0.98605 -0.369771,0.56698 0.160234,0.44373 0.369771,-0.0863 0.01233,2.05839 0.320469,-0.22186 0.02466,2.94584 -0.295818,0.0739 -0.221863,0.44373 -0.110929,0.70256 -0.14791,-0.46837 -1.207919,0.44372 0.369771,-1.12164 0.197213,-0.33279 0.0493,-0.46838 -0.530005,-0.11093 -0.924428,-0.46837 1.343502,-3.18003 0.03697,-0.43141 -0.271163,-0.24651 z"
         id="path31741" />
      <path
         style="fill:#000000;stroke:#000000;stroke-width:0.264583px;stroke-linecap:butt;stroke-linejoin:miter;stroke-opacity:1;fill-opacity:1"
         d="m 98.730135,126.16679 -0.209175,1.55138 0.348626,0.55779 v 1.18532 l 0.714677,-1.35963 0.06972,-0.66238 0.766967,-0.26147 0.45321,0.80183 0.24404,-0.20917 0.97614,-1.46422 0.40092,-0.36605 0.0523,0.94128 0.31376,0.5578 1.63853,-3.59082 0.24404,0.87156 0.31376,-0.0872 0.0174,-1.22018 h 0.24403 l 0.13945,0.81927 0.20918,-0.47065 1.42935,-1.89999 0.0872,-0.45321 -1.55138,0.0523 -0.74954,1.0633 -0.0872,-0.61009 -1.53395,1.02844 0.0349,0.71467 -0.90643,0.80184 -0.0872,-0.99358 -1.39449,1.83028 -0.29633,0.15688 0.33119,-1.42936 z"
         id="path31743" />
      <path
         style="fill:#000000;stroke:#000000;stroke-width:0.264583px;stroke-linecap:butt;stroke-linejoin:miter;stroke-opacity:1;fill-opacity:1"
         d="m 98.839765,121.58068 0.62861,-0.67792 0.0493,1.01071 2.933525,-2.26793 0.037,0.93675 0.22186,0.0986 -0.0493,-0.89977 3.14305,-0.0616 1.06001,-0.73955 0.0616,-1.15861 2.12002,-0.44373 2.09537,-2.94584 -0.0616,-0.57931 -0.56698,0.92443 -0.65326,-0.0616 -0.39442,-0.44372 0.0247,-0.41908 0.29581,-0.0863 0.55466,-0.55465 -0.98606,0.64093 -2.76095,0.22187 -0.27117,0.1479 1.19559,-1.59001 0.45606,-0.29582 -0.29582,0.61629 2.52677,-1.54071 0.0739,-1.06001 2.14467,-2.61305 0.17256,-4.51121 -0.24651,-2.34188 -0.34512,-1.528387 0.61628,1.639317 0.78885,2.18165 0.4807,-1.56536 1.50373,-2.403514 -0.82582,2.403514 -0.0493,2.92119 -0.17256,4.72074 -0.8135,2.74863 0.12326,0.88745 -1.30652,2.95817 -2.157,2.83491 -4.25237,2.12002 -0.24651,0.35744 -0.13558,-0.35744 -1.70095,1.3435 -1.2942,-0.0123 0.16024,-0.61628 -0.22186,0.0123 -0.0986,0.20953 -1.33118,0.73954 -0.13558,-0.76419 -2.033741,1.26955 z"
         id="path31745" />
      <path
         style="fill:#000000;stroke:#000000;stroke-width:0.264583px;stroke-linecap:butt;stroke-linejoin:miter;stroke-opacity:1;fill-opacity:1"
         d="m 103.40169,96.620964 -0.85413,0.488074 -1.15046,1.760548 -3.95687,2.771554 -1.080733,3.79999 -0.331192,3.66055 -0.435779,0.13945 0.244036,0.90642 0.08716,1.30734 -0.209174,0.0349 0.104587,1.46422 0.400915,1.28991 0.679818,1.04586 0.156879,1.46422 0.06973,0.61009 v 0.88899 l 0.958712,0.76697 0.03486,1.9523 0.679815,-1.06331 0.122018,0.85413 0.331192,-0.2266 0.03486,-0.81927 0.383487,0.38349 0.766969,-0.19175 -0.20917,0.74954 -0.0697,0.26147 3.53853,-2.94586 0.81926,-0.40092 2.05688,-0.0697 2.23119,-0.57523 0.12202,-0.47064 1.18532,-1.32477 -0.74954,-0.26146 -0.41835,-0.38349 -2.56238,0.15688 -0.94129,0.19174 -2.16146,2.1789 -0.48807,0.24404 -0.0872,0.61009 -1.15045,0.90642 -0.10459,-0.62752 -0.33119,-0.97615 -0.94129,0.69725 c 0,0 -0.0697,0.87156 -0.0697,0.97614 0,0.10459 -0.418348,0.0697 -0.418348,0.0697 l -0.104587,-1.23762 -0.801833,-0.19174 -1.080733,-2.1266 -0.366054,-0.57523 0.03486,-0.47064 -0.174313,-0.73211 0.2789,0.26147 0.17431,0.61009 0.226608,0.29633 0.156879,-1.95229 -0.610092,-0.73211 -0.313759,0.0697 -0.03486,-0.66238 -0.488072,-0.67982 0.348623,-1.41192 0.104587,1.37706 0.470641,0.8367 0.244036,-0.15688 0.244038,-1.84771 0.261467,-0.61009 -0.383484,0.19175 0.156879,-0.64496 0.923851,-0.2789 0.45321,-0.61009 0.644946,-0.26146 0.31376,-4.93303 1.48166,-1.86513 1.20274,-3.381648 z"
         id="path31747" />
      <path
         style="fill:#000000;stroke:#000000;stroke-width:0.264583px;stroke-linecap:butt;stroke-linejoin:miter;stroke-opacity:1;fill-opacity:1"
         d="m 103.2971,104.29068 0.92385,-0.12202 -0.57522,1.22018 -0.0349,0.31376 -0.61009,-0.59266 v -0.29633 z"
         id="path31749" />
      <path
         style="fill:#000000;stroke:#000000;stroke-width:0.264583px;stroke-linecap:butt;stroke-linejoin:miter;stroke-opacity:1;fill-opacity:1"
         d="m 100.63013,104.1338 0.40092,0.69725 0.10459,0.71467 -0.45321,0.5578 z"
         id="path31751" />
      <path
         style="fill:#000000;stroke:#000000;stroke-width:0.264583px;stroke-linecap:butt;stroke-linejoin:miter;stroke-opacity:1;fill-opacity:1"
         d="m 100.49068,106.99251 0.36606,-0.48807 0.0871,0.7321 z"
         id="path31753" />
      <path
         style="fill:#000000;stroke:#000000;stroke-width:0.264583px;stroke-linecap:butt;stroke-linejoin:miter;stroke-opacity:1;fill-opacity:1"
         d="m 101.46683,106.08609 0.29633,-0.22661 0.15688,0.43578 0.43578,0.34863 0.0697,0.36605 -0.52293,0.69725 -0.43578,0.33119 -0.13945,-1.41193 z"
         id="path31755" />
      <path
         style="fill:#000000;stroke:#000000;stroke-width:0.264583px;stroke-linecap:butt;stroke-linejoin:miter;stroke-opacity:1;fill-opacity:1"
         d="m 101.9549,108.57875 0.38349,0.24403 0.2789,0.0697 0.0523,0.99357 -0.80183,-0.36605 z"
         id="path31757" />
      <path
         style="fill:#000000;stroke:#000000;stroke-width:0.264583px;stroke-linecap:butt;stroke-linejoin:miter;stroke-opacity:1;fill-opacity:1"
         d="m 104.86591,107.68976 -0.12202,0.43577 -0.43578,0.94129 0.10459,0.47064 0.5055,0.24403 0.17431,-0.57522 0.13945,-0.26147 v -0.61009 z"
         id="path31759" />
      <path
         style="fill:#000000;stroke:#000000;stroke-width:0.264583px;stroke-linecap:butt;stroke-linejoin:miter;stroke-opacity:1;fill-opacity:1"
         d="m 107.68976,107.0448 0.43577,-0.45321 0.38349,-0.40091 0.13945,0.85412 -0.0174,0.78441 -0.62752,0.34862 -0.12202,0.12202 z"
         id="path31761" />
      <path
         style="fill:#000000;stroke:#000000;stroke-width:0.264583px;stroke-linecap:butt;stroke-linejoin:miter;stroke-opacity:1;fill-opacity:1"
         d="m 108.82278,109.4503 0.38349,-0.24403 0.2789,-0.0349 -0.0349,0.95871 h -0.66238 z"
         id="path31763" />
      <path
         style="fill:#000000;stroke:#000000;stroke-width:0.264583px;stroke-linecap:butt;stroke-linejoin:miter;stroke-opacity:1;fill-opacity:1"
         d="m 110.21727,107.95122 0.12202,0.48808 0.45321,0.20917 -0.0523,0.61009 -0.80183,0.92385 0.17431,-1.77798 z"
         id="path31765" />
      <path
         style="fill:#000000;stroke:#000000;stroke-width:0.264583px;stroke-linecap:butt;stroke-linejoin:miter;stroke-opacity:1;fill-opacity:1"
         d="m 107.95122,110.58333 0.0872,0.29633 0.43578,0.20917 0.12202,0.29633 -1.0633,0.31376 v -1.011 z"
         id="path31767" />
      <path
         style="fill:#000000;stroke:#000000;stroke-width:0.264583px;stroke-linecap:butt;stroke-linejoin:miter;stroke-opacity:1;fill-opacity:1"
         d="m 102.68538,116.88459 0.51768,-0.24652 1.30652,-1.88583 1.75026,-1.28187 0.69023,-0.98606 0.18489,-2.87189 -0.17256,-0.65326 -1.35583,2.24328 -1.24489,0.77652 -1.01071,1.50373 -0.11093,1.59002 -0.29582,1.10931 -0.19721,0.29582 z"
         id="path31769"
         sodipodi:nodetypes="cccccccccccccc" />
      <path
         style="fill:#000000;stroke:#000000;stroke-width:0.264583px;stroke-linecap:butt;stroke-linejoin:miter;stroke-opacity:1;fill-opacity:1"
         d="m 102.77166,110.36429 0.25884,0.037 0.27117,0.93675 0.23418,0.22186 0.0247,0.82583 -0.24651,0.27116 -0.0616,0.57931 -0.53,-0.61629 z"
         id="path31975" />
      <path
         style="fill:#000000;stroke:#000000;stroke-width:0.264583px;stroke-linecap:butt;stroke-linejoin:miter;stroke-opacity:1;fill-opacity:1"
         d="m 100.8242,110.70941 0.53001,-0.60396 0.72721,-0.037 0.0493,2.29258 0.73954,1.99676 -0.0123,0.82582 -0.29582,1.06001 -0.28349,0.0739 -0.037,0.93676 -0.35745,0.41907 h -0.20954 l -0.0123,-0.62861 -0.49303,-0.9121 -0.16023,-0.0493 v -0.43139 l -0.25884,-0.14791 0.0493,-0.88745 0.27117,-0.32047 v -0.51768 l 0.18488,-0.19721 0.037,-0.45605 -0.49303,-0.35745 z"
         id="path31977" />
      <path
         style="fill:#000000;stroke:#000000;stroke-width:0.264583px;stroke-linecap:butt;stroke-linejoin:miter;stroke-opacity:1;fill-opacity:1"
         d="m 100.12164,116.6504 0.22186,0.35744 0.28349,0.0247 0.23419,-0.53 -0.49303,-1.51606 0.16024,-0.7642 0.037,-0.9121 -0.29581,-0.20953 0.0493,-1.49142 h -0.27117 l -0.234185,0.23419 -0.08628,0.0247 -0.08628,0.40675 -1.133964,-1.36815 0.07395,-0.34512 0.986054,0.92442 0.431401,-0.29581 0.320464,-0.074 0.14791,-0.35744 0.27116,-2.04607 -0.838139,-0.9614 -0.850474,0.80117 -0.566981,1.4421 -0.431401,1.1956 0.01233,0.78884 0.468376,0.65326 -0.02466,1.14629 0.579308,0.4314 0.801168,1.18327 z"
         id="path31979" />
    </g>
    <g
       id="g111254"
       style="fill:#000000;fill-opacity:1;stroke:#020100;stroke-opacity:1">
      <path
         style="fill:#000000;fill-opacity:1;stroke:#020100;stroke-width:0.264583px;stroke-linecap:butt;stroke-linejoin:miter;stroke-opacity:1"
         d="m 114.95855,107.63746 1.04587,3.25963 0.87156,3.76513 0.85413,4.41009 0.0349,7.33852 3.4688,-0.81926 1.13303,-0.0523 -2.64954,4.88073 -2.38807,2.59724 1.86514,0.0174 3.25962,-1.16789 -2.61467,4.51467 -3.36422,3.18991 c 0,0 -1.51651,1.18532 -1.60366,1.23761 -0.0872,0.0523 -1.20275,0.15688 -1.20275,0.15688 l -2.61468,2.6844 -1.6211,2.37064 2.1789,-2.26605 2.1266,-1.98715 1.04587,-0.0872 0.43578,-0.2789 -0.10459,0.80183 -0.48807,1.9 5.0899,9.36054 1.18532,0.5578 0.62752,0.0349 2.26606,-1.1156 2.47522,4.11376 8.64586,4.00917 1.28991,-2.33578 2.23119,-2.05688 2.75412,-1.67339 1.25505,-0.24404 -2.33578,2.47523 -0.73211,1.22018 0.0349,2.61468 2.47523,1.95229 3.9743,0.38348 -0.2789,2.92844 -1.25504,2.16147 1.46422,-1.04588 0.41835,-1.42935 0.31376,-4.56697 -0.66239,-1.35963 -1.22018,-2.85871 3.73027,4.32293 0.5578,5.99632 2.19633,1.22018 2.23119,-1.98715 0.48807,-0.80183 -1.32477,-4.28807 -1.91743,-3.13761 2.82385,2.75412 1.35963,1.56881 2.6844,-1.1156 1.95229,-1.77797 2.9633,-4.49725 -1.32477,5.43853 -1.11559,2.78898 -3.73027,2.33578 -1.28991,2.51009 -2.61467,2.89357 -1.98716,1.08073 -2.30091,-0.41834 -1.42936,-0.94129 -2.30091,2.09174 -9.30825,-2.68439 -0.41834,0.62752 -5.05504,-1.81284 -3.41651,-0.17432 -2.16147,-1.22018 -1.8477,-0.17431 -4.25321,0.59266 0.73211,-2.16146 -4.74127,0.10458 0.20917,-0.76697 -1.63853,0.45321 -5.61284,-1.63853 0.31377,-1.5688 4.00916,-2.85871 -0.34862,-2.68441 -2.19633,-3.24219 -1.53394,3.48623 -1.46422,2.4055 -2.85871,1.77798 -0.17431,1.1156 -0.5578,1.42935 -1.49908,0.73211 -0.31376,-0.90642 -0.488071,0.24404 -1.987153,2.82385 -0.348623,0.80183 -0.139451,-1.60367 2.649537,-5.50825 3.730271,-1.70825 0.8367,-0.90642 -1.53395,0.2789 -0.55779,-0.76698 -0.17432,-1.32476 2.02202,-0.34863 3.27706,-2.71926 -5.05504,2.19633 0.17431,-2.16147 5.47339,-5.05504 -5.85687,4.11376 6.06604,-11.26053 3.86972,-4.88073 -0.17431,-1.22018 -0.31376,-2.44037 0.66238,-1.5688 0.59266,-1.08073 -1.22018,1.2899 -0.62752,1.56881 0.2789,1.88256 0.41835,0.94129 -4.42752,5.75228 -2.26605,1.70826 4.56696,-16.45503 0.8367,-5.61283 1.39449,-2.64954 0.17432,-1.74312 1.95229,-3.03302 0.69724,-2.44036 z"
         id="path31981" />
      <path
         style="fill:#000000;stroke:#020100;stroke-width:0.264583px;stroke-linecap:butt;stroke-linejoin:miter;stroke-opacity:1;fill-opacity:1"
         d="m 148.91907,163.95642 3.5005,-0.54233 0.76419,2.36654 -1.15861,1.99676 -0.64094,0.56698 -2.45223,-0.79602 z"
         id="path31983" />
    </g>
    <path
       style="fill:#3aa4ef;stroke:none;stroke-width:0.264583px;stroke-linecap:butt;stroke-linejoin:miter;stroke-opacity:1;fill-opacity:1"
       d="m 111.86803,150.44746 0.59163,1.35583 -0.22186,0.54233 -0.49303,-0.8628 z"
       id="path31985" />
    <path
       style="fill:#3aa4ef;stroke:none;stroke-width:0.264583px;stroke-linecap:butt;stroke-linejoin:miter;stroke-opacity:1;fill-opacity:1"
       d="m 120.89044,160.23406 3.10607,2.81026 2.34188,0.8135 4.73307,3.50049 -5.62051,-3.45119 -1.87351,-0.0986 -2.88421,0.46838 2.41583,-1.18327 -0.22186,-0.39442 z"
       id="path31987" />
    <path
       id="path32140"
       style="fill:#25347a;stroke:none;stroke-width:0.999999px;stroke-linecap:butt;stroke-linejoin:miter;stroke-opacity:1;fill-opacity:1"
       d="M 129.13477 486.91016 L 130.43945 494.36328 L 129.87891 506.66211 L 125.03516 517.09766 L 120.93555 532.93555 L 113.29492 541.13477 L 105.46875 559.21094 L 111.24609 566.66406 L 112.73633 574.67578 L 110.12695 591.63281 L 100.25195 616.41602 L 117.02148 608.96289 L 139.75586 586.23047 L 141.43359 579.70703 L 135.2832 585.29883 L 130.43945 589.95703 L 127.08398 590.32812 L 129.13477 582.68945 L 133.97852 560.70117 L 131.74414 530.51367 L 128.01562 518.0293 L 132.48828 511.13477 L 135.8418 504.61133 L 129.13477 486.91016 z M 126.71289 528.83594 L 128.76172 534.98633 L 129.50781 556.04297 L 127.45703 571.32227 L 122.24023 586.41602 L 122.05273 575.23633 L 121.68164 570.39062 L 117.02148 564.98633 L 114.59961 547.84375 L 126.15234 538.71289 L 126.71289 528.83594 z "
       transform="scale(0.26458333)" />
    <path
       style="fill:#25347a;stroke:none;stroke-width:0.264583px;stroke-linecap:butt;stroke-linejoin:miter;stroke-opacity:1;fill-opacity:1"
       d="m 115.11547,142.20339 3.16192,-1.69044 4.09213,-5.02889 1.7749,-4.97958 1.23257,-3.99352 -2.76095,2.31722 -0.16205,3.03857 -0.42959,2.72986 -1.8242,3.05678 -3.05677,2.66235 z"
       id="path32160" />
    <path
       style="fill:#25347a;stroke:none;stroke-width:0.264583px;stroke-linecap:butt;stroke-linejoin:miter;stroke-opacity:1;fill-opacity:1"
       d="m 117.73011,119.07231 1.68124,-3.901 0.24652,-2.02141 0.64093,4.73307 -0.34512,4.09213 -0.34512,1.18326 0.93676,1.33118 0.83815,0.39442 1.8242,-1.04768 1.66397,-2.31723 0.1479,-0.80117 -0.35744,3.00747 -1.7256,3.72236 -0.70256,1.40513 -0.35745,2.56374 -0.8628,1.7256 -4.88725,0.9035 -0.69724,-13.1431 z"
       id="path32162" />
    <path
       style="fill:#25347a;stroke:none;stroke-width:0.264583px;stroke-linecap:butt;stroke-linejoin:miter;stroke-opacity:1;fill-opacity:1"
       d="m 124.38881,117.13745 3.8,-1.84771 1.49908,-1.15045 1.35963,-3.27706 -0.10459,-4.74128 0.13945,-5.85687 0.76698,-3.033024 1.88256,-2.300915 2.89357,-2.022017 1.88257,-0.732107 -2.99816,1.708253 -2.02202,3.765132 -1.49908,5.612838 0.48808,4.63669 -0.10459,2.71926 -1.74312,3.41651 -2.75412,1.91743 -2.75413,1.15046 z"
       id="path32164" />
    <path
       style="fill:#25347a;stroke:none;stroke-width:0.264583px;stroke-linecap:butt;stroke-linejoin:miter;stroke-opacity:1;fill-opacity:1"
       d="m 115.1503,102.87875 0.59266,0.0697 0.41834,-0.20917 0.31376,-1.18532 0.13945,-1.777984 0.17432,4.566964 0.10458,2.57982 -0.76697,2.71926 -0.12202,1.25504 -1.04587,-3.25963 z"
       id="path32166" />
    <path
       style="fill:#25347a;stroke:none;stroke-width:0.264583px;stroke-linecap:butt;stroke-linejoin:miter;stroke-opacity:1;fill-opacity:1"
       d="m 116.749,94.069719 5.42331,-5.226095 3.64841,-5.719122 0.49302,-5.324703 -1.18326,-5.817729 -3.05678,-5.028883 -2.46514,-1.774901 2.85957,4.93028 1.97211,6.606571 -0.0986,5.226098 -2.85956,6.113544 -3.94422,4.634463 z"
       id="path32168" />
    <path
       style="fill:#25347a;stroke:none;stroke-width:0.264583px;stroke-linecap:butt;stroke-linejoin:miter;stroke-opacity:1;fill-opacity:1"
       d="m 65.079681,153.03586 2.662351,-0.83815 2.711654,-0.19721 2.465138,0.69024 1.873507,1.23256 1.331174,1.97212 1.133965,3.05677 0.443725,3.15538 1.232569,2.90886 1.281872,1.7256 0.34512,3.40189 -2.958166,-4.53585 -1.429782,-4.48656 -0.986055,-3.5005 -1.676296,-3.20468 -2.563744,-1.62699 -2.662351,-0.19721 -2.317232,0.54233 z"
       id="path32172" />
    <path
       style="fill:#25347a;stroke:none;stroke-width:0.264583px;stroke-linecap:butt;stroke-linejoin:miter;stroke-opacity:1;fill-opacity:1"
       d="m 85.133825,90.293451 1.952291,-2.300915 1.533943,-4.601829 0.557797,-3.73027 2.370638,-4.148617 1.91743,-2.056878 3.311922,-1.18532 2.022014,-0.244036 -3.172473,1.011007 -2.614676,1.63853 -1.603666,2.928438 -0.90642,4.322929 -0.557797,2.823847 -0.941284,2.091741 -1.359631,1.777981 -1.359633,1.289905 z"
       id="path32176" />
    <path
       style="fill:#25347a;stroke:none;stroke-width:0.264583px;stroke-linecap:butt;stroke-linejoin:miter;stroke-opacity:1;fill-opacity:1"
       d="m 113.65122,64.948532 -2.44037,1.394494 -2.37064,2.370638 -1.5688,2.649537 -0.52294,2.614676 -0.17431,2.649538 1.35963,3.521096 0.34863,3.555958 -0.13945,2.928437 v 1.324769 l 1.25504,-4.148619 -0.34862,-2.858712 -1.15046,-3.695406 v -4.148619 l 1.56881,-3.730271 2.44036,-2.788986 z"
       id="path32180" />
    <g
       id="g89560"
       style="fill:#000000;fill-opacity:1;stroke:#020100;stroke-opacity:1">
      <path
         style="fill:#000000;stroke:#020100;stroke-width:0.264583px;stroke-linecap:butt;stroke-linejoin:miter;stroke-opacity:1;fill-opacity:1"
         d="m 41.636206,156.40077 -0.751869,0.0247 -0.08628,-0.30814 -1.651643,0.0493 0.06163,-1.2942 1.577689,-1.68862 0.776518,0.0616 v -0.76419 l -0.54233,-0.96141 1.590016,-4.79469 0.431398,-3.36492 0.97373,0.0863 -0.862798,-2.35421 -0.184886,-2.21862 0.714891,-2.07072 0.34512,-2.34188 0.01233,-2.44049 0.209536,-0.75187 0.924428,-2.94584 0.246515,-1.45443 1.306523,-0.50536 -0.912101,0.89978 -0.08628,1.98444 1.466757,3.43887 1.257221,1.30652 0.912103,0.22186 1.676294,1.88584 0.406747,1.73792 0.406749,-1.08466 0.530006,-0.75187 -1.984439,-2.05839 -0.357444,-0.0123 -0.07395,-2.37886 1.207918,-1.07233 0.03698,-0.69024 2.107694,-3.05678 2.156998,-3.10607 -0.838148,1.94746 0.110932,3.01979 0.714891,2.81026 0.702564,1.19559 1.146289,0.61629 1.195594,-1.57769 1.79955,-2.02141 -0.332793,-3.14306 -3.660732,-3.56212 -1.355826,-2.73631 -2.280253,-2.46514 -2.366534,-5.30005 -0.0493,-3.94422 0.764193,2.55142 1.528387,1.8242 4.227714,1.30653 -1.146289,-5.28773 -1.010708,-5.49726 -1.553036,-2.34188 2.391185,1.88583 1.725597,3.57445 1.31885,1.7256 3.340264,2.2063 2.156997,0.18489 0.4807,-0.3328 0.184886,-4.37562 -1.035357,-3.94422 1.429779,-2.884216 0.34512,2.551416 0.912103,1.04769 2.650025,-5.817733 3.315612,-5.238421 4.782371,-5.940986 4.942604,-3.389567 -2.613049,3.093749 -0.06163,0.628611 -2.995147,11.278015 1.503735,8.134962 4.067482,4.78237 2.662349,1.75025 2.465141,0.29581 2.046065,-0.64093 1.528387,3.22933 -1.848855,5.86703 2.341882,5.64517 -1.25722,5.62052 -0.271166,6.80378 0.295817,1.28188 0.147907,2.53909 -1.725596,-3.99353 -0.295818,-2.16932 -3.968874,-7.81449 0.19721,-6.45867 -2.218624,-2.6377 -1.429782,-0.46837 -1.429779,0.54233 -1.010708,0.98606 -2.884213,-6.18751 -1.232569,-4.78237 -0.665589,-2.83491 -0.221863,6.50797 1.503735,3.74701 1.454433,3.64841 1.479085,2.98282 0.764193,-2.07072 2.514441,-0.9121 2.391185,4.48655 -0.0493,1.7749 -0.295817,1.20792 2.366533,5.94099 2.193976,4.11678 1.553038,3.37724 0.986054,1.92281 0.739542,-0.9614 -0.221863,-9.54009 1.207918,-5.15214 0.271166,-0.88745 -2.366534,-6.70518 1.725599,-6.23681 4.240038,-1.38048 -1.429779,1.13397 -0.813496,0.61628 -1.03536,1.87351 -0.197212,7.29681 1.602343,3.15538 0.838147,0.8135 0.419074,0.88745 0.591632,-0.39443 -0.0986,-1.03535 1.109313,1.15861 4.313995,4.06748 2.81026,-2.71165 2.30795,-1.09579 1.63853,-1.98716 0.69724,-2.54495 0.24404,-1.18532 -0.34862,-2.71926 0.76697,1.22019 0.24404,0.94128 -0.31376,2.6844 v 1.04587 l -0.52294,0.55779 -0.90642,2.99817 0.17431,1.04587 -2.05688,1.25504 -1.5688,2.51009 -1.22018,1.70825 -0.0697,2.37064 1.60367,-1.8477 1.95229,-1.01101 0.24404,-0.59266 0.69724,-2.09174 -0.2789,2.57981 -1.04586,1.49908 -1.01101,2.47523 -0.20918,0.73211 -1.60367,1.42936 -0.41834,3.06788 h 2.6844 l -1.28991,3.5211 -0.38349,0.27889 -1.18531,-1.2899 -0.48808,0.38348 -0.69724,2.51009 -1.1156,1.15046 -0.383488,0.0349 0.278898,0.66239 0.8367,1.08073 -0.0697,2.71926 -0.66239,-0.8367 -0.41835,-0.0349 -0.836697,0.87156 -0.244036,2.33578 -0.90642,0.69724 v -3.6954 l -2.893573,1.49908 -0.976146,-0.94129 -0.174313,-0.76697 0.801836,-0.52293 0.244036,-1.15046 -2.370641,-3.45137 -2.26605,-5.54311 1.743117,5.89173 1.882566,3.69541 -0.801835,0.97615 -2.858712,-3.5211 -0.662385,-1.1156 -1.847701,-1.35963 -9.587143,-18.7908 -0.522936,-0.20917 1.882566,5.82201 v 0.59266 l -4.741277,-2.4055 -1.638531,-0.45321 1.359633,1.11559 3.451371,1.84771 0.73211,0.62752 0.662384,0.2789 0.348623,-0.2789 1.847702,0.94128 6.170633,11.71375 2.510089,2.85871 1.499082,1.95229 -3.799996,0.2789 -5.612837,-4.42752 -1.429355,0.17431 3.73027,2.78899 1.777979,2.61467 0.697248,2.68441 1.255043,1.60366 v 0.59266 l -0.836694,0.0349 0.592659,1.15046 -1.045872,-0.48807 -0.62752,-0.13945 -1.359633,-3.34679 -1.185317,-1.77797 -2.684402,-0.90642 -0.06972,-0.69725 -4.044032,-2.47523 -3.521096,-7.84402 -0.174313,-2.09174 -2.370637,-3.2422 -0.836697,-0.0349 -0.488072,-0.2789 -2.161466,3.31192 -4.218342,2.54495 0.488074,0.34862 0.383485,2.47523 -2.788986,3.31192 -1.045872,-2.05688 -0.348623,-0.27889 -0.139448,-2.6844 0.17431,-1.1156 0.104587,-0.73211 1.18532,-0.90642 1.18532,0.59266 0.348623,1.15046 0.348623,0.0349 0.03486,-1.04587 -2.26605,-1.5688 -0.2789,0.45321 -0.209172,0.0697 -0.244038,-1.74312 -0.244036,3.2422 -0.522935,2.57981 -0.627521,3.20734 1.080731,-0.94128 0.976145,1.95229 -3.521096,3.20733 -1.499079,-0.97614 -0.104587,-0.5578 -2.266053,-0.13946 -1.533943,-2.44036 0.03486,-1.11559 -0.244038,-0.2789 v -1.04587 l 0.313761,-0.34862 0.244039,-1.53394 0.06972,-1.25505 1.394494,-0.24403 1.150456,0.48807 -0.90642,-1.01101 -0.73211,0.0349 -0.592659,0.48808 -1.63853,-2.6844 -0.17431,1.35963 0.871556,1.11559 -0.941282,1.74312 -0.104587,0.48807 -0.104587,2.78899 h 0.418349 l 0.209174,-3.10275 0.244036,-0.38348 0.03486,0.83669 -0.104587,0.59266 -0.104587,2.51009 -0.104587,0.66238 0.73211,0.24404 1.045871,2.1266 -0.313761,0.92385 -1.289908,1.27248 -0.74954,0.12202 -0.418349,0.33119 -0.941282,-0.87156 -0.122017,0.29633 0.871558,1.0633 0.06972,0.62752 -1.917427,0.6101 -2.039448,0.0872 -2.178894,-1.32477 0.575228,-0.57523 2.771555,-0.80183 0.679815,-0.10459 -2.945868,0.13945 -0.784402,-0.17431 -0.766972,0.87156 -1.865132,1.42935 z"
         id="path31673" />
      <path
         style="fill:#000000;stroke:#020100;stroke-width:0.264583px;stroke-linecap:butt;stroke-linejoin:miter;stroke-opacity:1;fill-opacity:1"
         d="m 28.447666,184.49148 -0.418348,-5.02018 1.952291,-2.92843 0.836695,-6.69357 14.363284,-5.85687 8.366961,1.81284 2.510086,6.55412 2.231192,4.18348 -0.697249,2.09174 2.370641,-2.78899 -0.976146,-7.39081 0.697246,-5.29908 -3.067886,-3.06788 -1.952289,-4.18348 1.952289,-1.6734 -1.673392,-1.39449 -1.533943,-0.69725 -1.115595,2.37064 -0.574878,1.04043 1.380479,0.49302 -1.232572,0.0986 -1.774899,0.54233 1.084662,1.62699 h 1.331174 l 0.295818,-1.67629 0.640934,-0.24652 -0.295814,2.07072 -0.69024,0.29582 -1.725597,-0.0493 -1.281874,-1.23257 -0.739542,0.98605 -0.936752,0.24652 -0.640938,0.34511 -1.331174,0.0493 -1.183267,-2.07072 -0.0493,-0.39442 -1.331175,-0.49303 h -0.788844 l -1.03536,0.93675 -1.626991,-0.44372 v 0.69024 l -2.267929,0.83815 -0.936752,-0.34512 -3.944223,3.30328 -4.141436,3.25399 -1.676294,1.18326 -1.183267,9.86056 z"
         id="path31663" />
    </g>
  </g>
</svg>
