<?xml version="1.0" encoding="UTF-8" standalone="no"?>
<svg
   xmlns:dc="http://purl.org/dc/elements/1.1/"
   xmlns:cc="http://creativecommons.org/ns#"
   xmlns:rdf="http://www.w3.org/1999/02/22-rdf-syntax-ns#"
   xmlns:svg="http://www.w3.org/2000/svg"
   xmlns="http://www.w3.org/2000/svg"
   xmlns:sodipodi="http://sodipodi.sourceforge.net/DTD/sodipodi-0.dtd"
   xmlns:inkscape="http://www.inkscape.org/namespaces/inkscape"
   width="210mm"
   height="297mm"
   viewBox="0 0 210 297"
   version="1.1"
   id="svg6637"
   inkscape:export-filename="C:\Users\ASUS\taurus7.png"
   inkscape:export-xdpi="96.300003"
   inkscape:export-ydpi="96.300003"
   inkscape:version="1.0.2 (e86c870879, 2021-01-15, custom)"
   sodipodi:docname="taurus.svg">
  <defs
     id="defs6631" />
  <sodipodi:namedview
     id="base"
     pagecolor="#ffffff"
     bordercolor="#666666"
     borderopacity="1.0"
     inkscape:pageopacity="0.0"
     inkscape:pageshadow="2"
     inkscape:zoom="0.71357323"
     inkscape:cx="396.85039"
     inkscape:cy="561.25984"
     inkscape:document-units="mm"
     inkscape:current-layer="layer1"
     inkscape:document-rotation="0"
     showgrid="false"
     inkscape:window-width="1920"
     inkscape:window-height="1001"
     inkscape:window-x="-9"
     inkscape:window-y="-9"
     inkscape:window-maximized="1" />
  <metadata
     id="metadata6634">
    <rdf:RDF>
      <cc:Work
         rdf:about="">
        <dc:format>image/svg+xml</dc:format>
        <dc:type
           rdf:resource="http://purl.org/dc/dcmitype/StillImage" />
        <dc:title></dc:title>
      </cc:Work>
    </rdf:RDF>
  </metadata>
  <g
     inkscape:label="Layer 1"
     inkscape:groupmode="layer"
     id="layer1">
    <rect
       style="fill:#0a0909;fill-opacity:1;stroke:#ffffff;stroke-width:0.499999;stroke-linecap:round"
       id="rect7296"
       width="183.53932"
       height="132"
       x="18.910112"
       y="78.235954"
       inkscape:export-xdpi="96.300003"
       inkscape:export-ydpi="96.300003" />
    <path
       style="fill:#a32d24;stroke:#000000;stroke-width:0.264583px;stroke-linecap:butt;stroke-linejoin:miter;stroke-opacity:1;fill-opacity:1"
       d="m 51.910112,123.61095 -1.853933,3.15169 -1.112359,3.24438 -0.562866,2.28465 0.377975,3.40179 0.472472,2.45685 1.700893,2.45684 1.078787,0.62899 0.131092,0.90126 0.03277,1.52396 1.425634,1.06512 0.08193,0.80295 1.179836,0.14748 1.310928,1.26177 0.753784,2.96597 2.687403,3.11346 0.409665,1.78614 1.392861,1.91723 0.114706,2.14664 3.260934,2.62186 2.064713,0.99958 3.539506,0.18026 h 0.655464 l 1.081516,1.39286 0.77017,0.4916 1.114289,2.29412 1.228996,1.06513 2.769336,0.52437 0.786557,0.27857 1.310928,1.98278 1.261769,0.72101 1.655047,0.44244 0.786557,0.8521 3.457573,1.8353 1.278155,0.29496 0.671851,-0.81933 0.91765,-0.2458 0.327732,-2.17941 -0.622691,-3.53951 -1.278155,-2.04833 -3.457574,-1.54034 -2.228578,-0.22941 -0.704624,0.6063 -1.065129,-0.73739 -0.950423,-0.0983 -0.934037,-1.81892 2.949589,-0.96681 1.966393,2.17942 1.917232,0.77017 1.851686,0.0164 3.162615,-0.93404 1.228995,-0.45882 1.392862,2.96597 1.54034,1.31093 2.949589,1.03236 1.163449,1.72059 1.310931,1.4748 1.86807,0.73739 2.60547,2.35967 2.78572,1.5895 0.57353,-0.67185 0.29496,-1.0979 0.21303,-0.27857 0.3605,0.0656 0.16387,0.37689 h 0.7374 l 0.32773,-0.93404 -0.14748,-4.26052 -0.96681,-2.6874 -4.50632,-2.47438 -0.99958,-0.22941 -1.36009,0.52437 -0.40966,-0.0492 -0.99958,-0.98319 -0.68824,-0.0328 -0.58992,-1.44202 0.54076,-0.13109 0.0983,0.31135 6.81682,1.93361 5.68616,0.77017 5.96472,-0.75378 3.12984,-0.55714 1.72059,0.32773 0.44244,1.08151 -0.45882,1.16345 -1.73698,1.67144 -0.45883,0.86849 0.0656,0.6063 0.7374,-0.2458 5.45674,-1.31093 5.63699,-0.22941 2.83488,4.85044 2.55631,2.27773 5.27649,3.57228 3.44118,2.27774 0.9832,2.09749 0.80294,1.21261 -0.13109,4.78488 -1.27815,1.85169 -0.34412,1.39286 -1.49118,0.42605 -1.86808,1.55673 -0.1147,0.45883 -2.72018,3.34286 -0.40966,1.5895 0.14747,0.45883 2.11388,0.16386 0.0655,0.57354 4.58825,0.22941 1.75337,-0.45883 1.5895,-0.55714 1.13068,-1.76975 0.24579,-1.44203 0.86849,-1.19622 0.52438,-0.26218 0.73739,0.86849 0.40967,-1.36009 0.0655,-1.39286 -0.42605,-2.16303 -0.70462,-1.50757 -0.18025,-2.85127 0.44243,-2.26135 1.01597,-2.04833 0.16387,-3.31009 -0.67185,-2.21219 -4.1622,-2.96598 -1.17983,-1.67143 -0.83572,-2.22858 1.42563,-1.24538 0.57353,-1.229 0.68824,0.96681 2.16303,0.95042 1.91724,-0.19663 0.70462,-0.29496 1.68782,2.80211 3.0643,3.68698 4.16219,3.19539 2.90043,1.63866 1.42564,2.90043 1.08151,0.9832 2.17942,1.73698 2.63824,4.22774 v 3.34287 l 0.50799,1.0979 -0.9832,2.39244 -0.26218,1.49118 -1.52396,3.83447 -0.13109,1.03235 0.93404,0.3769 2.24496,-0.39328 0.32773,0.81933 0.39328,0.42605 1.78614,0.0656 3.44119,-1.81892 1.50757,-1.4584 0.26218,-2.39245 -0.19664,-2.9332 -0.57353,-1.03236 -0.62269,-0.63907 v -3.63783 l -0.42605,-1.08152 -1.90085,-1.13067 -2.45799,-3.78531 -0.16386,-3.31009 -1.09791,-2.09749 -0.4916,-2.76933 -1.62227,-1.29454 -1.5895,-0.55715 -1.47479,-3.9164 -2.98237,-3.7853 -0.21302,-7.01347 -0.13109,-1.21261 -2.98237,-5.70254 -0.52437,-0.44243 -0.0819,-3.53951 -3.57228,-6.04666 -0.0656,-0.21302 0.60631,-0.22942 2.94959,-0.52437 2.49076,-1.57311 4.37522,-3.55589 h 2.37606 l 0.91765,0.55714 2.5727,4.75212 2.16303,2.29412 0.21303,2.14665 -0.34412,2.53992 -0.40967,1.0979 -0.70462,2.19581 1.13067,2.72017 3.01514,3.27732 2.0811,1.91724 0.4916,1.06513 c 0,0 0.18025,1.47479 0.18025,1.29454 0,-0.18026 0.1147,-1.65505 0.1147,-1.65505 l -0.31134,-1.19622 1.3437,1.0979 2.16303,1.47479 0.91765,0.26219 2.06471,-0.19664 -1.90084,-0.14748 -1.40925,-0.54076 -0.62269,-1.22899 1.19622,0.58992 1.5895,0.18025 1.63866,-0.11471 1.229,-0.75378 0.98319,-1.08152 -1.3437,0.81933 -1.63866,0.26219 -1.16345,-0.19664 -0.88487,-0.62269 1.5895,-0.14748 1.60588,-0.32773 1.44202,-1.04875 0.90127,-1.86807 -1.40925,1.73698 -1.52395,0.7374 -2.40883,-0.0164 -2.22858,-1.11429 -0.95043,-1.22899 -0.77017,-0.60631 0.95043,0.26219 1.54034,0.81933 2.39244,0.11471 2.83488,-1.37648 -1.75336,0.47521 -3.08068,-0.0492 -1.85169,-1.32731 -0.62269,-0.90127 -0.36051,-3.81807 -0.99958,-2.55631 -0.65546,-1.26177 1.13067,0.58991 1.19622,1.54035 0.45883,1.36008 -0.16387,-1.80252 -0.83571,-1.8353 -1.54034,-1.32732 -3.3101,-1.86807 -1.42563,-1.32731 -3.34287,-6.43994 -1.36009,-1.06513 -1.88446,-0.37689 -3.45757,1.27815 -3.80169,2.55631 -3.12984,1.36009 -4.45716,-0.55714 -2.88404,-3.03152 -8.6849,-4.81767 -9.1765,-7.14455 -7.04624,-8.24247 -4.44077,-4.93236 -2.85127,-2.34329 -5.37481,-3.12984 -4.5227,-5.178167 -3.73614,-2.572697 -4.8996,-0.901263 -1.98278,-0.08193 -4.276901,-2.179418 -4.39161,-0.344119 -5.702538,0.393279 -4.227744,1.474794 -2.589083,1.63866 -4.768502,1.409248 -6.439935,3.113456 -7.357586,6.58741 -3.932784,4.50632 -3.768919,6.32523 z"
       id="path7294" />
    <path
       style="fill:#f5f4f4;stroke:#000000;stroke-width:0.264583px;stroke-linecap:butt;stroke-linejoin:miter;stroke-opacity:1;fill-opacity:1"
       d="m 50.176339,140.13467 -2.929315,0.0945 -6.52009,2.26786 -5.953125,-3.40178 -0.09449,-5.95313 4.346726,-5.29166 3.590774,-3.3073 0.755952,-3.68526 -0.188987,-0.75596 1.984375,3.02381 -0.661458,5.00819 -3.401788,4.63021 -1.606399,2.26785 2.173364,0.75596 4.535715,-2.07888 2.173362,-1.41741 0.377976,3.40179 0.472472,2.45685 1.700892,2.45684 z"
       id="path7214" />
    <path
       style="fill:none;stroke:#000000;stroke-width:0.264583px;stroke-linecap:butt;stroke-linejoin:miter;stroke-opacity:1"
       d="m 39.498513,135.032 -0.188989,1.98437 1.228423,1.03943"
       id="path7216" />
    <path
       style="fill:#f5f4f4;stroke:#000000;stroke-width:0.264583px;stroke-linecap:butt;stroke-linejoin:miter;stroke-opacity:1;fill-opacity:1"
       d="m 47.247024,117.73958 1.700892,3.59078 5.008184,2.17336 5.858632,-0.28348 5.197173,-2.07887 4.441219,-1.13393 2.645833,0.75595 1.133928,2.17337 -2.456844,-1.51191 -1.889882,-0.37798 -2.551337,3.96875 0.472469,2.74033 2.645833,1.32292 2.645833,0.18899 1.6064,-4.72471 1.511903,-2.45684 2.078871,-1.88988 -0.566965,-3.87426 -3.685268,-2.36235 -6.425596,0.47247 -7.465029,3.49628 -5.008184,1.6064 -3.685267,-0.0945 z"
       id="path7218" />
    <path
       style="fill:#020202;stroke:#000000;stroke-width:0.264583px;stroke-linecap:butt;stroke-linejoin:miter;stroke-opacity:1;fill-opacity:1"
       d="m 62.460565,126.33854 0.472469,1.98438 1.322917,1.03943 0.0945,1.13393 0.850445,-0.85045 -0.283483,-1.32291 -1.606399,-1.22843 z"
       id="path7220" />
    <path
       style="fill:#020202;stroke:#000000;stroke-width:0.264583px;stroke-linecap:butt;stroke-linejoin:miter;stroke-opacity:1;fill-opacity:1"
       d="m 53.105655,140.79613 1.511903,0.85044 0.377976,0.66146 2.078871,-0.66146 -1.13393,1.22843 -0.944941,0.47247 -1.133927,-0.94494 -0.472472,-0.47247 -0.787151,-0.42755 -0.0167,-0.80181 z"
       id="path7222" />
    <path
       style="fill:#020202;stroke:#000000;stroke-width:0.264583px;stroke-linecap:butt;stroke-linejoin:miter;stroke-opacity:1;fill-opacity:1"
       d="m 59.066564,140.76752 1.152602,-0.98556 0.317381,-3.44109 0.467722,-1.58692 1.152599,-1.11919 1.954409,-0.91874 h 0.918739 l -0.250566,0.65147 -2.071338,1.1526 -0.801809,2.17157 -0.05011,1.9544 v 1.73726 l -0.80181,0.58465 -1.971111,0.0334 z"
       id="path7224" />
    <path
       style="fill:#020202;stroke:#000000;stroke-width:0.264583px;stroke-linecap:butt;stroke-linejoin:miter;stroke-opacity:1;fill-opacity:1"
       d="m 63.693669,137.74403 0.668173,0.0334 0.835218,-0.53454 0.517835,-1.75395 1.486686,-0.80181 0.918739,-0.13364 -0.618061,-0.28397 -1.703843,0.15034 -1.169305,1.1693 -0.46772,1.43657 z"
       id="path7226" />
    <path
       style="fill:#050505;stroke:#000000;stroke-width:0.264583px;stroke-linecap:butt;stroke-linejoin:miter;stroke-opacity:1;fill-opacity:1"
       d="m 63.392991,140.684 1.386459,-0.33409 0.718288,-0.56795 0.384199,-1.06908 0.601358,-0.63476 0.05011,0.30068 -0.300677,0.31738 v 1.25283 l -0.317384,0.70158 -0.501129,0.48442 0.501129,0.16705 0.451017,0.70158 1.169305,-0.11693 0.334086,0.3842 -0.11693,0.61806 -0.317383,-0.31738 H 66.23273 l -0.601359,-0.80181 -0.701582,-0.48443 -0.668173,-0.0835 -0.434311,-0.21716 -0.400905,-0.0501 z"
       id="path7228" />
    <path
       style="fill:#020202;stroke:#000000;stroke-width:0.264583px;stroke-linecap:butt;stroke-linejoin:miter;stroke-opacity:1;fill-opacity:1"
       d="m 70.793016,138.3788 0.534538,0.56795 0.400905,1.75395 0.05011,0.91874 -0.250563,1.1359 -0.88533,-0.50114 -0.116933,-0.28397 0.200454,-0.0668 0.250565,-1.63702 -0.03341,-1.11919 -0.300677,-0.33409 z"
       id="path7230" />
    <path
       style="fill:#020202;stroke:#000000;stroke-width:0.264583px;stroke-linecap:butt;stroke-linejoin:miter;stroke-opacity:1;fill-opacity:1"
       d="m 67.585782,137.52687 1.035669,-0.31738 0.217157,1.78737 -0.250566,1.28623 -0.751697,0.63477 -0.88533,0.33408 -0.601355,0.0334 -0.08352,-0.61806 0.384198,-0.13363 0.100227,-0.51784 0.35079,0.0167 0.116933,0.30068 0.567946,-0.0668 0.05011,-0.88533 -0.434311,-0.7684 0.08352,-0.7684 z"
       id="path7232" />
    <path
       style="fill:#020202;stroke:#000000;stroke-width:0.264583px;stroke-linecap:butt;stroke-linejoin:miter;stroke-opacity:1;fill-opacity:1"
       d="m 64.829565,142.63841 1.753954,1.20271 0.835219,0.98555 0.53454,1.46999 0.167042,1.60361 -0.467722,0.63477 -0.484426,-2.13816 -0.868625,-1.41987 -1.102487,-0.91874 -0.517834,-0.85192 -0.01669,-0.55124 z"
       id="path7234" />
    <path
       style="fill:#020202;stroke:#000000;stroke-width:0.264583px;stroke-linecap:butt;stroke-linejoin:miter;stroke-opacity:1;fill-opacity:1"
       d="m 60.703592,149.58741 0.634764,0.48443 3.190531,0.0334 -0.05011,0.66817 -2.53906,0.10023 -0.935443,0.85192 -0.167044,0.65147 -0.417608,0.46772 -0.23386,-0.16704 0.06681,-0.95215 h 0.183748 l 0.133636,-2.07134 z"
       id="path7236" />
    <path
       style="fill:#020202;stroke:#000000;stroke-width:0.264583px;stroke-linecap:butt;stroke-linejoin:miter;stroke-opacity:1;fill-opacity:1"
       d="m 67.702712,130.52775 0.434314,0.0835 0.317381,0.58465 0.7684,0.11693 0.484426,0.35079 -0.501129,0.25057 0.150339,1.52009 0.11693,0.20045 -0.350793,0.25057 -1.302938,-0.7684 0.06682,-1.40317 -0.451019,-0.66817 z"
       id="path7238" />
    <path
       style="fill:#020202;stroke:#000000;stroke-width:0.264583px;stroke-linecap:butt;stroke-linejoin:miter;stroke-opacity:1;fill-opacity:1"
       d="m 61.455286,155.25018 0.484426,0.20046 1.937705,-0.11693 2.739511,-2.83974 0.718289,-0.55125 1.319643,0.0835 0.11693,0.43431 -0.05011,0.15034 -0.91874,0.10022 -3.574729,2.97338 -1.419868,0.4009 -1.219417,-0.0334 -0.367496,-0.4009 -0.01669,-0.33409 z"
       id="path7240" />
    <path
       style="fill:#050505;stroke:#000000;stroke-width:0.264583px;stroke-linecap:butt;stroke-linejoin:miter;stroke-opacity:1;fill-opacity:1"
       d="m 69.039059,149.78786 0.334087,0.7517 -0.01669,1.00226 0.785103,-0.13363 0.985557,0.73499 -0.08352,-0.78511 -0.785103,-1.00226 -0.818512,-0.46772 z"
       id="path7242" />
    <path
       style="fill:#050505;stroke:#000000;stroke-width:0.264583px;stroke-linecap:butt;stroke-linejoin:miter;stroke-opacity:1;fill-opacity:1"
       d="m 72.062545,149.88809 -0.133635,1.28623 -0.317381,0.68488 -0.03341,0.3508 0.618061,0.0334 0.818513,-0.65147 1.018966,0.0835 0.01669,-0.48443 -0.835218,-0.3675 -0.801807,-0.91874 z"
       id="path7244" />
    <path
       style="fill:#050505;stroke:#000000;stroke-width:0.264583px;stroke-linecap:butt;stroke-linejoin:miter;stroke-opacity:1;fill-opacity:1"
       d="m 71.477893,153.17885 0.935445,1.13589 0.183748,1.68714 0.534538,-0.26727 0.133635,-1.1693 -0.701582,-1.20272 -0.668174,-0.51783 -0.283974,0.0668 z"
       id="path7246" />
    <path
       style="fill:#050505;stroke:#000000;stroke-width:0.264583px;stroke-linecap:butt;stroke-linejoin:miter;stroke-opacity:1;fill-opacity:1"
       d="m 69.406555,158.07322 1.453277,-0.98556 0.03341,0.46773 -0.267269,0.4176 -1.018966,0.55125 z"
       id="path7248" />
    <path
       style="fill:#050505;stroke:#000000;stroke-width:0.264583px;stroke-linecap:butt;stroke-linejoin:miter;stroke-opacity:1;fill-opacity:1"
       d="m 62.106756,158.17344 0.734992,-0.26726 1.202711,0.68487 0.734991,0.35079 0.434314,0.0334 -0.35079,0.30068 -1.018966,-0.15034 -0.7684,-0.35079 -0.684877,0.0668 -0.167045,0.18375 -0.23386,-0.20046 z"
       id="path7250" />
    <path
       style="fill:#050505;stroke:#000000;stroke-width:0.264583px;stroke-linecap:butt;stroke-linejoin:miter;stroke-opacity:1;fill-opacity:1"
       d="m 63.77719,159.9107 1.052375,0.10022 0.417608,0.23387 -0.03341,0.26726 -1.102487,0.0167 -0.35079,-0.28397 z"
       id="path7252" />
    <path
       style="fill:#020202;stroke:#000000;stroke-width:0.264583px;stroke-linecap:butt;stroke-linejoin:miter;stroke-opacity:1;fill-opacity:1"
       d="m 68.103617,157.72243 0.23386,-0.15034 0.517834,-1.97111 0.534541,-1.03567 1.336347,-0.45102 0.584652,0.20045 0.517835,1.10249 0.150338,1.00226 -0.200453,0.28397 -0.417608,-0.0501 -0.317383,-1.20271 -0.601356,-0.40091 -0.718286,0.30068 -0.467722,1.58691 -0.451017,1.18601 -0.517834,0.30068 -0.233863,-0.10022 z"
       id="path7254" />
    <path
       style="fill:#020202;stroke:#000000;stroke-width:0.264583px;stroke-linecap:butt;stroke-linejoin:miter;stroke-opacity:1;fill-opacity:1"
       d="m 77.174076,132.89977 0.23386,0.96885 3.725068,5.01131 0.601359,2.99007 -0.701583,3.22394 -2.372018,1.62032 -0.80181,1.41987 -0.734991,0.7517 -0.451017,-0.10023 1.286235,-2.93996 1.469983,-0.91874 0.65147,-1.40316 v -3.74178 l -3.040192,-4.94448 -0.317381,-1.21942 0.283972,-0.88533 z"
       id="path7256" />
    <path
       style="fill:#020202;stroke:#000000;stroke-width:0.264583px;stroke-linecap:butt;stroke-linejoin:miter;stroke-opacity:1;fill-opacity:1"
       d="m 73.415598,130.3273 1.286235,-2.23838 0.684877,-3.4745 1.453279,-2.656 2.939965,-2.3219 4.192789,-1.13589 0.618061,0.28397 0.250566,0.50113 -0.734991,4.15938 -0.167045,0.51784 0.03341,4.37654 -0.618059,1.53679 -1.753957,0.88533 -1.703843,0.15034 0.06682,-0.58465 2.35531,-1.28623 0.56795,-1.62032 0.100227,-3.97564 0.618058,-3.52462 -2.605876,0.48443 -2.873147,1.87089 -1.703845,3.55802 -0.918739,3.87541 -0.902034,1.18601 -1.202714,-0.0668 z"
       id="path7258" />
    <path
       style="fill:#020202;stroke:#000000;stroke-width:0.264583px;stroke-linecap:butt;stroke-linejoin:miter;stroke-opacity:1;fill-opacity:1"
       d="m 76.489197,129.34175 1.135895,-1.20272 0.968852,-2.12145 0.835218,-1.25282 1.503391,-0.53454 0.150339,0.16704 -0.801809,0.66817 -0.200451,0.3842 0.952148,0.0501 0.150339,0.23386 -0.801809,0.23386 0.551243,0.35079 -0.384201,0.46772 -0.567947,0.20045 -0.417607,0.48443 0.7684,-0.21716 0.484425,0.0668 -0.283974,0.33409 -0.534541,0.21715 -1.152599,2.42213 -1.152599,0.66818 -1.937705,0.18375 -0.06682,-0.50114 1.169305,-0.18374 -0.751694,-0.30068 0.133633,-0.21716 0.668176,-0.15034 -0.467723,-0.18375 z"
       id="path7260" />
    <path
       style="fill:#020202;stroke:#000000;stroke-width:0.264583px;stroke-linecap:butt;stroke-linejoin:miter;stroke-opacity:1;fill-opacity:1"
       d="m 78.176336,154.43167 1.069078,0.20045 1.904296,1.67044 0.751695,1.95441 0.400904,1.41987 0.150339,0.56795 -0.785103,-0.85193 -1.00226,-1.75395 -0.651471,-1.18601 -1.603618,-1.18601 -0.718286,-0.30068 0.06682,-0.43431 z"
       id="path7262" />
    <path
       style="fill:#020202;stroke:#000000;stroke-width:0.264583px;stroke-linecap:butt;stroke-linejoin:miter;stroke-opacity:1;fill-opacity:1"
       d="m 68.755085,161.61454 0.467722,-0.48442 1.804069,-0.3508 2.80633,-1.31964 1.069078,-1.1693 0.167045,-1.58692 -0.334087,-1.48668 -0.01669,-0.81852 0.100227,-1.40316 0.417607,0.51783 0.183748,0.48443 0.133636,-0.41761 1.503391,-1.75396 0.167042,-1.31964 0.601356,-0.51783 0.634767,0.13363 -0.11693,1.5368 -1.369758,2.3052 -1.00226,1.1359 0.08352,3.0903 -0.885331,1.30294 -1.536797,1.20271 -2.138157,0.73499 -1.804069,0.48443 -0.734991,-0.0334 z"
       id="path7264" />
    <path
       style="fill:#050505;stroke:#000000;stroke-width:0.264583px;stroke-linecap:butt;stroke-linejoin:miter;stroke-opacity:1;fill-opacity:1"
       d="m 93.611151,151.52512 0.584653,2.25508 -0.467723,2.37202 1.653731,2.82303 0.551243,0.0334 v -0.56794 l -1.085781,-1.70385 0.400902,-2.45554 -0.384199,-1.921 -1.00226,-1.06907 z"
       id="path7266"
       sodipodi:nodetypes="cccccccccccc" />
    <path
       style="fill:#020202;stroke:#000000;stroke-width:0.264583px;stroke-linecap:butt;stroke-linejoin:miter;stroke-opacity:1;fill-opacity:1"
       d="m 95.882943,155.53416 2.338607,0.21716 1.269532,0.7851 2.071338,2.13816 3.40769,0.68488 0.90203,0.85192 2.07134,-0.21716 0.96885,-1.41987 0.60136,-2.60588 0.73499,-1.68714 2.45554,-2.15486 0.15034,0.56795 -2.37202,3.12371 -0.65147,3.67496 -0.95215,1.21942 -0.96885,0.46772 -2.3219,-0.0334 -0.90204,-0.56795 -1.23612,-0.10022 -2.62258,-0.91874 -1.1526,-0.91874 -1.33635,-1.82078 -1.11919,-0.3842 -1.052375,-0.0334 -0.451017,-0.43431 z"
       id="path7268" />
    <path
       style="fill:#020202;stroke:#000000;stroke-width:0.264583px;stroke-linecap:butt;stroke-linejoin:miter;stroke-opacity:1;fill-opacity:1"
       d="m 109.76425,152.49397 -0.46772,0.0668 -1.08578,1.52009 -0.30068,1.30294 -1.20271,1.05237 -0.88533,0.40091 1.00226,0.18375 1.18601,-0.40091 1.08578,-1.1359 0.43431,-1.63702 z"
       id="path7270" />
    <path
       style="fill:#020202;stroke:#000000;stroke-width:0.264583px;stroke-linecap:butt;stroke-linejoin:miter;stroke-opacity:1;fill-opacity:1"
       d="m 103.13263,143.65737 -0.10023,0.73499 0.25057,0.15034 0.0835,0.50113 -0.21716,0.18375 -0.0334,0.4009 1.16931,-0.25056 0.20045,-0.35079 0.95215,0.0167 1.83748,1.9043 0.96885,1.5368 0.15034,-1.1359 -1.57021,-2.47224 -1.68714,-1.20271 -0.81851,-0.18375 z"
       id="path7272" />
    <path
       style="fill:#020202;stroke:#000000;stroke-width:0.264583px;stroke-linecap:butt;stroke-linejoin:miter;stroke-opacity:1;fill-opacity:1"
       d="m 89.084273,156.90392 -1.5368,-0.83522 -1.11919,-1.63703 -0.334087,-2.60588 0.283974,-1.9377 1.687137,-1.73725 2.823036,-0.65147 2.338609,0.58465 2.956669,-0.3842 3.474503,-1.36976 2.438836,0.18375 1.87088,0.78511 0.51784,1.186 -0.90203,-0.71828 -2.3052,-0.21716 -1.820777,0.61806 -2.088044,1.03567 -2.238383,0.35079 -1.837478,-0.0334 -2.589173,-0.7684 -1.68714,0.26726 -1.469982,1.21942 -0.35079,2.3052 0.384199,1.97111 0.684879,1.41987 z"
       id="path7274" />
    <path
       style="fill:#020202;stroke:#000000;stroke-width:0.264583px;stroke-linecap:butt;stroke-linejoin:miter;stroke-opacity:1;fill-opacity:1"
       d="m 92.475255,132.34853 -0.434313,4.59369 0.584652,4.15938 0.88533,1.43658 0.785106,3.54132 0.768398,0.18375 1.369758,-1.35306 0.818513,-0.20045 1.77066,0.46773 -1.252826,-1.26954 -2.973374,-2.57247 -1.520095,-3.107 -0.350792,-4.46006 z"
       id="path7276" />
    <path
       style="fill:#020202;stroke:#000000;stroke-width:0.264583px;stroke-linecap:butt;stroke-linejoin:miter;stroke-opacity:1;fill-opacity:1"
       d="m 110.78322,131.079 0.65147,1.35305 1.5702,1.68714 0.68488,2.83974 -0.15033,1.97111 -0.38421,0.81851 -0.26727,-2.52235 -0.56794,-1.18601 -1.77066,-2.3219 0.0334,-1.77067 z"
       id="path7278" />
    <path
       style="fill:#020202;stroke:#000000;stroke-width:0.264583px;stroke-linecap:butt;stroke-linejoin:miter;stroke-opacity:1;fill-opacity:1"
       d="m 115.81123,119.80356 -2.07134,4.56029 -0.21716,2.63929 0.90204,2.38872 1.65373,2.92326 0.50112,2.33861 -0.13363,3.60814 -1.70384,4.79414 -0.3675,1.65373 -0.30068,2.47225 -1.13589,2.52235 0.85192,-0.30068 1.00226,-1.13589 1.11919,-3.94223 2.2885,-4.27631 0.58465,-3.65825 -0.88533,-5.14494 -2.57247,-3.72507 -0.16704,-2.65599 0.7851,-2.99008 0.11693,-1.48668 z"
       id="path7280" />
    <path
       style="fill:#020202;stroke:#000000;stroke-width:0.264583px;stroke-linecap:butt;stroke-linejoin:miter;stroke-opacity:1;fill-opacity:1"
       d="m 125.7002,161.08 3.44109,0.63477 4.09257,-0.81852 4.57699,-1.25282 3.32416,-0.15034 3.29076,1.62032 -3.30746,-0.70158 -3.34087,0.91874 -3.4578,1.1693 -3.49121,0.33409 -3.0736,-0.31739 z"
       id="path7282" />
    <path
       style="fill:#020202;stroke:#000000;stroke-width:0.264583px;stroke-linecap:butt;stroke-linejoin:miter;stroke-opacity:1;fill-opacity:1"
       d="m 137.14268,156.41949 1.26953,0.26727 2.55576,-0.16704 2.6727,-0.58466 1.72054,-0.83521 0.90204,-1.28624 0.0501,1.33635 1.1359,0.98556 1.18601,0.75169 1.20271,2.22168 -1.01897,-1.05238 -1.38646,-0.50112 -1.1693,-1.1359 -0.90204,-0.3842 -3.57473,1.5201 -3.8587,0.0835 z"
       id="path7284" />
    <path
       style="fill:#020202;stroke:#000000;stroke-width:0.264583px;stroke-linecap:butt;stroke-linejoin:miter;stroke-opacity:1;fill-opacity:1"
       d="m 145.3111,135.83974 -1.36976,2.45554 0.13364,5.91333 -1.20271,2.6894 -6.94901,6.48129 3.34087,-0.60136 1.52009,-1.18601 1.1526,-1.41987 2.57247,-2.3386 0.96885,-2.42213 0.0668,-3.55803 -0.58465,-2.23838 0.11693,-2.73952 z"
       id="path7286" />
    <path
       style="fill:#020202;stroke:#000000;stroke-width:0.264583px;stroke-linecap:butt;stroke-linejoin:miter;stroke-opacity:1;fill-opacity:1"
       d="m 145.62848,133.20045 1.93771,1.98782 1.05237,2.05463 0.10023,2.15486 1.52009,4.24291 0.0334,3.37427 -1.58691,3.67496 0.0501,2.15486 1.05237,2.3052 3.62485,4.39324 2.42213,3.99234 0.7684,1.60362 -0.0167,-2.2885 -0.51783,-1.06908 -3.10701,-5.32868 -1.28623,-3.79189 0.20045,-2.97337 0.51783,1.77066 2.6894,7.56707 0.91874,2.12145 0.88533,1.01896 0.0668,-1.88759 -2.75622,-8.75307 -2.75621,-6.54811 -0.40091,-0.7851 -0.13363,-5.32869 -1.36976,-2.92326 -2.33861,-2.02122 -1.33635,-0.85193 -0.98555,-0.33408 z"
       id="path7288" />
    <path
       style="fill:#020202;stroke:#000000;stroke-width:0.264583px;stroke-linecap:butt;stroke-linejoin:miter;stroke-opacity:1;fill-opacity:1"
       d="m 93.299157,103.58848 2.317414,1.83076 1.645367,1.83076 1.251402,3.54565 -0.50983,2.54915 -1.853933,2.13203 -1.575843,1.27457 -0.533005,2.94312 -0.602528,-3.03581 1.066011,-2.54916 1.459971,-2.24789 0.04635,-2.50281 -1.853933,-4.42627 z"
       id="path7290" />
    <path
       style="fill:#020202;stroke:#000000;stroke-width:0.264583px;stroke-linecap:butt;stroke-linejoin:miter;stroke-opacity:1;fill-opacity:1"
       d="m 96.474017,101.29424 2.989466,1.13553 2.085677,1.48315 2.66503,3.70787 0.69522,2.5028 v 5.44593 l -1.27458,3.87009 -1.99298,3.26755 -3.800559,3.73104 -1.877108,2.2479 -0.764746,1.32092 -0.625703,1.62219 -0.347612,-2.6882 0.324438,-1.32093 1.019664,-1.57584 1.969804,-2.08567 1.459971,-1.69172 0.324438,-1.18188 0.02318,-0.69522 -0.533006,-0.39397 -0.903793,0.41714 -2.757722,2.75772 -2.410114,3.66152 -1.042837,3.01264 -0.417134,-1.36727 0.509831,-3.26756 2.317414,-3.66152 1.413624,-1.52949 4.287221,-2.66503 2.062499,-1.78441 0.57935,-2.01615 -0.41713,-3.4066 -0.48666,2.52598 -1.22823,1.83076 0.11587,-2.52598 0.0695,-3.75422 -1.228225,-2.85042 -2.039326,-2.75772 -1.622192,-1.83076 z"
       id="path7292" />
  </g>
</svg>
