<?xml version="1.0" encoding="UTF-8" standalone="no"?>
<svg
   xmlns:dc="http://purl.org/dc/elements/1.1/"
   xmlns:cc="http://creativecommons.org/ns#"
   xmlns:rdf="http://www.w3.org/1999/02/22-rdf-syntax-ns#"
   xmlns:svg="http://www.w3.org/2000/svg"
   xmlns="http://www.w3.org/2000/svg"
   xmlns:sodipodi="http://sodipodi.sourceforge.net/DTD/sodipodi-0.dtd"
   xmlns:inkscape="http://www.inkscape.org/namespaces/inkscape"
   width="64"
   height="64"
   viewBox="0 0 16.933333 16.933333"
   version="1.1"
   id="svg6377"
   inkscape:export-filename="C:\Users\ASUS\wking1.png"
   inkscape:export-xdpi="96.000008"
   inkscape:export-ydpi="96.000008"
   inkscape:version="1.0.2 (e86c870879, 2021-01-15, custom)"
   sodipodi:docname="wking_64.svg">
  <defs
     id="defs6371" />
  <sodipodi:namedview
     id="base"
     pagecolor="#ffffff"
     bordercolor="#666666"
     borderopacity="1.0"
     inkscape:pageopacity="0.0"
     inkscape:pageshadow="2"
     inkscape:zoom="7.9195959"
     inkscape:cx="59.506189"
     inkscape:cy="36.615881"
     inkscape:document-units="mm"
     inkscape:current-layer="layer1"
     inkscape:document-rotation="0"
     showgrid="false"
     units="px"
     inkscape:window-width="1920"
     inkscape:window-height="1001"
     inkscape:window-x="-9"
     inkscape:window-y="-9"
     inkscape:window-maximized="1" />
  <metadata
     id="metadata6374">
    <rdf:RDF>
      <cc:Work
         rdf:about="">
        <dc:format>image/svg+xml</dc:format>
        <dc:type
           rdf:resource="http://purl.org/dc/dcmitype/StillImage" />
        <dc:title></dc:title>
      </cc:Work>
    </rdf:RDF>
  </metadata>
  <g
     inkscape:label="Layer 1"
     inkscape:groupmode="layer"
     id="layer1">
    <g
       inkscape:label="Layer 1"
       id="layer1-3"
       transform="matrix(0.11722484,0,0,0.11722484,-2.8655604,-6.474248)">
      <path
         style="fill:none;stroke:none;stroke-width:2.85714"
         d="m 280.60119,703.52923 -50.82737,-15.9396 12.25595,-12.59834 12.25594,-12.59832 -11.27731,-9.84311 -11.27731,-9.84312 18.45543,-19.21051 c 10.15048,-10.56577 23.58242,-24.74326 29.84874,-31.50552 l 11.39331,-12.29497 -7.14286,-5.60119 -7.14285,-5.60117 6.65,-5.59826 c 3.6575,-3.07904 9.84535,-7.92591 13.75078,-10.77081 6.07458,-4.42502 8.92195,-12.79762 19.70238,-57.93415 6.93088,-29.01887 12.63588,-54.31673 12.67779,-56.21747 0.0521,-2.36091 -7.31045,-3.7188 -23.23709,-4.28571 l -23.31329,-0.82984 20.45614,-11.19589 c 11.25088,-6.15775 20.45614,-12.11352 20.45614,-13.23506 0,-1.12153 -6.41008,-15.36909 -14.24464,-31.66124 -7.83455,-16.29215 -14.26312,-31.70064 -14.28571,-34.24108 -0.0523,-5.8836 11.32119,-34.34819 15.42389,-38.60153 1.70856,-1.77129 12.51099,-5.46587 24.00542,-8.21017 l 20.89895,-4.98965 29.58916,11.02869 29.58915,11.02869 4.13006,22.80698 4.13006,22.80699 -16.04674,17.94076 c -8.82571,9.86742 -16.04674,19.15736 -16.04674,20.64432 0,1.48697 9.30192,9.66279 20.67093,18.1685 l 20.67093,15.46494 -25.67093,3.67954 c -14.74452,2.1134 -25.63398,5.02332 -25.58412,6.83666 0.35372,12.86406 17.34213,79.84833 21.68856,85.51664 2.95212,3.84996 10.29747,12.87323 16.323,20.05171 l 10.95552,13.05179 -7.84138,10.28058 c -6.71068,8.79815 -7.26046,10.83443 -3.81266,14.1214 2.2158,2.11246 15.60015,13.79269 29.74301,25.95609 14.14286,12.16337 26.25507,22.58466 26.91603,23.15834 0.66095,0.57372 -1.80835,4.2472 -5.48734,8.16332 l -6.68908,7.1202 9.53757,12.15423 c 5.24567,6.68485 10.63074,13.59931 11.96682,15.36548 1.66148,2.19632 -9.55158,8.38289 -35.47881,19.57463 -32.74386,14.1342 -42.18954,16.90434 -69.33662,20.33434 -17.28571,2.18403 -35.28571,3.86306 -40,3.73123 -4.71429,-0.13171 -31.44375,-7.41257 -59.39881,-16.17934 z"
         id="path849"
         transform="scale(0.26458333)" />
    </g>
    <g
       inkscape:label="Layer 1"
       id="layer1-6"
       transform="matrix(0.06678886,0,0,0.06678886,1.2709151,-0.88594085)">
      <path
         style="fill:#ffffff;fill-opacity:1;stroke:#000000;stroke-width:2.99451135;stroke-linecap:butt;stroke-linejoin:miter;stroke-opacity:1;stroke-miterlimit:4;stroke-dasharray:none"
         d="m 93.811602,44.36674 -3.474503,5.612662 H 79.913587 l -7.750815,5.34539 -0.53454,6.1472 11.49259,32.072341 -2.138156,3.207234 2.939965,4.276313 -1.336347,5.07812 -3.207234,0.53454 -10.423512,8.28535 4.009041,9.08717 16.303442,8.01809 -3.207234,37.95227 -5.34539,19.51067 -6.414469,3.47451 -2.138156,6.68173 -0.267271,13.89802 -11.225318,6.41447 -5.078122,13.63074 1.069078,12.2944 16.30344,14.16529 28.330571,2.13815 25.65787,-2.13815 23.78699,-10.69079 3.20724,-6.949 -2.13816,-14.96709 -14.43255,-15.76891 -2.93997,-16.30344 -6.41447,-6.41447 -8.28535,-34.2105 -1.60362,-24.05425 14.69982,-6.41447 4.54359,-5.07812 -1.60362,-7.48355 -5.61266,-4.00904 -3.4745,-2.6727 -2.40543,-1.33634 -0.80181,-4.009047 2.40543,-3.207234 -1.33635,-2.939966 9.88897,-33.141419 -2.13816,-6.1472 -12.82893,-6.949008 -7.48355,-0.534538 -1.33635,-4.276315 7.75082,-0.534538 0.26727,-13.898014 -10.15625,-1.06908 -2.13815,-9.087163 -8.018086,0.267269 -2.405426,9.621702 -8.552624,-0.267269 -1.336347,14.165287 z"
         id="path3453"
         sodipodi:nodetypes="ccccccccccccccccccccccccccccccccccccccccccccccccccccccc" />
      <path
         style="fill:#000000;fill-opacity:1;stroke:#000000;stroke-width:0.264583px;stroke-linecap:butt;stroke-linejoin:miter;stroke-opacity:1"
         d="m 90.871639,54.522983 7.216275,2.138156 1.603619,1.870887 -7.349914,-0.133635 -2.806329,-2.004521 z"
         id="path3455" />
      <path
         style="fill:#000000;fill-opacity:1;stroke:#000000;stroke-width:0.264583px;stroke-linecap:butt;stroke-linejoin:miter;stroke-opacity:1"
         d="m 75.904544,62.674703 -1.069078,2.672696 1.737252,1.202712 17.105251,3.608138 4.409945,-1.069078 -6.681737,-2.806329 z"
         id="path3457" />
      <path
         style="fill:#000000;fill-opacity:1;stroke:#000000;stroke-width:0.264583px;stroke-linecap:butt;stroke-linejoin:miter;stroke-opacity:1"
         d="m 112.65411,68.153729 4.00904,-1.603618 3.34087,0.267271 -0.53454,1.469983 -4.67722,0.801806 z"
         id="path3459" />
      <path
         style="fill:#000000;fill-opacity:1;stroke:#000000;stroke-width:0.264583px;stroke-linecap:butt;stroke-linejoin:miter;stroke-opacity:1"
         d="m 88.332579,98.355186 8.552624,1.737254 0.534538,2.13815 1.737251,1.73725 v 1.73726 l -13.229841,-2.80633 0.668174,-3.340873 z"
         id="path3461" />
      <path
         style="fill:#000000;fill-opacity:1;stroke:#000000;stroke-width:0.264583px;stroke-linecap:butt;stroke-linejoin:miter;stroke-opacity:1"
         d="m 111.05049,101.96332 1.87088,-0.26727 1.73726,0.93545 -2.53907,1.60361 -1.33634,-0.8018 z"
         id="path3463" />
      <path
         style="fill:#000000;fill-opacity:1;stroke:#000000;stroke-width:0.264583px;stroke-linecap:butt;stroke-linejoin:miter;stroke-opacity:1"
         d="m 81.116301,113.32228 6.280833,1.46998 3.875407,0.40091 -4.810849,-4.94449 0.133633,-4.14268 2.806332,3.74178 1.737251,0.26726 -0.267269,-2.67269 3.474503,-0.13364 0.534538,4.14268 4.142679,0.53454 -0.801809,2.93996 -0.400905,1.33635 1.202714,5.21176 -4.543583,1.06908 4.142679,0.80181 0.534537,3.07359 -1.603615,2.40543 -15.501633,-2.00452 -6.681738,-4.40995 14.833457,2.80633 0.935445,-1.60362 -11.893494,-5.74629 -2.539061,-4.67722 0.935443,-2.40542 2.271791,3.87541 z"
         id="path3465" />
      <path
         style="fill:#000000;fill-opacity:1;stroke:#000000;stroke-width:0.264583px;stroke-linecap:butt;stroke-linejoin:miter;stroke-opacity:1"
         d="m 111.98593,117.86586 1.46998,1.20271 5.21176,-2.13815 -5.21176,-0.66818 z"
         id="path3467" />
      <path
         style="fill:#000000;fill-opacity:1;stroke:#000000;stroke-width:0.264583px;stroke-linecap:butt;stroke-linejoin:miter;stroke-opacity:1"
         d="m 114.92589,126.01758 4.67722,-0.66817 1.33635,2.00452 -5.07812,0.66817 z"
         id="path3469" />
      <path
         style="fill:#000000;fill-opacity:1;stroke:#000000;stroke-width:0.264583px;stroke-linecap:butt;stroke-linejoin:miter;stroke-opacity:1"
         d="m 94.479776,131.76388 2.405427,-0.13364 0.668174,16.97162 0.801809,1.73725 0.935442,-18.57523 1.469982,-0.13364 -0.13363,30.86963 -0.801812,15.90254 -1.069078,23.25245 -9.354433,-1.06908 -6.414468,-3.34087 7.88445,-32.33961 0.935443,-17.90706 0.267269,-11.22532 1.737251,14.03165 z"
         id="path3471" />
      <path
         style="fill:#000000;fill-opacity:1;stroke:#000000;stroke-width:0.264583px;stroke-linecap:butt;stroke-linejoin:miter;stroke-opacity:1"
         d="m 111.8523,196.97764 -0.40091,3.20723 2.00452,1.06908 2.93997,-0.93544 0.53454,-2.93996 -1.73725,-4.67722 -0.93545,4.54358 -1.06908,0.80181 z"
         id="path3473" />
      <path
         style="fill:#000000;fill-opacity:1;stroke:#000000;stroke-width:0.264583px;stroke-linecap:butt;stroke-linejoin:miter;stroke-opacity:1"
         d="m 77.909067,201.65486 5.879928,2.00452 12.02713,1.87088 6.013565,1.33635 -6.013565,1.60362 -11.358956,-1.87089 -7.483547,-2.80633 -0.534538,-1.87088 z"
         id="path3475" />
      <path
         style="fill:#000000;fill-opacity:1;stroke:#000000;stroke-width:0.264583px;stroke-linecap:butt;stroke-linejoin:miter;stroke-opacity:1"
         d="m 114.92589,205.6639 2.40543,-0.26727 2.93997,0.26727 -4.00905,1.73725 -3.20723,-0.53454 z"
         id="path3477" />
      <path
         style="fill:#000000;fill-opacity:1;stroke:#000000;stroke-width:0.264583px;stroke-linecap:butt;stroke-linejoin:miter;stroke-opacity:1"
         d="m 76.439084,215.2856 10.557145,0.13364 11.893495,2.00452 -1.737252,6.94901 -6.147199,8.41899 v 5.87992 l 3.608138,6.81538 v 1.73725 l 16.169809,2.6727 -18.307965,0.8018 -11.091685,-1.06907 -15.234361,-5.47903 -3.474506,-3.0736 -0.935442,-3.60814 1.336347,-1.73725 3.207234,-0.53454 9.087164,-5.61266 V 218.3592 Z"
         id="path3479" />
      <path
         style="fill:#000000;fill-opacity:1;stroke:#000000;stroke-width:0.264583px;stroke-linecap:butt;stroke-linejoin:miter;stroke-opacity:1"
         d="m 115.7277,221.29917 2.80633,-0.13364 2.40543,-2.27179 0.66817,4.54358 -2.80633,1.33635 -3.34087,-0.13364 -0.4009,-3.07359 z"
         id="path3481" />
      <path
         style="fill:#000000;fill-opacity:1;stroke:#000000;stroke-width:0.264583px;stroke-linecap:butt;stroke-linejoin:miter;stroke-opacity:1"
         d="m 120.53856,243.88344 0.80181,0.93544 3.74177,-1.33634 5.21175,1.06907 v -2.67269 l -7.21627,-0.26727 -3.20724,1.20271 z"
         id="path3483" />
      <path
         style="fill:#000000;fill-opacity:1;stroke:#000000;stroke-width:0.264583px;stroke-linecap:butt;stroke-linejoin:miter;stroke-opacity:1"
         d="m 62.808339,248.56066 11.626222,5.07812 14.83346,1.60362 2.539061,0.53454 3.073598,3.60813 -19.243405,-1.33635 -6.815373,-4.54358 z"
         id="path3485" />
      <path
         style="fill:#000000;fill-opacity:1;stroke:#000000;stroke-width:0.264583px;stroke-linecap:butt;stroke-linejoin:miter;stroke-opacity:1"
         d="m 121.07309,256.97965 0.26728,-0.80181 7.34991,-1.20271 v 1.46998 l -5.21176,1.20271 z"
         id="path3487" />
      <path
         style="fill:#000000;fill-opacity:1;stroke:#000000;stroke-width:0.264583px;stroke-linecap:butt;stroke-linejoin:miter;stroke-opacity:1"
         d="m 89.936195,60.269278 7.082641,0.935442 2.672697,0.400905 -0.801809,2.405425 v 1.336349 l -6.548105,-1.603618 z"
         id="path3489" />
      <path
         style="fill:#000000;fill-opacity:1;stroke:#000000;stroke-width:0.264583px;stroke-linecap:butt;stroke-linejoin:miter;stroke-opacity:1"
         d="m 107.70962,57.195677 2.00452,-1.336347 1.33635,1.603618 -1.60362,1.737252 -0.66817,-0.935442 z"
         id="path3491" />
      <path
         style="fill:#000000;fill-opacity:1;stroke:#000000;stroke-width:0.264583px;stroke-linecap:butt;stroke-linejoin:miter;stroke-opacity:1"
         d="m 79.779952,69.089171 3.741774,0.935445 3.875408,18.8425 2.138156,7.082642 -3.340867,-0.668173 -6.548104,-24.187891 z"
         id="path3493" />
      <path
         style="fill:#000000;fill-opacity:1;stroke:#000000;stroke-width:0.264583px;stroke-linecap:butt;stroke-linejoin:miter;stroke-opacity:1"
         d="m 95.014316,75.102738 3.474503,-0.668177 1.469983,13.764382 v 9.488069 L 95.014316,96.885203 94.613411,83.922631 94.479776,76.839989 Z"
         id="path3495" />
    </g>
  </g>
</svg>
