<?xml version="1.0" encoding="UTF-8" standalone="no"?>
<svg
   xmlns:dc="http://purl.org/dc/elements/1.1/"
   xmlns:cc="http://creativecommons.org/ns#"
   xmlns:rdf="http://www.w3.org/1999/02/22-rdf-syntax-ns#"
   xmlns:svg="http://www.w3.org/2000/svg"
   xmlns="http://www.w3.org/2000/svg"
   xmlns:sodipodi="http://sodipodi.sourceforge.net/DTD/sodipodi-0.dtd"
   xmlns:inkscape="http://www.inkscape.org/namespaces/inkscape"
   width="210mm"
   height="297mm"
   viewBox="0 0 210 297"
   version="1.1"
   id="svg5992"
   inkscape:version="1.0.2 (e86c870879, 2021-01-15, custom)"
   sodipodi:docname="wolfie.svg">
  <defs
     id="defs5986" />
  <sodipodi:namedview
     id="base"
     pagecolor="#ffffff"
     bordercolor="#666666"
     borderopacity="1.0"
     inkscape:pageopacity="0.0"
     inkscape:pageshadow="2"
     inkscape:zoom="1.0091449"
     inkscape:cx="645.92494"
     inkscape:cy="584.04037"
     inkscape:document-units="mm"
     inkscape:current-layer="layer1"
     inkscape:document-rotation="0"
     showgrid="false"
     inkscape:window-width="1920"
     inkscape:window-height="1001"
     inkscape:window-x="-9"
     inkscape:window-y="-9"
     inkscape:window-maximized="1" />
  <metadata
     id="metadata5989">
    <rdf:RDF>
      <cc:Work
         rdf:about="">
        <dc:format>image/svg+xml</dc:format>
        <dc:type
           rdf:resource="http://purl.org/dc/dcmitype/StillImage" />
        <dc:title></dc:title>
      </cc:Work>
    </rdf:RDF>
  </metadata>
  <g
     inkscape:label="Layer 1"
     inkscape:groupmode="layer"
     id="layer1">
    <rect
       style="fill:#a00825;stroke-width:1;stroke-linecap:round;fill-opacity:1;stroke-miterlimit:4;stroke-dasharray:none"
       id="rect6629"
       width="191.32584"
       height="176.49437"
       x="6.6741571"
       y="82.314606"
       inkscape:export-filename="C:\Users\ASUS\wolfie.png"
       inkscape:export-xdpi="96.300003"
       inkscape:export-ydpi="96.300003" />
    <path
       style="fill:none;stroke:#ffffff;stroke-width:1;stroke-linecap:butt;stroke-linejoin:miter;stroke-opacity:1;stroke-miterlimit:4;stroke-dasharray:none"
       d="m 47.440341,129.49208 8.418989,4.94449 -9.220798,5.87993 -4.009043,-6.94901 0.668173,-2.67269 z"
       id="path6569" />
    <path
       style="fill:none;stroke:#ffffff;stroke-width:1;stroke-linecap:butt;stroke-linejoin:miter;stroke-opacity:1;stroke-miterlimit:4;stroke-dasharray:none"
       d="m 47.440341,129.49208 3.741772,-0.26726 21.114292,3.4745 8.686261,-3.34087 5.34539,-6.5481 0.801809,-2.93997 0.53454,3.47451 3.608136,-4.40995 v 2.40543 l 11.893499,-6.1472 -0.26727,1.60361 9.35443,-1.06908 25.79151,3.87541 h 3.20723 l -3.07359,2.40543 7.21627,-1.06908 h 6.5481 l -6.949,2.67269 6.5481,1.46999 7.21628,0.26727 4.94448,-1.46998 -2.80633,2.80633 -5.47902,1.73725 5.34539,0.4009 10.02261,-1.46998 4.00904,0.93544"
       id="path6571" />
    <path
       style="fill:none;stroke:#ffffff;stroke-width:1;stroke-linecap:butt;stroke-linejoin:miter;stroke-opacity:1;stroke-miterlimit:4;stroke-dasharray:none"
       d="m 135.23838,167.44436 4.94449,0.13363 7.21627,-0.4009 7.08264,-3.47451 8.68626,-10.95805 7.08265,-8.68626 7.08264,-2.53906 -3.0736,-0.26727 -12.16076,-4.81085 -9.35444,-2.13816 -9.22079,1.20272 -9.62171,5.74629 -3.34087,9.62171 2.53906,5.07812 4.00905,-5.07812 6.01356,-6.1472 -3.4745,6.5481 4.67721,-3.34087 -0.13363,2.13816 4.94449,-3.60814 -0.66818,3.20724 3.47451,-2.80633 1.87088,1.20271 10.02261,-5.87993 -3.87541,5.87993 -7.88445,5.21175 -8.15172,3.74178 -8.15172,1.60361 h 0.66817 l 0.80181,-0.4009"
       id="path6573" />
    <path
       style="fill:none;stroke:#ffffff;stroke-width:1;stroke-linecap:butt;stroke-linejoin:miter;stroke-opacity:1;stroke-miterlimit:4;stroke-dasharray:none"
       d="m 42.629489,133.36749 0.267269,9.2208 2.672696,2.53906 1.603616,0.93545 0.801809,-2.80634 0.267269,2.93997 12.160766,5.07812 12.561667,7.08264 6.949006,10.15625 2.138157,7.48354 -0.534538,7.75082 -2.806332,7.21627 -12.294397,6.94901 -9.755338,3.0736 -2.00452,-0.13363 2.672694,3.20723 8.819896,2.00452 15.234361,-3.0736 10.156243,-1.87088 6.147199,2.27179 3.608138,4.14268 1.20271,4.81085 5.47903,-5.07812 6.28083,-4.14268 2.40543,-6.1472 0.4009,-3.47451"
       id="path6575" />
    <path
       style="fill:none;stroke:#ffffff;stroke-width:1;stroke-linecap:butt;stroke-linejoin:miter;stroke-opacity:1;stroke-miterlimit:4;stroke-dasharray:none"
       d="m 91.539813,201.12032 2.672694,3.0736 1.870887,5.47902 -1.737252,5.21176 -2.138156,1.73725 4.944486,-2.13816 2.405425,-2.93996 -2.539061,4.27631 3.474504,-0.93544 -2.672695,3.74177 -5.879927,4.27631 8.953532,-2.80633 7.88445,-7.48354 -2.80633,6.5481 -4.54359,4.94449"
       id="path6577" />
    <path
       style="fill:none;stroke:#ffffff;stroke-width:1;stroke-linecap:butt;stroke-linejoin:miter;stroke-opacity:1;stroke-miterlimit:4;stroke-dasharray:none"
       d="m 121.07309,188.29138 -8.81989,-0.66817 -6.94901,0.93544 6.94901,2.13816 2.13816,1.73725 -6.54811,-0.66818 -4.54358,0.66818 4.81085,2.67269 1.20272,8.15172"
       id="path6579" />
    <path
       style="fill:none;stroke:#ffffff;stroke-width:1;stroke-linecap:butt;stroke-linejoin:miter;stroke-opacity:1;stroke-miterlimit:4;stroke-dasharray:none"
       d="m 103.0324,198.84853 1.60362,4.27631 -0.13363,4.54358 -2.00453,4.67722"
       id="path6581" />
    <path
       style="fill:none;stroke:#ffffff;stroke-width:1;stroke-linecap:butt;stroke-linejoin:miter;stroke-opacity:1;stroke-miterlimit:4;stroke-dasharray:none"
       d="m 61.338356,146.99824 9.220798,4.67722 11.626225,11.35895 15.501633,10.42351"
       id="path6583" />
    <path
       style="fill:none;stroke:#ffffff;stroke-width:1;stroke-linecap:butt;stroke-linejoin:miter;stroke-opacity:1;stroke-miterlimit:4;stroke-dasharray:none"
       d="m 93.811602,168.64707 12.027128,5.7463 -5.07812,-4.81086 8.68626,4.40995 -2.6727,-3.34087 7.08265,2.80633 7.08264,3.60814"
       id="path6585" />
    <path
       style="fill:none;stroke:#ffffff;stroke-width:1;stroke-linecap:butt;stroke-linejoin:miter;stroke-opacity:1;stroke-miterlimit:4;stroke-dasharray:none"
       d="m 69.089171,145.66189 9.087165,3.20724 8.285356,5.87992 10.423511,10.82442"
       id="path6587" />
    <path
       style="fill:none;stroke:#ffffff;stroke-width:1;stroke-linecap:butt;stroke-linejoin:miter;stroke-opacity:1;stroke-miterlimit:4;stroke-dasharray:none"
       d="m 60.670183,141.78648 10.15624,0.80181 13.229844,4.14268"
       id="path6589" />
    <path
       style="fill:none;stroke:#ffffff;stroke-width:1;stroke-linecap:butt;stroke-linejoin:miter;stroke-opacity:1;stroke-miterlimit:4;stroke-dasharray:none"
       d="m 64.278321,139.64833 12.561668,1.60361 5.746295,1.20272"
       id="path6591" />
    <path
       style="fill:none;stroke:#ffffff;stroke-width:1;stroke-linecap:butt;stroke-linejoin:miter;stroke-opacity:1;stroke-miterlimit:4;stroke-dasharray:none"
       d="m 82.987189,131.63024 -5.078122,2.40543 -2.405427,0.13363 3.340869,1.87089 2.405425,3.4745"
       id="path6593" />
    <path
       style="fill:none;stroke:#ffffff;stroke-width:1;stroke-linecap:butt;stroke-linejoin:miter;stroke-opacity:1;stroke-miterlimit:4;stroke-dasharray:none"
       d="m 56.527503,130.29389 6.280836,5.7463"
       id="path6595" />
    <path
       style="fill:none;stroke:#ffffff;stroke-width:1;stroke-linecap:butt;stroke-linejoin:miter;stroke-opacity:1;stroke-miterlimit:4;stroke-dasharray:none"
       d="m 45.569454,145.12735 1.202714,7.88445 1.603616,1.06908 0.133635,-3.74177 1.737252,0.8018 h 1.603616 l 1.336349,1.20272 4.543581,-0.13364 3.875408,1.60362 v 2.40543 l -1.202711,7.08264 1.336347,3.74177 -4.677217,-5.07812 -2.004523,-9.75534 v 4.14268 l -0.668174,0.93544 -1.336347,-2.13815 -0.299695,-1.25529 -0.81663,1.80604 -1.367383,-1.53344 0.07828,-2.62545 -0.668174,3.60814 -1.603618,-1.06908 v 0"
       id="path6597"
       sodipodi:nodetypes="cccccccccccccccccccccccc" />
    <path
       style="fill:none;stroke:#ffffff;stroke-width:1;stroke-linecap:butt;stroke-linejoin:miter;stroke-opacity:1;stroke-miterlimit:4;stroke-dasharray:none"
       d="m 53.186636,194.03768 -1.069078,5.21175 2.539061,1.60362 2.00452,0.13363 9.755338,-3.0736 12.294397,-6.94901 2.806332,-7.21627 -4.142679,1.73725 -1.870887,2.00452 -6.147197,2.53906 -4.543584,1.60362 h -0.534538"
       id="path6599" />
    <path
       style="fill:none;stroke:#ffffff;stroke-width:1;stroke-linecap:butt;stroke-linejoin:miter;stroke-opacity:1;stroke-miterlimit:4;stroke-dasharray:none"
       d="m 61.605625,156.21904 4.276312,7.34991 1.469983,8.68626 -1.069078,9.08716 -2.80633,4.14268 -1.202714,1.60362"
       id="path6601" />
    <path
       style="fill:none;stroke:#ffffff;stroke-width:1;stroke-linecap:butt;stroke-linejoin:miter;stroke-opacity:1;stroke-miterlimit:4;stroke-dasharray:none"
       d="m 80.448128,173.19065 -3.87541,0.80181 -5.211755,3.87541 -2.672696,4.81085 -2.539058,3.87541 -3.357914,1.91425"
       id="path6603" />
    <path
       style="fill:none;stroke:#ffffff;stroke-width:1;stroke-linecap:butt;stroke-linejoin:miter;stroke-opacity:1;stroke-miterlimit:4;stroke-dasharray:none"
       d="m 62.366072,183.79092 -0.09227,3.29775 2.004523,4.54358 -0.683829,1.74982 -1.795385,1.18117 -3.307292,-1.13393 -0.377976,-3.49628 1.606399,-3.26004 z"
       id="path6605" />
    <path
       style="fill:none;stroke:#ffffff;stroke-width:1;stroke-linecap:butt;stroke-linejoin:miter;stroke-opacity:1;stroke-miterlimit:4;stroke-dasharray:none"
       d="m 56.271204,183.03497 0.04725,2.64583 1.228423,3.26005 v 2.3151 l -1.41741,1.65365 -2.942828,1.12808 -0.317217,-3.44319 0.803199,-3.49628 1.653645,-2.69308 z"
       id="path6607" />
    <path
       style="fill:none;stroke:#ffffff;stroke-width:1;stroke-linecap:butt;stroke-linejoin:miter;stroke-opacity:1;stroke-miterlimit:4;stroke-dasharray:none"
       d="m 54.334076,193.42931 2.929316,1.41741 4.535717,-0.28348 7.181546,-1.79538 4.488466,-2.45685 2.976562,-2.07887"
       id="path6609" />
    <path
       style="fill:none;stroke:#ffffff;stroke-width:1;stroke-linecap:butt;stroke-linejoin:miter;stroke-opacity:1;stroke-miterlimit:4;stroke-dasharray:none"
       d="m 49.979402,155.14996 0.0079,2.32437 2.645833,4.86644 3.212798,2.59859 -1.370163,-3.11831 -0.661458,-2.40959 -0.04725,-3.02381"
       id="path6611" />
    <path
       style="fill:none;stroke:#ffffff;stroke-width:1;stroke-linecap:butt;stroke-linejoin:miter;stroke-opacity:1;stroke-miterlimit:4;stroke-dasharray:none"
       d="m 64.822916,131.58296 2.740326,1.79539 2.929316,2.3151 2.929316,0.99219"
       id="path6613" />
    <path
       style="fill:none;stroke:#ffffff;stroke-width:1;stroke-linecap:butt;stroke-linejoin:miter;stroke-opacity:1;stroke-miterlimit:4;stroke-dasharray:none"
       d="m 74.083332,134.79576 2.315105,1.27567 3.49628,3.54352"
       id="path6615" />
    <path
       style="fill:none;stroke:#ffffff;stroke-width:1;stroke-linecap:butt;stroke-linejoin:miter;stroke-opacity:1;stroke-miterlimit:4;stroke-dasharray:none"
       d="m 91.186756,123.22024 -3.921504,3.44903 3.449032,-1.74814 5.953125,-1.88988 3.590771,-0.37798 -4.630205,1.55916 -3.401785,1.88987 4.015996,-0.99218 4.488464,0.0945 -5.197169,1.22842 -2.834822,1.08669 4.393975,-0.42523 6.142116,0.75596 4.91369,0.94494 -5.00819,0.23623 -3.779759,0.56697 -3.543527,1.22842 -2.078868,0.89769 3.496278,0.18899 1.937128,0.42522 -3.921503,0.94494 2.882069,0.70871 2.834822,0.89769 1.84263,0.66146"
       id="path6617" />
    <path
       style="fill:#ffffff;stroke:#ffffff;stroke-width:0.5;stroke-linecap:butt;stroke-linejoin:miter;stroke-opacity:1;stroke-miterlimit:4;stroke-dasharray:none;fill-opacity:1"
       d="m 85.7061,140.41815 -1.795386,-1.88988 -1.842635,-1.37016 v -0.42522 l 1.984375,0.56696 2.362351,-0.51972 2.078871,-1.46466 2.787573,-0.75595 -2.929316,1.27567 -2.220611,1.51191 2.929316,-0.0945 3.212798,-1.08668 3.779764,-0.28348 3.590771,0.33073 4.346729,0.23624 -1.79539,0.18898 -4.252231,0.33073 -1.700893,0.37798 1.748139,1.22842 1.6064,1.18118 2.976565,0.66145 1.08668,0.23624 -2.4096,0.18899 -2.740326,0.14174 -3.118303,0.42522 -0.566965,0.23623 0.897695,0.47248 1.22842,1.37016 -2.267857,-0.99219 -2.882067,0.33073 -2.031621,-1.55915 -2.74033,-1.65365 -1.606399,-0.94494 -1.086681,-0.42522 z"
       id="path6619"
       sodipodi:nodetypes="ccccccccccccccccccccccccccccccccccc" />
    <path
       style="fill:#a00825;stroke:#a00824;stroke-width:0.5;stroke-linecap:butt;stroke-linejoin:miter;stroke-opacity:1;stroke-miterlimit:4;stroke-dasharray:none;fill-opacity:1"
       d="m 85.954147,138.2566 2.256046,-0.37797 -0.236236,0.66145 0.188989,1.13393 -1.441034,-1.03943 -0.815012,-0.38979 z"
       id="path6621" />
    <path
       style="fill:#a00825;stroke:#a00824;stroke-width:0.5;stroke-linecap:butt;stroke-linejoin:miter;stroke-opacity:1;stroke-miterlimit:4;stroke-dasharray:none;fill-opacity:1"
       d="m 88.871651,138.09124 1.559153,-0.51972 -0.401601,1.45285 0.03544,1.41741 -1.252048,-1.05125 -0.165364,-0.83863 z"
       id="path6623" />
    <path
       style="fill:#a00825;stroke:#a00824;stroke-width:0.5;stroke-linecap:butt;stroke-linejoin:miter;stroke-opacity:1;stroke-miterlimit:4;stroke-dasharray:none;fill-opacity:1"
       d="m 93.005766,138.03218 1.157552,0.0236 0.897694,0.59058 -0.224425,1.004 -0.897694,0.77958 -0.88588,0.49609 -1.736329,-0.0709 1.015813,-1.54734 0.507904,-1.03943 z"
       id="path6625" />
    <path
       style="fill:#a00825;stroke:#a00824;stroke-width:0.5;stroke-linecap:butt;stroke-linejoin:miter;stroke-opacity:1;stroke-miterlimit:4;stroke-dasharray:none;fill-opacity:1"
       d="m 95.769717,138.64639 1.830822,1.06306 1.381974,0.53153 -1.830822,0.25986 -1.122116,0.0709 -1.169363,0.41341 0.696894,-0.82683 0.224422,-0.82682 z"
       id="path6627" />
  </g>
</svg>
