<?xml version="1.0" encoding="UTF-8" standalone="no"?>
<svg
   xmlns:dc="http://purl.org/dc/elements/1.1/"
   xmlns:cc="http://creativecommons.org/ns#"
   xmlns:rdf="http://www.w3.org/1999/02/22-rdf-syntax-ns#"
   xmlns:svg="http://www.w3.org/2000/svg"
   xmlns="http://www.w3.org/2000/svg"
   xmlns:sodipodi="http://sodipodi.sourceforge.net/DTD/sodipodi-0.dtd"
   xmlns:inkscape="http://www.inkscape.org/namespaces/inkscape"
   width="64"
   height="64"
   viewBox="0 0 16.933333 16.933333"
   version="1.1"
   id="svg6377"
   inkscape:export-filename="C:\Users\ASUS\wbishop1.png"
   inkscape:export-xdpi="96.000008"
   inkscape:export-ydpi="96.000008"
   inkscape:version="1.0.2 (e86c870879, 2021-01-15, custom)"
   sodipodi:docname="wrook1.svg">
  <defs
     id="defs6371" />
  <sodipodi:namedview
     id="base"
     pagecolor="#ffffff"
     bordercolor="#666666"
     borderopacity="1.0"
     inkscape:pageopacity="0.0"
     inkscape:pageshadow="2"
     inkscape:zoom="12.515625"
     inkscape:cx="62.793136"
     inkscape:cy="32.591578"
     inkscape:document-units="mm"
     inkscape:current-layer="layer1"
     inkscape:document-rotation="0"
     showgrid="false"
     units="px"
     inkscape:window-width="1920"
     inkscape:window-height="1001"
     inkscape:window-x="-9"
     inkscape:window-y="-9"
     inkscape:window-maximized="1" />
  <metadata
     id="metadata6374">
    <rdf:RDF>
      <cc:Work
         rdf:about="">
        <dc:format>image/svg+xml</dc:format>
        <dc:type
           rdf:resource="http://purl.org/dc/dcmitype/StillImage" />
        <dc:title></dc:title>
      </cc:Work>
    </rdf:RDF>
  </metadata>
  <g
     inkscape:label="Layer 1"
     inkscape:groupmode="layer"
     id="layer1">
    <g
       inkscape:label="Layer 1"
       id="layer1-6"
       transform="matrix(0.13499396,0,0,0.13499396,-4.6787683,-9.5470865)">
      <path
         style="fill:none;stroke:none;stroke-width:2.85714"
         d="m 280.60119,703.52923 -50.82737,-15.9396 12.25595,-12.59834 12.25594,-12.59832 -11.27731,-9.84311 -11.27731,-9.84312 18.45543,-19.21051 c 10.15048,-10.56577 23.58242,-24.74326 29.84874,-31.50552 l 11.39331,-12.29497 -7.14286,-5.60119 -7.14285,-5.60117 6.65,-5.59826 c 3.6575,-3.07904 9.84535,-7.92591 13.75078,-10.77081 6.07458,-4.42502 8.92195,-12.79762 19.70238,-57.93415 6.93088,-29.01887 12.63588,-54.31673 12.67779,-56.21747 0.0521,-2.36091 -7.31045,-3.7188 -23.23709,-4.28571 l -23.31329,-0.82984 20.45614,-11.19589 c 11.25088,-6.15775 20.45614,-12.11352 20.45614,-13.23506 0,-1.12153 -6.41008,-15.36909 -14.24464,-31.66124 -7.83455,-16.29215 -14.26312,-31.70064 -14.28571,-34.24108 -0.0523,-5.8836 11.32119,-34.34819 15.42389,-38.60153 1.70856,-1.77129 12.51099,-5.46587 24.00542,-8.21017 l 20.89895,-4.98965 29.58916,11.02869 29.58915,11.02869 4.13006,22.80698 4.13006,22.80699 -16.04674,17.94076 c -8.82571,9.86742 -16.04674,19.15736 -16.04674,20.64432 0,1.48697 9.30192,9.66279 20.67093,18.1685 l 20.67093,15.46494 -25.67093,3.67954 c -14.74452,2.1134 -25.63398,5.02332 -25.58412,6.83666 0.35372,12.86406 17.34213,79.84833 21.68856,85.51664 2.95212,3.84996 10.29747,12.87323 16.323,20.05171 l 10.95552,13.05179 -7.84138,10.28058 c -6.71068,8.79815 -7.26046,10.83443 -3.81266,14.1214 2.2158,2.11246 15.60015,13.79269 29.74301,25.95609 14.14286,12.16337 26.25507,22.58466 26.91603,23.15834 0.66095,0.57372 -1.80835,4.2472 -5.48734,8.16332 l -6.68908,7.1202 9.53757,12.15423 c 5.24567,6.68485 10.63074,13.59931 11.96682,15.36548 1.66148,2.19632 -9.55158,8.38289 -35.47881,19.57463 -32.74386,14.1342 -42.18954,16.90434 -69.33662,20.33434 -17.28571,2.18403 -35.28571,3.86306 -40,3.73123 -4.71429,-0.13171 -31.44375,-7.41257 -59.39881,-16.17934 z"
         id="path849-5"
         transform="scale(0.26458333)" />
    </g>
    <g
       inkscape:label="Layer 1"
       id="layer1-0"
       transform="matrix(0.09284427,0,0,0.09284427,-1.515498,-4.6444132)">
      <path
         style="fill:#ffffff;fill-opacity:1;stroke:#000000;stroke-width:2.15414478;stroke-linecap:butt;stroke-linejoin:miter;stroke-opacity:1;stroke-miterlimit:4;stroke-dasharray:none"
         d="m 76.162201,56.318451 8.504464,1.13393 2.456845,9.827379 13.60714,-0.377976 -0.18898,-10.016368 7.74851,-2.078868 4.34673,2.078867 v 9.827382 l 12.09523,-0.188989 2.83482,-8.504465 9.82738,-1.700892 -6.2366,30.238096 1.5119,2.267858 0.18899,6.425594 -3.02381,2.267857 -6.99256,0.377976 3.02381,54.050598 5.66964,10.58333 6.04762,7.9375 -1.32292,9.4494 -6.2366,4.15774 0.75595,2.45685 5.48065,1.5119 0.75596,3.77976 -3.96875,2.45685 10.96131,17.3869 4.91369,2.45685 -0.18899,14.93006 -85.044642,0.37798 -0.188989,-14.74108 6.425594,-3.21279 10.583333,-17.19792 -4.535712,-1.88988 0.377976,-3.77976 5.291666,-1.51191 0.188987,-2.83482 -5.291666,-3.77976 -1.511904,-9.44941 11.717261,-16.25297 3.401786,-57.452382 -7.559525,0.377975 -2.83482,-2.645831 -0.377977,-4.157739 1.889883,-3.590774 2.267857,-0.377976 z"
         id="path1442"
         sodipodi:nodetypes="cccccccccccccccccccccccccccccccccccccccccccccc" />
      <path
         style="fill:#000000;fill-opacity:1;stroke:none;stroke-width:0.264583px;stroke-linecap:butt;stroke-linejoin:miter;stroke-opacity:1"
         d="M 80.036457,59.153273 85.753346,86.698287 98.179315,86.367558 97.61235,68.035714 86.131322,68.366443 83.816219,59.531249 Z"
         id="path1444"
         sodipodi:nodetypes="ccccccc" />
      <path
         style="fill:#000000;fill-opacity:1;stroke:none;stroke-width:0.264583px;stroke-linecap:butt;stroke-linejoin:miter;stroke-opacity:1"
         d="m 105.5026,86.745534 23.85975,-0.283483 6.37835,-26.694566 -7.27604,0.519716 -2.59859,7.701267 -6.56734,0.803198 -15.0718,17.859375 z"
         id="path1446" />
      <path
         style="fill:#000000;fill-opacity:1;stroke:none;stroke-width:0.264583px;stroke-linecap:butt;stroke-linejoin:miter;stroke-opacity:1"
         d="m 82.635044,88.540922 0.04725,2.173362 33.261906,-0.04725 -0.0472,-2.409597 z"
         id="path1448" />
      <path
         style="fill:#000000;fill-opacity:1;stroke:none;stroke-width:0.264583px;stroke-linecap:butt;stroke-linejoin:miter;stroke-opacity:1"
         d="m 131.29948,89.060638 0.51972,6.094868 -2.88207,1.559152 -23.24554,0.708705 -14.504834,0.14174 -0.141743,-1.27567 31.797247,-4.724702 z"
         id="path1450" />
      <path
         style="fill:#000000;fill-opacity:1;stroke:none;stroke-width:0.264583px;stroke-linecap:butt;stroke-linejoin:miter;stroke-opacity:1"
         d="m 91.942707,99.171502 -0.09449,3.590778 15.449773,1.18117 8.40997,5.43341 2.88207,10.2526 2.50409,23.1038 0.47247,7.89025 3.87426,11.19754 7.98475,8.40998 -1.22843,8.50446 -8.45722,1.13393 -24.190469,0.42522 -22.442336,-1.93713 6.236607,4.44122 46.207588,-0.0945 5.33891,-2.88207 1.41741,-9.49665 -8.50446,-10.06362 -3.9215,-10.2526 -1.46466,-30.89955 -0.75595,-11.67002 -0.51972,-9.449405 z"
         id="path1452" />
      <path
         style="fill:#000000;fill-opacity:1;stroke:none;stroke-width:0.264583px;stroke-linecap:butt;stroke-linejoin:miter;stroke-opacity:1"
         d="m 82.776784,183.97991 -0.09449,3.40179 46.585566,-0.0945 -0.42523,-3.68527 z"
         id="path1454" />
      <path
         style="fill:#000000;fill-opacity:1;stroke:none;stroke-width:0.264583px;stroke-linecap:butt;stroke-linejoin:miter;stroke-opacity:1"
         d="m 109.99107,188.23214 0.0945,1.22842 -30.946797,-0.0472 1.700893,-1.46466 z"
         id="path1456" />
      <path
         style="fill:#000000;fill-opacity:1;stroke:none;stroke-width:0.264583px;stroke-linecap:butt;stroke-linejoin:miter;stroke-opacity:1"
         d="m 82.020832,194.27976 -2.36235,4.39397 37.561388,-0.28348 11.43377,1.98438 6.04762,3.9215 5.24442,9.02418 -30.99404,-0.28348 -14.504839,-0.18899 15.922249,1.08668 21.16666,0.85045 13.41816,0.94494 2.03162,4.48847 -0.61421,6.37834 -81.831847,0.0472 0.18899,1.93713 82.682287,-0.33073 0.85045,-8.26823 -1.27567,-5.33891 -4.44122,-2.50409 -11.10305,-18.19011 z"
         id="path1458" />
      <path
         style="fill:#000000;fill-opacity:1;stroke:none;stroke-width:0.264583px;stroke-linecap:butt;stroke-linejoin:miter;stroke-opacity:1"
         d="m 93.123884,105.21912 8.268226,0.42523 -0.94494,32.50595 -3.779761,25.46614 -0.377976,4.63021 4.677457,2.59859 14.03237,4.34672 -21.780883,0.33073 -12.945684,-2.26786 -1.984375,-2.3151 11.339285,-16.25298 z"
         id="path1460" />
    </g>
  </g>
</svg>
