<?xml version="1.0" encoding="UTF-8" standalone="no"?>
<!-- Created with Inkscape (http://www.inkscape.org/) -->

<svg
   xmlns:dc="http://purl.org/dc/elements/1.1/"
   xmlns:cc="http://creativecommons.org/ns#"
   xmlns:rdf="http://www.w3.org/1999/02/22-rdf-syntax-ns#"
   xmlns:svg="http://www.w3.org/2000/svg"
   xmlns="http://www.w3.org/2000/svg"
   xmlns:sodipodi="http://sodipodi.sourceforge.net/DTD/sodipodi-0.dtd"
   xmlns:inkscape="http://www.inkscape.org/namespaces/inkscape"
   width="744.09448819"
   height="1052.3622047"
   id="svg2"
   version="1.1"
   inkscape:version="0.48.4 r9939"
   sodipodi:docname="New document 1">
  <defs
     id="defs4" />
  <sodipodi:namedview
     id="base"
     pagecolor="#ffffff"
     bordercolor="#666666"
     borderopacity="1.0"
     inkscape:pageopacity="0.0"
     inkscape:pageshadow="2"
     inkscape:zoom="0.49497475"
     inkscape:cx="343.68613"
     inkscape:cy="520"
     inkscape:document-units="px"
     inkscape:current-layer="layer1"
     showgrid="false"
     inkscape:window-width="1366"
     inkscape:window-height="715"
     inkscape:window-x="-8"
     inkscape:window-y="-8"
     inkscape:window-maximized="1" />
  <metadata
     id="metadata7">
    <rdf:RDF>
      <cc:Work
         rdf:about="">
        <dc:format>image/svg+xml</dc:format>
        <dc:type
           rdf:resource="http://purl.org/dc/dcmitype/StillImage" />
        <dc:title></dc:title>
      </cc:Work>
    </rdf:RDF>
  </metadata>
  <g
     inkscape:label="Layer 1"
     inkscape:groupmode="layer"
     id="layer1">
    <path
       style="fill:#333333;stroke:#000000;stroke-width:1px;stroke-linecap:butt;stroke-linejoin:miter;stroke-opacity:1"
       d="m 174.28571,328.07647 c 30.00001,-40 106.16071,-37.37108 125.71429,1.42857 14.65519,29.07991 28.57143,64.28571 82.85714,44.28571 54.28572,-20 71.42857,-24.28571 71.42857,-24.28571 0,0 55.71429,-17.14286 34.28572,88.57143 -21.42857,105.71428 -80,102.85714 -152.85714,38.57143 C 262.85714,412.36218 154.28571,449.50504 170,485.21933 c 15.71429,35.71428 37.14286,115.71428 -41.42857,82.85714 -78.57143,-32.85714 -20,-68.57143 -44.285716,-130 C 60,376.6479 111.42857,410.93362 135.71429,386.6479 c 19.40439,-19.4044 38.57142,-58.57143 38.57142,-58.57143 z"
       id="path2985"
       inkscape:connector-curvature="0"
       sodipodi:nodetypes="csscssssssc" />
    <path
       style="fill:#800000;stroke:#000000;stroke-width:1px;stroke-linecap:butt;stroke-linejoin:miter;stroke-opacity:1"
       d="m 227.14286,625.21933 c 0,0 44.28571,-75.71429 87.14285,-37.14286 42.85715,38.57143 107.14286,-17.14286 107.14286,-17.14286 90.64525,-6.01103 104.0385,36.53635 61.42857,114.28572 0,0 -68.57143,204.28571 -167.14285,160 -98.57143,-44.28572 97.14285,-110 28.57142,-138.57143 -68.57142,-28.57143 -98.57142,118.57143 -141.42857,48.57143 -42.85714,-70 55.71429,-40 62.85715,-88.57143 7.14285,-48.57143 -38.57143,-41.42857 -38.57143,-41.42857 z"
       id="path2987"
       inkscape:connector-curvature="0"
       sodipodi:nodetypes="csccssssc" />
    <path
       style="fill:#483737;stroke:#000000;stroke-width:1px;stroke-linecap:butt;stroke-linejoin:miter;stroke-opacity:1"
       d="M 103.03556,76.554824 C 26.263966,129.08275 52.527932,185.6513 123.23861,181.61069 c 70.71068,-4.04061 26.26397,-92.934035 119.198,-84.852815 92.93403,8.081225 -24.24366,72.730985 60.60915,86.873115 84.85282,14.14214 145.46197,-60.60915 74.75129,-92.93403 C 307.08637,58.372079 226.27417,62.412689 226.27417,62.412689 l -64.64976,2.020304 z"
       id="path2989"
       inkscape:connector-curvature="0"
       sodipodi:nodetypes="cssssccc" />
    <path
       style="fill:#ff6600;stroke:#000000;stroke-width:1px;stroke-linecap:butt;stroke-linejoin:miter;stroke-opacity:1"
       d="m 618.21336,32.108112 c -115.15739,76.771598 60.60915,131.319828 -12.12183,200.010208 -72.73099,68.69037 -64.64977,161.6244 -8.08122,135.36044 56.56854,-26.26397 26.26396,-183.84777 70.71067,-155.56349 44.44672,28.28427 74.75129,-62.62946 18.18275,-98.99495 -56.56854,-36.365496 -40.4061,56.56854 -64.64976,18.18274 -24.24366,-38.385795 -4.04061,-98.994948 -4.04061,-98.994948 z"
       id="path2991"
       inkscape:connector-curvature="0" />
    <path
       style="fill:#916f6f;stroke:#000000;stroke-width:1px;stroke-linecap:butt;stroke-linejoin:miter;stroke-opacity:1"
       d="m 163.64471,892.75808 c 8.08122,74.75129 109.09648,143.44162 153.54319,60.60915 44.44671,-82.83251 -94.95434,-119.198 -94.95434,-119.198 0,0 62.86455,59.7689 62.62946,86.87312 -0.42797,49.34328 -42.42641,36.3655 -42.42641,36.3655 -29.08893,1.20988 -56.75438,-40.28222 -78.7919,-64.64977 z"
       id="path2993"
       inkscape:connector-curvature="0"
       sodipodi:nodetypes="cscscc" />
    <path
       style="fill:#4d4d4d;stroke:#000000;stroke-width:1px;stroke-linecap:butt;stroke-linejoin:miter;stroke-opacity:1"
       d="M 650.53824,567.48896 C 553.56359,460.41279 519.21841,523.04225 519.21841,533.14377 c 0,10.10153 111.11677,16.16245 48.48732,105.05587 -62.62946,88.89342 18.18275,84.85281 18.18275,84.85281 46.60449,21.48119 30.7026,74.21556 14.14213,127.27922 30.30458,7.40779 104.3807,-4.83176 96.97465,-195.96959 -52.63691,-34.66091 -11.446,-49.15759 -46.46702,-86.87312 z"
       id="path2995"
       inkscape:connector-curvature="0"
       sodipodi:nodetypes="csscccc" />
    <path
       style="fill:#2b0000;stroke:#000000;stroke-width:1px;stroke-linecap:butt;stroke-linejoin:miter;stroke-opacity:1"
       d="M 155.56349,795.78344 C 118.77432,701.57978 82.413085,861.90816 86.873119,894.77839 73.061841,842.58984 100.69464,771.56306 34.345187,743.2555 37.279072,677.53764 50.20829,602.0586 70.710678,603.85445 56.991773,656.14341 187.95793,735.26825 155.56349,795.78344 z"
       id="path2997"
       inkscape:connector-curvature="0"
       sodipodi:nodetypes="ccccc" />
    <path
       style="fill:#333333;stroke:#000000;stroke-width:1px;stroke-linecap:butt;stroke-linejoin:miter;stroke-opacity:1"
       d="m 511.13719,702.8494 c -64.64977,70.71068 -55.61271,134.12989 -22.22336,167.68532 51.52677,51.78306 138.97786,-49.92863 92.93404,-115.15738 -32.02236,-6.9309 -76.00139,2.37691 -70.71068,-52.52794 z"
       id="path2999"
       inkscape:connector-curvature="0"
       sodipodi:nodetypes="cscc" />
    <path
       style="fill:#009ec3;fill-opacity:1;stroke:#000000;stroke-width:1px;stroke-linecap:butt;stroke-linejoin:miter;stroke-opacity:1"
       d="m 496.99505,173.52947 c -62.62946,14.14213 35.084,157.12584 -46.46702,133.34013 -48.48732,-14.14213 -50.50763,-86.87311 -50.50763,-86.87311 0,0 6.43646,-78.11847 78.7919,-101.01526 29.23294,-17.4337 134.84924,-19.670338 101.01526,46.46702 -31.21348,61.0149 -82.83251,7.48223 -82.83251,8.08122 z"
       id="path3001"
       inkscape:connector-curvature="0"
       sodipodi:nodetypes="csccsc" />
    <path
       style="fill:#185500;stroke:#000000;stroke-width:1px;stroke-linecap:butt;stroke-linejoin:miter;stroke-opacity:1;fill-opacity:1"
       d="m 434.36559,842.25045 c 0,0 -130.05087,169.68955 -32.32487,189.90865 117.17769,24.2437 171.72593,-34.34515 171.72593,-34.34515 0,0 202.47319,65.97815 141.42135,-125.25892 0,0 -9.24198,143.72097 -98.99495,96.97464 -96.97465,-50.50763 -123.2386,56.56853 -185.86807,-6.06091 -38.80879,-38.80879 4.04061,-121.21831 4.04061,-121.21831 z"
       id="path3771"
       inkscape:connector-curvature="0"
       sodipodi:nodetypes="cscsssc" />
  </g>
</svg>
