<?xml version="1.0" encoding="UTF-8" standalone="no"?>
<!-- Created with Inkscape (http://www.inkscape.org/) -->

<svg
   xmlns:dc="http://purl.org/dc/elements/1.1/"
   xmlns:cc="http://creativecommons.org/ns#"
   xmlns:rdf="http://www.w3.org/1999/02/22-rdf-syntax-ns#"
   xmlns:svg="http://www.w3.org/2000/svg"
   xmlns="http://www.w3.org/2000/svg"
   xmlns:sodipodi="http://sodipodi.sourceforge.net/DTD/sodipodi-0.dtd"
   xmlns:inkscape="http://www.inkscape.org/namespaces/inkscape"
   width="744.09448819"
   height="1052.3622047"
   id="svg4335"
   version="1.1"
   inkscape:version="0.48.4 r9939"
   sodipodi:docname="New document 5">
  <defs
     id="defs4337" />
  <sodipodi:namedview
     id="base"
     pagecolor="#ffffff"
     bordercolor="#666666"
     borderopacity="1.0"
     inkscape:pageopacity="0.0"
     inkscape:pageshadow="2"
     inkscape:zoom="0.49497475"
     inkscape:cx="357.32233"
     inkscape:cy="520"
     inkscape:document-units="px"
     inkscape:current-layer="layer1"
     showgrid="false"
     inkscape:window-width="1366"
     inkscape:window-height="715"
     inkscape:window-x="-8"
     inkscape:window-y="-8"
     inkscape:window-maximized="1" />
  <metadata
     id="metadata4340">
    <rdf:RDF>
      <cc:Work
         rdf:about="">
        <dc:format>image/svg+xml</dc:format>
        <dc:type
           rdf:resource="http://purl.org/dc/dcmitype/StillImage" />
        <dc:title></dc:title>
      </cc:Work>
    </rdf:RDF>
  </metadata>
  <g
     inkscape:label="Layer 1"
     inkscape:groupmode="layer"
     id="layer1">
    <path
       style="fill:#333333;stroke:#000000;stroke-width:1px;stroke-linecap:butt;stroke-linejoin:miter;stroke-opacity:1"
       d="M 355.5737,264.44319 325.26912,86.65635 442.44681,24.026892 595.99,121.00154 600.03062,292.72747 575.78695,131.10306 434.3656,58.372079 357.594,104.8391 z"
       id="path4361"
       inkscape:connector-curvature="0"
       sodipodi:nodetypes="ccccccccc" />
    <path
       style="fill:#333333;stroke:#000000;stroke-width:1px;stroke-linecap:butt;stroke-linejoin:miter;stroke-opacity:1;fill-opacity:1"
       d="m 337.14286,318.07647 120,-108.57143 110,38.57143 38.57143,132.85714 -112.85715,74.28572 -91.42857,55.71428 14.28572,194.28572 -120,77.14285 L 174.28571,738.07647 200,540.93361 44.285714,466.6479 61.428572,298.07647 l 149.999998,-90 z"
       id="path4345"
       inkscape:connector-curvature="0"
       sodipodi:nodetypes="cccccccccccccc" />
    <path
       style="fill:#ffffff;stroke:#000000;stroke-width:1px;stroke-linecap:butt;stroke-linejoin:miter;stroke-opacity:1"
       d="M 135.71429,365.21933 172.85714,339.50504 270,403.79076 l 12.85714,44.28571 z"
       id="path4347"
       inkscape:connector-curvature="0"
       sodipodi:nodetypes="ccccc" />
    <path
       style="fill:#ffffff;stroke:#000000;stroke-width:1px;stroke-linecap:butt;stroke-linejoin:miter;stroke-opacity:1"
       d="m 391.42857,436.6479 10,-47.14286 100,-60 60,10 z"
       id="path4349"
       inkscape:connector-curvature="0"
       sodipodi:nodetypes="ccccc" />
    <path
       style="fill:#ffffff;stroke:#000000;stroke-width:1px;stroke-linecap:butt;stroke-linejoin:miter;stroke-opacity:1"
       d="m 235.71429,676.6479 8.57142,-65.71429 132.85715,-31.42857 0,51.42857 -12.85715,-30 -107.14285,21.42857 z"
       id="path4351"
       inkscape:connector-curvature="0"
       sodipodi:nodetypes="ccccccc" />
    <path
       style="fill:#ffffff;stroke:#000000;stroke-width:1px;stroke-linecap:butt;stroke-linejoin:miter;stroke-opacity:1"
       d="m 302.85714,524.50504 -14.28571,-30.71429 45.71428,-34.28571 37.14286,32.85714 -5.71428,41.42857 -11.42858,-37.14285 -20,-15.71429 -31.42857,20 z"
       id="path4353"
       inkscape:connector-curvature="0"
       sodipodi:nodetypes="ccccccccc" />
    <path
       style="fill:#1a1a1a;stroke:#000000;stroke-width:1px;stroke-linecap:butt;stroke-linejoin:miter;stroke-opacity:1"
       d="M 347.49248,304.84931 341.43157,165.44825 474.7717,133.12337 610.13214,252.32137 472.7514,175.54978 367.69553,209.89497 z"
       id="path4355"
       inkscape:connector-curvature="0"
       sodipodi:nodetypes="ccccccc" />
    <path
       style="fill:#4d4d4d;stroke:#000000;stroke-width:1px;stroke-linecap:butt;stroke-linejoin:miter;stroke-opacity:1"
       d="M 299.00515,215.95587 266.68027,40.189333 125.25892,13.925367 4.0406103,238.17923 10.101525,300.80868 22.223355,226.0574 133.34014,78.57513 238.396,100.79848 z"
       id="path4359"
       inkscape:connector-curvature="0"
       sodipodi:nodetypes="ccccccccc" />
    <path
       style="fill:#1a1a1a;stroke:#000000;stroke-width:1px;stroke-linecap:butt;stroke-linejoin:miter;stroke-opacity:1"
       d="M 337.39096,306.86961 327.28943,175.54978 248.49753,118.98123 52.527932,270.50411 250.51783,171.50917 l 34.34519,22.22335 z"
       id="path4357"
       inkscape:connector-curvature="0"
       sodipodi:nodetypes="ccccccc" />
    <path
       style="fill:#ffffff;stroke:#000000;stroke-width:1px;stroke-linecap:butt;stroke-linejoin:miter;stroke-opacity:1"
       d="m 276.7818,633.14888 79.80205,-17.1726 2.0203,10.10153 z"
       id="path4363"
       inkscape:connector-curvature="0" />
    <path
       style="fill:#ffffff;stroke:#000000;stroke-width:1px;stroke-linecap:butt;stroke-linejoin:miter;stroke-opacity:1"
       d="m 274.76149,701.83925 c 22.9754,-4.71607 32.72043,-14.24318 82.83251,-9.09137 3.76924,38.167 -26.10053,55.63306 -56.56854,72.73098 z"
       id="path4365"
       inkscape:connector-curvature="0"
       sodipodi:nodetypes="cccc" />
    <path
       style="fill:#333333;stroke:#000000;stroke-width:1px;stroke-linecap:butt;stroke-linejoin:miter;stroke-opacity:1"
       d="m 54.548237,824.06771 30.304577,-40.4061 52.527936,32.32488 -10.10153,50.50762 60.60915,-4.04061 -2.0203,74.75129 -22.22336,-54.54823 -42.4264,0 -10.10153,66.67006 -10.10153,-139.40105 z"
       id="path4875"
       inkscape:connector-curvature="0" />
    <path
       style="fill:#333333;stroke:#000000;stroke-width:1px;stroke-linecap:butt;stroke-linejoin:miter;stroke-opacity:1"
       d="m 208.09142,838.20984 14.14214,36.36549 44.44671,10.10153 -18.18274,56.56854 -58.58885,-4.04061 70.71068,30.30458 32.32488,-127.27922 -26.26397,24.24366 -38.38579,0 z"
       id="path4877"
       inkscape:connector-curvature="0" />
    <path
       style="fill:#333333;stroke:#000000;stroke-width:1px;stroke-linecap:butt;stroke-linejoin:miter;stroke-opacity:1"
       d="M 331.33003,832.14893 292.94424,1018.017 323.24881,917.00174 389.91888,888.71747 339.41126,862.4535 z"
       id="path4879"
       inkscape:connector-curvature="0" />
    <path
       style="fill:#4d4d4d;stroke:#000000;stroke-width:1px;stroke-linecap:butt;stroke-linejoin:miter;stroke-opacity:1"
       d="M 438.4062,870.53472 513.15749,838.20984 462.64987,779.621 391.93919,842.25045 416.18285,947.30632 561.64481,900.8393 547.50268,878.61594 434.36559,912.96113 z"
       id="path4881"
       inkscape:connector-curvature="0" />
    <path
       style="fill:#333333;stroke:#000000;stroke-width:1px;stroke-linecap:butt;stroke-linejoin:miter;stroke-opacity:1"
       d="m 585.88848,815.98649 24.24366,46.46701 0,58.58885 30.30457,-60.60915 32.32488,-64.64976 -50.50762,44.44671 z"
       id="path4883"
       inkscape:connector-curvature="0" />
    <path
       style="fill:#333333;stroke:#000000;stroke-width:1px;stroke-linecap:butt;stroke-linejoin:miter;stroke-opacity:1"
       d="m 476.792,1032.1591 -36.36549,-50.5076 56.56854,-50.50762 56.56854,24.24366 52.52794,-30.30458 74.75129,54.54824 -62.62946,68.6904 6.06091,-66.6701 -28.28427,-16.16244 -44.44671,24.24366 -50.50763,-24.24366 -28.28427,22.22336 z"
       id="path4885"
       inkscape:connector-curvature="0" />
    <path
       style="fill:#333333;stroke:#000000;stroke-width:1px;stroke-linecap:butt;stroke-linejoin:miter;stroke-opacity:1"
       d="m 216.17264,371.51937 -22.22335,24.24366 20.20305,14.14213 z"
       id="path4887"
       inkscape:connector-curvature="0" />
    <path
       style="fill:#333333;stroke:#000000;stroke-width:1px;stroke-linecap:butt;stroke-linejoin:miter;stroke-opacity:1"
       d="m 458.60926,355.35693 6.06091,46.46701 30.30458,-20.20305 z"
       id="path4889"
       inkscape:connector-curvature="0" />
  </g>
</svg>
