<?xml version="1.0" encoding="UTF-8" standalone="no"?>
<!-- Created with Inkscape (http://www.inkscape.org/) -->

<svg
   xmlns:dc="http://purl.org/dc/elements/1.1/"
   xmlns:cc="http://creativecommons.org/ns#"
   xmlns:rdf="http://www.w3.org/1999/02/22-rdf-syntax-ns#"
   xmlns:svg="http://www.w3.org/2000/svg"
   xmlns="http://www.w3.org/2000/svg"
   xmlns:sodipodi="http://sodipodi.sourceforge.net/DTD/sodipodi-0.dtd"
   xmlns:inkscape="http://www.inkscape.org/namespaces/inkscape"
   width="744.09448819"
   height="1052.3622047"
   id="svg4891"
   version="1.1"
   inkscape:version="0.48.4 r9939"
   sodipodi:docname="New document 7">
  <defs
     id="defs4893" />
  <sodipodi:namedview
     id="base"
     pagecolor="#ffffff"
     bordercolor="#666666"
     borderopacity="1.0"
     inkscape:pageopacity="0.0"
     inkscape:pageshadow="2"
     inkscape:zoom="0.49497475"
     inkscape:cx="375"
     inkscape:cy="522.83535"
     inkscape:document-units="px"
     inkscape:current-layer="layer1"
     showgrid="false"
     inkscape:window-width="1366"
     inkscape:window-height="715"
     inkscape:window-x="-8"
     inkscape:window-y="-8"
     inkscape:window-maximized="1" />
  <metadata
     id="metadata4896">
    <rdf:RDF>
      <cc:Work
         rdf:about="">
        <dc:format>image/svg+xml</dc:format>
        <dc:type
           rdf:resource="http://purl.org/dc/dcmitype/StillImage" />
        <dc:title></dc:title>
      </cc:Work>
    </rdf:RDF>
  </metadata>
  <g
     inkscape:label="Layer 1"
     inkscape:groupmode="layer"
     id="layer1">
    <path
       style="fill:#333333;stroke:#000000;stroke-width:1px;stroke-linecap:butt;stroke-linejoin:miter;stroke-opacity:1"
       d="m 78.571429,310.93361 0.836837,-192.79045 129.999994,-61.42858 122.85714,51.42858 20.59174,324.21902 20,-85.71428 27.14286,82.85714 -45.71429,70 -88.57142,-10 49.40826,-345.6476 -112.85715,-54.28571 -92.85714,45.71428 z"
       id="path4899"
       inkscape:connector-curvature="0"
       sodipodi:nodetypes="ccccccccccccc" />
    <path
       style="fill:#333333;stroke:#000000;stroke-width:1px;stroke-linecap:butt;stroke-linejoin:miter;stroke-opacity:1"
       d="M 446.75418,417.28168 426.59317,523.64718 510,499.50504 l 23.34735,-152.42641 125.22408,-14.71645 44.28571,95.71429 -20,-158.57143 L 510,323.79075 465.36766,460.29982 z"
       id="path4901"
       inkscape:connector-curvature="0"
       sodipodi:nodetypes="cccccccccc" />
    <path
       style="fill:none;stroke:#000000;stroke-width:1px;stroke-linecap:butt;stroke-linejoin:miter;stroke-opacity:1"
       d="m 102.61204,252.47092 75.71428,-95.71428 57.14286,68.57142 C 244.13377,246.09209 250.06463,505.01109 250,519.50504 l 2.85714,120 L 90,668.07647 61.428576,552.36219 z"
       id="path4905"
       inkscape:connector-curvature="0"
       sodipodi:nodetypes="cccccccc" />
    <path
       style="fill:#4d4d4d;stroke:#000000;stroke-width:1px;stroke-linecap:butt;stroke-linejoin:miter;stroke-opacity:1"
       d="m 138.57143,430.93361 -15.71429,55.71429 2.85715,108.57143 51.42857,48.57142 45.71428,-28.57142 15.71429,-80 -20,-32.85715 0,34.28572 -11.42857,-37.14286 -22.85715,-42.85714 8.57143,48.57143 -18.57143,20 -8.57142,-47.14286 L 150,505.21933 l 0,-48.57143 25.71429,-34.28572 z"
       id="path4907"
       inkscape:connector-curvature="0" />
    <path
       style="fill:#ffffff;stroke:#000000;stroke-width:1px;stroke-linecap:butt;stroke-linejoin:miter;stroke-opacity:1"
       d="m 170,553.79075 -17.14286,40 28.57143,38.57143 31.42857,-24.28571 0,-61.42857 L 190,580.93361 175.71429,556.6479 z"
       id="path4909"
       inkscape:connector-curvature="0" />
    <path
       style="fill:#ffffff;stroke:#000000;stroke-width:1px;stroke-linecap:butt;stroke-linejoin:miter;stroke-opacity:1"
       d="m 515.28355,563.44413 120.43074,-98.2248 45.71428,18.57142 31.42857,52.85715 -203.28788,68.2248 c -0.75663,-11.14814 -1.42525,-22.38427 5.71429,-41.42857 z"
       id="path4911"
       inkscape:connector-curvature="0"
       sodipodi:nodetypes="cccccc" />
    <path
       style="fill:#1a1a1a;stroke:#000000;stroke-width:1px;stroke-linecap:butt;stroke-linejoin:miter;stroke-opacity:1"
       d="m 389.91888,698.80879 -70.71068,-24.24366 -96.97464,68.69037 -66.67007,46.46702 c 0,0 -80.812202,-56.56854 -80.812202,-64.64976 0,-8.08122 38.385802,-46.46702 38.385802,-46.46702 l -64.649768,34.34519 2.020305,133.34013 179.807153,52.52794 175.76654,-125.25892 195.9696,98.99495 105.05586,-153.54319 -38.3858,-129.29952 -92.93403,4.04061 38.3858,30.30457 -70.71068,96.97465 -119.198,-50.50763 z"
       id="path4921"
       inkscape:connector-curvature="0" />
    <path
       style="fill:#1a1a1a;stroke:#000000;stroke-width:1px;stroke-linecap:butt;stroke-linejoin:miter;stroke-opacity:1"
       d="M 347.49248,888.71747 470.73109,876.59564 414.16254,983.6718 382.84782,966.49922 z"
       id="path4923"
       inkscape:connector-curvature="0"
       sodipodi:nodetypes="ccccc" />
    <path
       style="fill:#1a1a1a;stroke:#000000;stroke-width:1px;stroke-linecap:butt;stroke-linejoin:miter;stroke-opacity:1"
       d="m 145.46197,977.61089 4.04061,119.19801 80.8122,-4.0406 -36.36549,-88.8934 34.34519,-76.77163 z"
       id="path4925"
       inkscape:connector-curvature="0"
       sodipodi:nodetypes="cccccc" />
    <path
       style="fill:#1a1a1a;stroke:#000000;stroke-width:1px;stroke-linecap:butt;stroke-linejoin:miter;stroke-opacity:1"
       d="m 622.25397,898.819 64.64976,34.34518 -32.32488,155.56352 -86.87312,0 60.60915,-113.13711 -60.60915,-74.75129 z"
       id="path4927"
       inkscape:connector-curvature="0" />
    <path
       style="fill:#1a1a1a;stroke:#000000;stroke-width:1px;stroke-linecap:butt;stroke-linejoin:miter;stroke-opacity:1"
       d="m 585.88848,506.87981 38.38579,-4.04061 38.3858,48.48732 -26.26397,10.10153 -66.67006,22.22335 0,-42.42641 z"
       id="path4929"
       inkscape:connector-curvature="0"
       sodipodi:nodetypes="ccccccc" />
  </g>
</svg>
